Kedebideri-Black.ufo
<glyph name="exclam" format="2">
  <advance width="388"/>
  <unicode hex="0021"/>
  <outline>
    <component base="period" xOffset="40"/>
    <contour>
      <point x="111" y="684" type="line"/>
      <point x="142" y="223" type="line"/>
      <point x="244" y="223" type="line"/>
      <point x="275" y="684" type="line"/>
    </contour>
  </outline>
</glyph>
<glyph name="numbersign" format="2">
  <advance width="540"/>
  <unicode hex="0023"/>
  <outline>
    <contour>
      <point x="89" y="0" type="line"/>
      <point x="172" y="0" type="line"/>
      <point x="196" y="195" type="line"/>
      <point x="307" y="195" type="line"/>
      <point x="284" y="0" type="line"/>
      <point x="367" y="0" type="line"/>
      <point x="391" y="195" type="line"/>
      <point x="489" y="195" type="line"/>
      <point x="489" y="287" type="line"/>
      <point x="401" y="287" type="line"/>
      <point x="416" y="406" type="line"/>
      <point x="509" y="406" type="line"/>
      <point x="509" y="498" type="line"/>
      <point x="428" y="498" type="line"/>
      <point x="448" y="671" type="line"/>
      <point x="366" y="671" type="line"/>
      <point x="344" y="498" type="line"/>
      <point x="233" y="498" type="line"/>
      <point x="254" y="671" type="line"/>
      <point x="171" y="671" type="line"/>
      <point x="149" y="498" type="line"/>
      <point x="56" y="498" type="line"/>
      <point x="56" y="406" type="line"/>
      <point x="138" y="406" type="line"/>
      <point x="123" y="287" type="line"/>
      <point x="35" y="287" type="line"/>
      <point x="35" y="195" type="line"/>
      <point x="113" y="195" type="line"/>
    </contour>
    <contour>
      <point x="207" y="287" type="line"/>
      <point x="222" y="406" type="line"/>
      <point x="333" y="406" type="line"/>
      <point x="318" y="287" type="line"/>
    </contour>
  </outline>
</glyph>
<glyph name="dollar" format="2">
  <advance width="540"/>
  <unicode hex="0024"/>
  <outline>
    <contour>
      <point x="253" y="-12" type="curve" smooth="yes"/>
      <point x="400" y="-12"/>
      <point x="478" y="71"/>
      <point x="478" y="188" type="curve" smooth="yes"/>
      <point x="478" y="390"/>
      <point x="203" y="376"/>
      <point x="203" y="482" type="curve" smooth="yes"/>
      <point x="203" y="531"/>
      <point x="232" y="554"/>
      <point x="284" y="554" type="curve" smooth="yes"/>
      <point x="329" y="554"/>
      <point x="361" y="535"/>
      <point x="398" y="500" type="curve"/>
      <point x="470" y="582" type="line"/>
      <point x="423" y="632"/>
      <point x="364" y="669"/>
      <point x="277" y="669" type="curve" smooth="yes"/>
      <point x="149" y="669"/>
      <point x="67" y="593"/>
      <point x="67" y="476" type="curve" smooth="yes"/>
      <point x="67" y="287"/>
      <point x="342" y="294"/>
      <point x="342" y="179" type="curve" smooth="yes"/>
      <point x="342" y="129"/>
      <point x="314" y="102"/>
      <point x="253" y="102" type="curve" smooth="yes"/>
      <point x="202" y="102"/>
      <point x="155" y="124"/>
      <point x="104" y="164" type="curve"/>
      <point x="42" y="68" type="line"/>
      <point x="99" y="16"/>
      <point x="187" y="-12"/>
    </contour>
    <contour>
      <point x="223" y="-113" type="line"/>
      <point x="318" y="-113" type="line"/>
      <point x="318" y="44" type="line"/>
      <point x="223" y="44" type="line"/>
    </contour>
    <contour>
      <point x="223" y="623" type="line"/>
      <point x="318" y="623" type="line"/>
      <point x="318" y="770" type="line"/>
      <point x="223" y="770" type="line"/>
    </contour>
  </outline>
</glyph>
<glyph name="ampersand" format="2">
  <advance width="680"/>
  <unicode hex="0026"/>
  <outline>
    <contour>
      <point x="248" y="-12" type="curve" smooth="yes"/>
      <point x="358" y="-12"/>
      <point x="443" y="33"/>
      <point x="506" y="102" type="curve" smooth="yes"/>
      <point x="579" y="184"/>
      <point x="627" y="277"/>
      <point x="657" y="378" type="curve"/>
      <point x="528" y="378" type="line"/>
      <point x="504" y="290"/>
      <point x="461" y="220"/>
      <point x="408" y="166" type="curve" smooth="yes"/>
      <point x="364" y="124"/>
      <point x="314" y="96"/>
      <point x="266" y="96" type="curve" smooth="yes"/>
      <point x="204" y="96"/>
      <point x="161" y="133"/>
      <point x="161" y="187" type="curve" smooth="yes"/>
      <point x="161" y="314"/>
      <point x="449" y="358"/>
      <point x="449" y="536" type="curve" smooth="yes"/>
      <point x="449" y="627"/>
      <point x="387" y="686"/>
      <point x="288" y="686" type="curve" smooth="yes"/>
      <point x="179" y="686"/>
      <point x="109" y="607"/>
      <point x="109" y="512" type="curve" smooth="yes"/>
      <point x="109" y="376"/>
      <point x="257" y="191"/>
      <point x="423" y="79" type="curve" smooth="yes"/>
      <point x="491" y="32"/>
      <point x="562" y="1"/>
      <point x="627" y="-12" type="curve"/>
      <point x="662" y="102" type="line"/>
      <point x="617" y="110"/>
      <point x="563" y="135"/>
      <point x="508" y="169" type="curve" smooth="yes"/>
      <point x="371" y="254"/>
      <point x="227" y="403"/>
      <point x="227" y="513" type="curve" smooth="yes"/>
      <point x="227" y="561"/>
      <point x="254" y="591"/>
      <point x="291" y="591" type="curve" smooth="yes"/>
      <point x="325" y="591"/>
      <point x="340" y="569"/>
      <point x="340" y="536" type="curve" smooth="yes"/>
      <point x="340" y="402"/>
      <point x="26" y="396"/>
      <point x="26" y="179" type="curve" smooth="yes"/>
      <point x="26" y="75"/>
      <point x="105" y="-12"/>
    </contour>
  </outline>
</glyph>
<glyph name="quotesingle" format="2">
  <advance width="302"/>
  <unicode hex="0027"/>
  <outline>
    <contour>
      <point x="111" y="377" type="line"/>
      <point x="190" y="377" type="line"/>
      <point x="218" y="578" type="line"/>
      <point x="223" y="709" type="line"/>
      <point x="78" y="709" type="line"/>
      <point x="83" y="578" type="line"/>
    </contour>
  </outline>
</glyph>
<glyph name="parenleft" format="2">
  <advance width="478"/>
  <unicode hex="0028"/>
  <outline>
    <contour>
      <point x="291" y="-191" type="curve"/>
      <point x="406" y="-121" type="line"/>
      <point x="286" y="28"/>
      <point x="224" y="166"/>
      <point x="224" y="333" type="curve" smooth="yes"/>
      <point x="224" y="492"/>
      <point x="304" y="674"/>
      <point x="396" y="774" type="curve"/>
      <point x="290" y="857" type="line"/>
      <point x="168" y="715"/>
      <point x="89" y="504"/>
      <point x="89" y="333" type="curve" smooth="yes"/>
      <point x="89" y="152"/>
      <point x="153" y="-19"/>
    </contour>
  </outline>
</glyph>
<glyph name="asterisk" format="2">
  <advance width="466"/>
  <unicode hex="002A"/>
  <outline>
    <contour>
      <point x="151" y="371" type="line"/>
      <point x="233" y="462" type="line"/>
      <point x="314" y="371" type="line"/>
      <point x="374" y="415" type="line"/>
      <point x="313" y="520" type="line"/>
      <point x="424" y="569" type="line"/>
      <point x="400" y="640" type="line"/>
      <point x="283" y="614" type="line"/>
      <point x="270" y="735" type="line"/>
      <point x="195" y="735" type="line"/>
      <point x="182" y="615" type="line"/>
      <point x="65" y="640" type="line"/>
      <point x="42" y="569" type="line"/>
      <point x="151" y="520" type="line"/>
      <point x="91" y="415" type="line"/>
    </contour>
  </outline>
</glyph>
<glyph name="plus" format="2">
  <advance width="540"/>
  <unicode hex="002B"/>
  <outline>
    <contour>
      <point x="217" y="98" type="line"/>
      <point x="322" y="98" type="line"/>
      <point x="322" y="290" type="line"/>
      <point x="505" y="290" type="line"/>
      <point x="505" y="391" type="line"/>
      <point x="322" y="391" type="line"/>
      <point x="322" y="583" type="line"/>
      <point x="217" y="583" type="line"/>
      <point x="217" y="391" type="line"/>
      <point x="35" y="391" type="line"/>
      <point x="35" y="290" type="line"/>
      <point x="217" y="290" type="line"/>
    </contour>
  </outline>
</glyph>
<glyph name="comma" format="2">
  <advance width="305"/>
  <unicode hex="002C"/>
  <outline>
    <contour>
      <point x="78" y="154" type="line"/>
      <point x="78" y="0" type="line"/>
      <point x="167" y="0" type="line"/>
      <point x="157" y="43" type="line"/>
      <point x="87" y="-136" type="line"/>
      <point x="132" y="-152" type="line"/>
      <point x="224" y="8" type="line"/>
      <point x="224" y="154" type="line"/>
    </contour>
  </outline>
</glyph>
<glyph name="period" format="2">
  <advance width="308"/>
  <unicode hex="002E"/>
  <outline>
    <contour>
      <point x="81" y="154" type="line"/>
      <point x="81" y="0" type="line"/>
      <point x="227" y="0" type="line"/>
      <point x="227" y="154" type="line"/>
    </contour>
  </outline>
</glyph>
<glyph name="slash" format="2">
  <advance width="351"/>
  <unicode hex="002F"/>
  <outline>
    <contour>
      <point x="12" y="-165" type="line"/>
      <point x="106" y="-165" type="line"/>
      <point x="324" y="733" type="line"/>
      <point x="231" y="733" type="line"/>
    </contour>
  </outline>
</glyph>
<glyph name="zero" format="2">
  <advance width="540"/>
  <unicode hex="0030"/>
  <outline>
    <contour>
      <point x="270" y="-12" type="curve" smooth="yes"/>
      <point x="410" y="-12"/>
      <point x="501" y="108"/>
      <point x="501" y="331" type="curve" smooth="yes"/>
      <point x="501" y="553"/>
      <point x="410" y="669"/>
      <point x="270" y="669" type="curve" smooth="yes"/>
      <point x="130" y="669"/>
      <point x="39" y="554"/>
      <point x="39" y="331" type="curve" smooth="yes"/>
      <point x="39" y="108"/>
      <point x="130" y="-12"/>
    </contour>
    <contour>
      <point x="270" y="97" type="curve" smooth="yes"/>
      <point x="215" y="97"/>
      <point x="173" y="150"/>
      <point x="173" y="331" type="curve" smooth="yes"/>
      <point x="173" y="512"/>
      <point x="215" y="558"/>
      <point x="270" y="558" type="curve" smooth="yes"/>
      <point x="325" y="558"/>
      <point x="367" y="512"/>
      <point x="367" y="331" type="curve" smooth="yes"/>
      <point x="367" y="150"/>
      <point x="325" y="97"/>
    </contour>
  </outline>
</glyph>
<glyph name="one" format="2">
  <advance width="540"/>
  <unicode hex="0031"/>
  <outline>
    <contour>
      <point x="73" y="0" type="line"/>
      <point x="484" y="0" type="line"/>
      <point x="484" y="114" type="line"/>
      <point x="359" y="114" type="line"/>
      <point x="359" y="656" type="line"/>
      <point x="254" y="656" type="line"/>
      <point x="210" y="629"/>
      <point x="164" y="611"/>
      <point x="95" y="598" type="curve"/>
      <point x="95" y="510" type="line"/>
      <point x="217" y="510" type="line"/>
      <point x="217" y="114" type="line"/>
      <point x="73" y="114" type="line"/>
    </contour>
  </outline>
</glyph>
<glyph name="two" format="2">
  <advance width="540"/>
  <unicode hex="0032"/>
  <outline>
    <contour>
      <point x="38" y="0" type="line"/>
      <point x="494" y="0" type="line"/>
      <point x="494" y="119" type="line"/>
      <point x="354" y="119" type="line" smooth="yes"/>
      <point x="323" y="119"/>
      <point x="278" y="116"/>
      <point x="244" y="112" type="curve"/>
      <point x="358" y="231"/>
      <point x="463" y="349"/>
      <point x="463" y="462" type="curve" smooth="yes"/>
      <point x="463" y="587"/>
      <point x="376" y="669"/>
      <point x="248" y="669" type="curve" smooth="yes"/>
      <point x="156" y="669"/>
      <point x="95" y="633"/>
      <point x="31" y="565" type="curve"/>
      <point x="109" y="488" type="line"/>
      <point x="142" y="524"/>
      <point x="181" y="557"/>
      <point x="229" y="557" type="curve" smooth="yes"/>
      <point x="291" y="557"/>
      <point x="327" y="519"/>
      <point x="327" y="454" type="curve" smooth="yes"/>
      <point x="327" y="358"/>
      <point x="210" y="245"/>
      <point x="38" y="81" type="curve"/>
    </contour>
  </outline>
</glyph>
<glyph name="three" format="2">
  <advance width="540"/>
  <unicode hex="0033"/>
  <outline>
    <contour>
      <point x="250" y="-12" type="curve" smooth="yes"/>
      <point x="380" y="-12"/>
      <point x="490" y="56"/>
      <point x="490" y="178" type="curve" smooth="yes"/>
      <point x="490" y="263"/>
      <point x="434" y="318"/>
      <point x="357" y="339" type="curve"/>
      <point x="357" y="343" type="line"/>
      <point x="428" y="372"/>
      <point x="468" y="421"/>
      <point x="468" y="490" type="curve" smooth="yes"/>
      <point x="468" y="604"/>
      <point x="379" y="669"/>
      <point x="246" y="669" type="curve" smooth="yes"/>
      <point x="166" y="669"/>
      <point x="101" y="636"/>
      <point x="42" y="585" type="curve"/>
      <point x="115" y="498" type="line"/>
      <point x="155" y="535"/>
      <point x="192" y="557"/>
      <point x="240" y="557" type="curve" smooth="yes"/>
      <point x="294" y="557"/>
      <point x="326" y="529"/>
      <point x="326" y="480" type="curve" smooth="yes"/>
      <point x="326" y="425"/>
      <point x="287" y="387"/>
      <point x="166" y="387" type="curve"/>
      <point x="166" y="285" type="line"/>
      <point x="311" y="285"/>
      <point x="347" y="247"/>
      <point x="347" y="187" type="curve" smooth="yes"/>
      <point x="347" y="133"/>
      <point x="303" y="102"/>
      <point x="236" y="102" type="curve" smooth="yes"/>
      <point x="178" y="102"/>
      <point x="129" y="131"/>
      <point x="89" y="170" type="curve"/>
      <point x="23" y="80" type="line"/>
      <point x="70" y="26"/>
      <point x="143" y="-12"/>
    </contour>
  </outline>
</glyph>
<glyph name="four" format="2">
  <advance width="540"/>
  <unicode hex="0034"/>
  <outline>
    <contour>
      <point x="305" y="0" type="line"/>
      <point x="437" y="0" type="line"/>
      <point x="437" y="656" type="line"/>
      <point x="265" y="656" type="line"/>
      <point x="19" y="258" type="line"/>
      <point x="19" y="160" type="line"/>
      <point x="515" y="160" type="line"/>
      <point x="515" y="269" type="line"/>
      <point x="156" y="269" type="line"/>
      <point x="253" y="424" type="line"/>
      <point x="271" y="461"/>
      <point x="290" y="496"/>
      <point x="306" y="532" type="curve"/>
      <point x="310" y="532" type="line"/>
      <point x="308" y="491"/>
      <point x="305" y="429"/>
      <point x="305" y="388" type="curve" smooth="yes"/>
    </contour>
  </outline>
</glyph>
<glyph name="five" format="2">
  <advance width="540"/>
  <unicode hex="0035"/>
  <outline>
    <contour>
      <point x="253" y="-12" type="curve" smooth="yes"/>
      <point x="379" y="-12"/>
      <point x="491" y="70"/>
      <point x="491" y="216" type="curve" smooth="yes"/>
      <point x="491" y="356"/>
      <point x="396" y="420"/>
      <point x="283" y="420" type="curve" smooth="yes"/>
      <point x="254" y="420"/>
      <point x="231" y="414"/>
      <point x="205" y="403" type="curve"/>
      <point x="217" y="536" type="line"/>
      <point x="460" y="536" type="line"/>
      <point x="460" y="656" type="line"/>
      <point x="94" y="656" type="line"/>
      <point x="76" y="327" type="line"/>
      <point x="140" y="285" type="line"/>
      <point x="180" y="311"/>
      <point x="201" y="320"/>
      <point x="240" y="320" type="curve" smooth="yes"/>
      <point x="304" y="320"/>
      <point x="348" y="281"/>
      <point x="348" y="212" type="curve" smooth="yes"/>
      <point x="348" y="141"/>
      <point x="302" y="102"/>
      <point x="233" y="102" type="curve" smooth="yes"/>
      <point x="174" y="102"/>
      <point x="127" y="132"/>
      <point x="88" y="169" type="curve"/>
      <point x="23" y="79" type="line"/>
      <point x="74" y="28"/>
      <point x="146" y="-12"/>
    </contour>
  </outline>
</glyph>
<glyph name="six" format="2">
  <advance width="540"/>
  <unicode hex="0036"/>
  <outline>
    <contour>
      <point x="288" y="-12" type="curve" smooth="yes"/>
      <point x="405" y="-12"/>
      <point x="503" y="71"/>
      <point x="503" y="206" type="curve" smooth="yes"/>
      <point x="503" y="344"/>
      <point x="421" y="409"/>
      <point x="308" y="409" type="curve" smooth="yes"/>
      <point x="263" y="409"/>
      <point x="202" y="379"/>
      <point x="167" y="328" type="curve"/>
      <point x="173" y="234" type="line"/>
      <point x="205" y="288"/>
      <point x="246" y="308"/>
      <point x="281" y="308" type="curve" smooth="yes"/>
      <point x="336" y="308"/>
      <point x="373" y="278"/>
      <point x="373" y="206" type="curve" smooth="yes"/>
      <point x="373" y="130"/>
      <point x="333" y="94"/>
      <point x="285" y="94" type="curve" smooth="yes"/>
      <point x="224" y="94"/>
      <point x="173" y="148"/>
      <point x="173" y="311" type="curve" smooth="yes"/>
      <point x="173" y="493"/>
      <point x="236" y="554"/>
      <point x="315" y="554" type="curve" smooth="yes"/>
      <point x="354" y="554"/>
      <point x="395" y="532"/>
      <point x="418" y="506" type="curve"/>
      <point x="493" y="591" type="line"/>
      <point x="452" y="633"/>
      <point x="390" y="669"/>
      <point x="306" y="669" type="curve" smooth="yes"/>
      <point x="169" y="669"/>
      <point x="43" y="559"/>
      <point x="43" y="311" type="curve" smooth="yes"/>
      <point x="43" y="84"/>
      <point x="160" y="-12"/>
    </contour>
  </outline>
</glyph>
<glyph name="seven" format="2">
  <advance width="540"/>
  <unicode hex="0037"/>
  <outline>
    <contour>
      <point x="167" y="0" type="curve"/>
      <point x="310" y="0" type="line"/>
      <point x="322" y="255"/>
      <point x="344" y="383"/>
      <point x="497" y="569" type="curve"/>
      <point x="497" y="656" type="line"/>
      <point x="45" y="656" type="line"/>
      <point x="45" y="536" type="line"/>
      <point x="344" y="536" type="line"/>
      <point x="219" y="363"/>
      <point x="179" y="222"/>
    </contour>
  </outline>
</glyph>
<glyph name="eight" format="2">
  <advance width="540"/>
  <unicode hex="0038"/>
  <outline>
    <contour>
      <point x="269" y="-12" type="curve" smooth="yes"/>
      <point x="407" y="-12"/>
      <point x="499" y="65"/>
      <point x="499" y="168" type="curve" smooth="yes"/>
      <point x="499" y="255"/>
      <point x="447" y="305"/>
      <point x="385" y="339" type="curve"/>
      <point x="385" y="343" type="line"/>
      <point x="429" y="374"/>
      <point x="472" y="426"/>
      <point x="472" y="489" type="curve" smooth="yes"/>
      <point x="472" y="597"/>
      <point x="394" y="669"/>
      <point x="274" y="669" type="curve" smooth="yes"/>
      <point x="154" y="669"/>
      <point x="68" y="599"/>
      <point x="68" y="489" type="curve" smooth="yes"/>
      <point x="68" y="420"/>
      <point x="106" y="372"/>
      <point x="156" y="335" type="curve"/>
      <point x="156" y="331" type="line"/>
      <point x="94" y="298"/>
      <point x="42" y="247"/>
      <point x="42" y="167" type="curve" smooth="yes"/>
      <point x="42" y="61"/>
      <point x="139" y="-12"/>
    </contour>
    <contour>
      <point x="311" y="378" type="curve"/>
      <point x="243" y="405"/>
      <point x="193" y="432"/>
      <point x="193" y="489" type="curve" smooth="yes"/>
      <point x="193" y="542"/>
      <point x="228" y="569"/>
      <point x="271" y="569" type="curve" smooth="yes"/>
      <point x="324" y="569"/>
      <point x="356" y="533"/>
      <point x="356" y="480" type="curve" smooth="yes"/>
      <point x="356" y="443"/>
      <point x="340" y="410"/>
    </contour>
    <contour>
      <point x="273" y="86" type="curve" smooth="yes"/>
      <point x="213" y="86"/>
      <point x="165" y="123"/>
      <point x="165" y="183" type="curve" smooth="yes"/>
      <point x="165" y="227"/>
      <point x="189" y="266"/>
      <point x="222" y="293" type="curve"/>
      <point x="306" y="258"/>
      <point x="366" y="235"/>
      <point x="366" y="173" type="curve" smooth="yes"/>
      <point x="366" y="116"/>
      <point x="326" y="86"/>
    </contour>
  </outline>
</glyph>
<glyph name="nine" format="2">
  <advance width="540"/>
  <unicode hex="0039"/>
  <outline>
    <contour>
      <point x="232" y="-12" type="curve" smooth="yes"/>
      <point x="369" y="-12"/>
      <point x="496" y="96"/>
      <point x="496" y="344" type="curve" smooth="yes"/>
      <point x="496" y="572"/>
      <point x="378" y="669"/>
      <point x="250" y="669" type="curve" smooth="yes"/>
      <point x="133" y="669"/>
      <point x="36" y="585"/>
      <point x="36" y="450" type="curve" smooth="yes"/>
      <point x="36" y="311"/>
      <point x="117" y="247"/>
      <point x="230" y="247" type="curve" smooth="yes"/>
      <point x="275" y="247"/>
      <point x="336" y="277"/>
      <point x="371" y="327" type="curve"/>
      <point x="365" y="422" type="line"/>
      <point x="333" y="368"/>
      <point x="293" y="348"/>
      <point x="257" y="348" type="curve" smooth="yes"/>
      <point x="203" y="348"/>
      <point x="166" y="378"/>
      <point x="166" y="450" type="curve" smooth="yes"/>
      <point x="166" y="526"/>
      <point x="205" y="561"/>
      <point x="253" y="561" type="curve" smooth="yes"/>
      <point x="314" y="561"/>
      <point x="366" y="507"/>
      <point x="366" y="344" type="curve" smooth="yes"/>
      <point x="366" y="163"/>
      <point x="303" y="102"/>
      <point x="223" y="102" type="curve" smooth="yes"/>
      <point x="185" y="102"/>
      <point x="144" y="124"/>
      <point x="121" y="150" type="curve"/>
      <point x="45" y="65" type="line"/>
      <point x="86" y="23"/>
      <point x="148" y="-12"/>
    </contour>
  </outline>
</glyph>
<glyph name="less" format="2">
  <advance width="646"/>
  <unicode hex="003C"/>
  <outline>
    <contour>
      <point x="529" y="48" type="line"/>
      <point x="562" y="103" type="line"/>
      <point x="182" y="333" type="line"/>
      <point x="561" y="563" type="line"/>
      <point x="529" y="616" type="line"/>
      <point x="68" y="337" type="line"/>
      <point x="68" y="327" type="line"/>
    </contour>
  </outline>
</glyph>
<glyph name="greater" format="2">
  <advance width="540"/>
  <unicode hex="003E"/>
  <outline>
    <contour>
      <point x="35" y="111" type="line"/>
      <point x="505" y="293" type="line"/>
      <point x="505" y="392" type="line"/>
      <point x="35" y="574" type="line"/>
      <point x="35" y="456" type="line"/>
      <point x="222" y="394" type="line"/>
      <point x="361" y="345" type="line"/>
      <point x="361" y="340" type="line"/>
      <point x="222" y="291" type="line"/>
      <point x="35" y="229" type="line"/>
    </contour>
  </outline>
</glyph>
<glyph name="question" format="2">
  <advance width="624"/>
  <unicode hex="003F"/>
  <outline>
    <component base="period" xOffset="142"/>
    <contour>
      <point x="234" y="414" type="curve"/>
      <point x="234" y="233" type="line"/>
      <point x="359" y="233" type="line"/>
      <point x="359" y="344" type="line"/>
      <point x="279" y="297" type="line"/>
      <point x="460" y="297"/>
      <point x="532" y="406"/>
      <point x="532" y="507" type="curve" smooth="yes"/>
      <point x="532" y="618"/>
      <point x="436" y="701"/>
      <point x="306" y="701" type="curve" smooth="yes"/>
      <point x="234" y="701"/>
      <point x="126" y="666"/>
      <point x="67" y="582" type="curve"/>
      <point x="153" y="494" type="line"/>
      <point x="192" y="543"/>
      <point x="254" y="573"/>
      <point x="309" y="573" type="curve" smooth="yes"/>
      <point x="357" y="573"/>
      <point x="401" y="550"/>
      <point x="401" y="500" type="curve" smooth="yes"/>
      <point x="401" y="458"/>
      <point x="365" y="414"/>
    </contour>
  </outline>
</glyph>
<glyph name="at" format="2">
  <advance width="924"/>
  <unicode hex="0040"/>
  <outline>
    <contour>
      <point x="438" y="-174" type="curve" smooth="yes"/>
      <point x="511" y="-174"/>
      <point x="577" y="-159"/>
      <point x="640" y="-125" type="curve"/>
      <point x="608" y="-47" type="line"/>
      <point x="565" y="-70"/>
      <point x="504" y="-88"/>
      <point x="449" y="-88" type="curve" smooth="yes"/>
      <point x="286" y="-88"/>
      <point x="147" y="11"/>
      <point x="147" y="215" type="curve" smooth="yes"/>
      <point x="147" y="449"/>
      <point x="322" y="601"/>
      <point x="500" y="601" type="curve" smooth="yes"/>
      <point x="700" y="601"/>
      <point x="783" y="470"/>
      <point x="783" y="319" type="curve" smooth="yes"/>
      <point x="783" y="203"/>
      <point x="720" y="129"/>
      <point x="657" y="129" type="curve" smooth="yes"/>
      <point x="609" y="129"/>
      <point x="593" y="159"/>
      <point x="608" y="223" type="curve" smooth="yes"/>
      <point x="654" y="447" type="line"/>
      <point x="567" y="447" type="line"/>
      <point x="552" y="404" type="line"/>
      <point x="550" y="404" type="line"/>
      <point x="532" y="440"/>
      <point x="505" y="455"/>
      <point x="471" y="455" type="curve" smooth="yes"/>
      <point x="352" y="455"/>
      <point x="264" y="328"/>
      <point x="264" y="204" type="curve" smooth="yes"/>
      <point x="264" y="110"/>
      <point x="319" y="50"/>
      <point x="398" y="50" type="curve" smooth="yes"/>
      <point x="441" y="50"/>
      <point x="493" y="78"/>
      <point x="523" y="119" type="curve"/>
      <point x="525" y="119" type="line"/>
      <point x="535" y="69"/>
      <point x="583" y="41"/>
      <point x="642" y="41" type="curve" smooth="yes"/>
      <point x="748" y="41"/>
      <point x="873" y="135"/>
      <point x="873" y="323" type="curve" smooth="yes"/>
      <point x="873" y="538"/>
      <point x="732" y="688"/>
      <point x="511" y="688" type="curve" smooth="yes"/>
      <point x="261" y="688"/>
      <point x="50" y="498"/>
      <point x="50" y="211" type="curve" smooth="yes"/>
      <point x="50" y="-48"/>
      <point x="232" y="-174"/>
    </contour>
    <contour>
      <point x="428" y="140" type="curve" smooth="yes"/>
      <point x="393" y="140"/>
      <point x="371" y="163"/>
      <point x="371" y="212" type="curve" smooth="yes"/>
      <point x="371" y="277"/>
      <point x="411" y="364"/>
      <point x="475" y="364" type="curve" smooth="yes"/>
      <point x="497" y="364"/>
      <point x="514" y="353"/>
      <point x="526" y="332" type="curve"/>
      <point x="501" y="189" type="line"/>
      <point x="473" y="153"/>
      <point x="451" y="140"/>
    </contour>
  </outline>
</glyph>
<glyph name="A" format="2">
  <advance width="587"/>
  <unicode hex="0041"/>
  <anchor x="290" y="696" name="aboveUC"/>
  <outline>
    <contour>
      <point x="441" y="0" type="line"/>
      <point x="592" y="0" type="line"/>
      <point x="378" y="674" type="line"/>
      <point x="208" y="674" type="line"/>
      <point x="-5" y="0" type="line"/>
      <point x="140" y="0" type="line"/>
      <point x="186" y="167" type="line"/>
      <point x="396" y="167" type="line"/>
    </contour>
    <contour>
      <point x="213" y="278" type="line"/>
      <point x="233" y="346" type="line" smooth="yes"/>
      <point x="252" y="415"/>
      <point x="271" y="493"/>
      <point x="288" y="565" type="curve"/>
      <point x="292" y="565" type="line"/>
      <point x="311" y="494"/>
      <point x="329" y="415"/>
      <point x="349" y="346" type="curve" smooth="yes"/>
      <point x="369" y="278" type="line"/>
    </contour>
  </outline>
</glyph>
<glyph name="B" format="2">
  <advance width="622"/>
  <unicode hex="0042"/>
  <anchor x="307" y="696" name="aboveUC"/>
  <outline>
    <contour>
      <point x="81" y="0" type="line"/>
      <point x="326" y="0" type="line" smooth="yes"/>
      <point x="473" y="0"/>
      <point x="587" y="61"/>
      <point x="587" y="198" type="curve" smooth="yes"/>
      <point x="587" y="288"/>
      <point x="534" y="339"/>
      <point x="463" y="357" type="curve"/>
      <point x="463" y="361" type="line"/>
      <point x="519" y="382"/>
      <point x="553" y="445"/>
      <point x="553" y="507" type="curve" smooth="yes"/>
      <point x="553" y="634"/>
      <point x="447" y="674"/>
      <point x="307" y="674" type="curve" smooth="yes"/>
      <point x="81" y="674" type="line"/>
    </contour>
    <contour>
      <point x="223" y="401" type="line"/>
      <point x="223" y="563" type="line"/>
      <point x="301" y="563" type="line" smooth="yes"/>
      <point x="376" y="563"/>
      <point x="414" y="542"/>
      <point x="414" y="486" type="curve" smooth="yes"/>
      <point x="414" y="434"/>
      <point x="379" y="401"/>
      <point x="299" y="401" type="curve" smooth="yes"/>
    </contour>
    <contour>
      <point x="223" y="110" type="line"/>
      <point x="223" y="296" type="line"/>
      <point x="313" y="296" type="line" smooth="yes"/>
      <point x="402" y="296"/>
      <point x="448" y="269"/>
      <point x="448" y="207" type="curve" smooth="yes"/>
      <point x="448" y="141"/>
      <point x="401" y="110"/>
      <point x="313" y="110" type="curve" smooth="yes"/>
    </contour>
  </outline>
</glyph>
<glyph name="C" format="2">
  <advance width="599"/>
  <unicode hex="0043"/>
  <anchor x="352" y="696" name="aboveUC"/>
  <anchor x="360" y="0" name="baseLC"/>
  <outline>
    <contour>
      <point x="359" y="-12" type="curve" smooth="yes"/>
      <point x="446" y="-12"/>
      <point x="519" y="21"/>
      <point x="575" y="86" type="curve"/>
      <point x="499" y="175" type="line"/>
      <point x="465" y="138"/>
      <point x="421" y="110"/>
      <point x="364" y="110" type="curve" smooth="yes"/>
      <point x="261" y="110"/>
      <point x="194" y="195"/>
      <point x="194" y="338" type="curve" smooth="yes"/>
      <point x="194" y="478"/>
      <point x="269" y="563"/>
      <point x="367" y="563" type="curve" smooth="yes"/>
      <point x="417" y="563"/>
      <point x="454" y="540"/>
      <point x="488" y="508" type="curve"/>
      <point x="564" y="599" type="line"/>
      <point x="519" y="645"/>
      <point x="450" y="686"/>
      <point x="363" y="686" type="curve" smooth="yes"/>
      <point x="193" y="686"/>
      <point x="48" y="556"/>
      <point x="48" y="333" type="curve" smooth="yes"/>
      <point x="48" y="107"/>
      <point x="188" y="-12"/>
    </contour>
  </outline>
</glyph>
<glyph name="D" format="2">
  <advance width="652"/>
  <unicode hex="0044"/>
  <anchor x="327" y="696" name="aboveUC"/>
  <outline>
    <contour>
      <point x="81" y="0" type="line"/>
      <point x="276" y="0" type="line" smooth="yes"/>
      <point x="474" y="0"/>
      <point x="604" y="110"/>
      <point x="604" y="339" type="curve" smooth="yes"/>
      <point x="604" y="569"/>
      <point x="474" y="674"/>
      <point x="268" y="674" type="curve" smooth="yes"/>
      <point x="81" y="674" type="line"/>
    </contour>
    <contour>
      <point x="223" y="114" type="line"/>
      <point x="223" y="559" type="line"/>
      <point x="259" y="559" type="line" smooth="yes"/>
      <point x="380" y="559"/>
      <point x="458" y="502"/>
      <point x="458" y="339" type="curve" smooth="yes"/>
      <point x="458" y="177"/>
      <point x="380" y="114"/>
      <point x="259" y="114" type="curve" smooth="yes"/>
    </contour>
  </outline>
</glyph>
<glyph name="E" format="2">
  <advance width="562"/>
  <unicode hex="0045"/>
  <anchor x="297" y="696" name="aboveUC"/>
  <outline>
    <contour>
      <point x="81" y="0" type="line"/>
      <point x="509" y="0" type="line"/>
      <point x="509" y="119" type="line"/>
      <point x="223" y="119" type="line"/>
      <point x="223" y="288" type="line"/>
      <point x="457" y="288" type="line"/>
      <point x="457" y="407" type="line"/>
      <point x="223" y="407" type="line"/>
      <point x="223" y="554" type="line"/>
      <point x="498" y="554" type="line"/>
      <point x="498" y="674" type="line"/>
      <point x="81" y="674" type="line"/>
    </contour>
  </outline>
</glyph>
<glyph name="F" format="2">
  <advance width="537"/>
  <unicode hex="0046"/>
  <anchor x="298" y="696" name="aboveUC"/>
  <outline>
    <contour>
      <point x="81" y="0" type="line"/>
      <point x="223" y="0" type="line"/>
      <point x="223" y="268" type="line"/>
      <point x="460" y="268" type="line"/>
      <point x="460" y="387" type="line"/>
      <point x="223" y="387" type="line"/>
      <point x="223" y="554" type="line"/>
      <point x="501" y="554" type="line"/>
      <point x="501" y="674" type="line"/>
      <point x="81" y="674" type="line"/>
    </contour>
  </outline>
</glyph>
<glyph name="G" format="2">
  <advance width="655"/>
  <unicode hex="0047"/>
  <anchor x="376" y="696" name="aboveUC"/>
  <outline>
    <contour>
      <point x="374" y="-12" type="curve" smooth="yes"/>
      <point x="468" y="-12"/>
      <point x="549" y="23"/>
      <point x="595" y="68" type="curve"/>
      <point x="595" y="375" type="line"/>
      <point x="351" y="375" type="line"/>
      <point x="351" y="259" type="line"/>
      <point x="468" y="259" type="line"/>
      <point x="468" y="133" type="line"/>
      <point x="450" y="119"/>
      <point x="419" y="110"/>
      <point x="389" y="110" type="curve" smooth="yes"/>
      <point x="260" y="110"/>
      <point x="194" y="195"/>
      <point x="194" y="338" type="curve" smooth="yes"/>
      <point x="194" y="478"/>
      <point x="270" y="563"/>
      <point x="378" y="563" type="curve" smooth="yes"/>
      <point x="438" y="563"/>
      <point x="475" y="539"/>
      <point x="508" y="508" type="curve"/>
      <point x="584" y="599" type="line"/>
      <point x="539" y="644"/>
      <point x="471" y="686"/>
      <point x="374" y="686" type="curve" smooth="yes"/>
      <point x="194" y="686"/>
      <point x="48" y="556"/>
      <point x="48" y="333" type="curve" smooth="yes"/>
      <point x="48" y="107"/>
      <point x="190" y="-12"/>
    </contour>
  </outline>
</glyph>
<glyph name="H" format="2">
  <advance width="692"/>
  <unicode hex="0048"/>
  <anchor x="345" y="696" name="aboveUC"/>
  <outline>
    <contour>
      <point x="81" y="0" type="line"/>
      <point x="223" y="0" type="line"/>
      <point x="223" y="286" type="line"/>
      <point x="468" y="286" type="line"/>
      <point x="468" y="0" type="line"/>
      <point x="611" y="0" type="line"/>
      <point x="611" y="674" type="line"/>
      <point x="468" y="674" type="line"/>
      <point x="468" y="411" type="line"/>
      <point x="223" y="411" type="line"/>
      <point x="223" y="674" type="line"/>
      <point x="81" y="674" type="line"/>
    </contour>
  </outline>
</glyph>
<glyph name="I" format="2">
  <advance width="305"/>
  <unicode hex="0049"/>
  <anchor x="152" y="696" name="aboveUC"/>
  <outline>
    <contour>
      <point x="81" y="0" type="line"/>
      <point x="223" y="0" type="line"/>
      <point x="223" y="674" type="line"/>
      <point x="81" y="674" type="line"/>
    </contour>
  </outline>
</glyph>
<glyph name="J" format="2">
  <advance width="521"/>
  <unicode hex="004A"/>
  <anchor x="369" y="696" name="aboveUC"/>
  <outline>
    <contour>
      <point x="231" y="-12" type="curve" smooth="yes"/>
      <point x="378" y="-12"/>
      <point x="443" y="92"/>
      <point x="443" y="220" type="curve" smooth="yes"/>
      <point x="443" y="674" type="line"/>
      <point x="300" y="674" type="line"/>
      <point x="300" y="232" type="line" smooth="yes"/>
      <point x="300" y="140"/>
      <point x="270" y="110"/>
      <point x="213" y="110" type="curve" smooth="yes"/>
      <point x="176" y="110"/>
      <point x="141" y="132"/>
      <point x="116" y="179" type="curve"/>
      <point x="18" y="107" type="line"/>
      <point x="64" y="27"/>
      <point x="131" y="-12"/>
    </contour>
  </outline>
</glyph>
<glyph name="K" format="2">
  <advance width="589"/>
  <unicode hex="004B"/>
  <anchor x="318" y="702" name="aboveUC"/>
  <outline>
    <contour>
      <point x="95" y="0" type="line"/>
      <point x="166" y="0" type="line"/>
      <point x="166" y="222" type="line"/>
      <point x="291" y="368" type="line"/>
      <point x="503" y="0" type="line"/>
      <point x="582" y="0" type="line"/>
      <point x="337" y="423" type="line"/>
      <point x="551" y="679" type="line"/>
      <point x="470" y="679" type="line"/>
      <point x="169" y="323" type="line"/>
      <point x="166" y="323" type="line"/>
      <point x="166" y="679" type="line"/>
      <point x="95" y="679" type="line"/>
    </contour>
  </outline>
</glyph>
<glyph name="L" format="2">
  <advance width="530"/>
  <unicode hex="004C"/>
  <anchor x="155" y="696" name="aboveUC"/>
  <outline>
    <contour>
      <point x="81" y="0" type="line"/>
      <point x="494" y="0" type="line"/>
      <point x="494" y="119" type="line"/>
      <point x="223" y="119" type="line"/>
      <point x="223" y="674" type="line"/>
      <point x="81" y="674" type="line"/>
    </contour>
  </outline>
</glyph>
<glyph name="M" format="2">
  <advance width="782"/>
  <unicode hex="004D"/>
  <anchor x="390" y="696" name="aboveUC"/>
  <outline>
    <contour>
      <point x="81" y="0" type="line"/>
      <point x="209" y="0" type="line"/>
      <point x="209" y="265" type="line" smooth="yes"/>
      <point x="209" y="330"/>
      <point x="197" y="426"/>
      <point x="191" y="490" type="curve"/>
      <point x="195" y="490" type="line"/>
      <point x="249" y="331" type="line"/>
      <point x="349" y="60" type="line"/>
      <point x="429" y="60" type="line"/>
      <point x="529" y="331" type="line"/>
      <point x="584" y="490" type="line"/>
      <point x="588" y="490" type="line"/>
      <point x="582" y="426"/>
      <point x="570" y="330"/>
      <point x="570" y="265" type="curve" smooth="yes"/>
      <point x="570" y="0" type="line"/>
      <point x="700" y="0" type="line"/>
      <point x="700" y="674" type="line"/>
      <point x="543" y="674" type="line"/>
      <point x="434" y="365" type="line"/>
      <point x="420" y="324"/>
      <point x="408" y="281"/>
      <point x="395" y="238" type="curve"/>
      <point x="390" y="238" type="line"/>
      <point x="376" y="281"/>
      <point x="364" y="324"/>
      <point x="350" y="365" type="curve"/>
      <point x="238" y="674" type="line"/>
      <point x="81" y="674" type="line"/>
    </contour>
  </outline>
</glyph>
<glyph name="N" format="2">
  <advance width="684"/>
  <unicode hex="004E"/>
  <anchor x="343" y="696" name="aboveUC"/>
  <outline>
    <contour>
      <point x="81" y="0" type="line"/>
      <point x="217" y="0" type="line"/>
      <point x="217" y="256" type="line" smooth="yes"/>
      <point x="217" y="334"/>
      <point x="205" y="421"/>
      <point x="199" y="495" type="curve"/>
      <point x="203" y="495" type="line"/>
      <point x="270" y="349" type="line"/>
      <point x="456" y="0" type="line"/>
      <point x="602" y="0" type="line"/>
      <point x="602" y="674" type="line"/>
      <point x="467" y="674" type="line"/>
      <point x="467" y="419" type="line" smooth="yes"/>
      <point x="467" y="341"/>
      <point x="478" y="249"/>
      <point x="485" y="178" type="curve"/>
      <point x="481" y="178" type="line"/>
      <point x="413" y="325" type="line"/>
      <point x="227" y="674" type="line"/>
      <point x="81" y="674" type="line"/>
    </contour>
  </outline>
</glyph>
<glyph name="O" format="2">
  <advance width="704"/>
  <unicode hex="004F"/>
  <anchor x="352" y="696" name="aboveUC"/>
  <outline>
    <contour>
      <point x="352" y="-12" type="curve" smooth="yes"/>
      <point x="531" y="-12"/>
      <point x="655" y="120"/>
      <point x="655" y="339" type="curve" smooth="yes"/>
      <point x="655" y="558"/>
      <point x="531" y="686"/>
      <point x="352" y="686" type="curve" smooth="yes"/>
      <point x="172" y="686"/>
      <point x="48" y="559"/>
      <point x="48" y="339" type="curve" smooth="yes"/>
      <point x="48" y="120"/>
      <point x="172" y="-12"/>
    </contour>
    <contour>
      <point x="352" y="110" type="curve" smooth="yes"/>
      <point x="255" y="110"/>
      <point x="194" y="199"/>
      <point x="194" y="339" type="curve" smooth="yes"/>
      <point x="194" y="479"/>
      <point x="255" y="563"/>
      <point x="352" y="563" type="curve" smooth="yes"/>
      <point x="448" y="563"/>
      <point x="509" y="479"/>
      <point x="509" y="339" type="curve" smooth="yes"/>
      <point x="509" y="199"/>
      <point x="448" y="110"/>
    </contour>
  </outline>
</glyph>
<glyph name="P" format="2">
  <advance width="611"/>
  <unicode hex="0050"/>
  <anchor x="324" y="696" name="aboveUC"/>
  <outline>
    <contour>
      <point x="81" y="0" type="line"/>
      <point x="223" y="0" type="line"/>
      <point x="223" y="234" type="line"/>
      <point x="311" y="234" type="line" smooth="yes"/>
      <point x="454" y="234"/>
      <point x="573" y="304"/>
      <point x="573" y="460" type="curve" smooth="yes"/>
      <point x="573" y="621"/>
      <point x="456" y="674"/>
      <point x="307" y="674" type="curve" smooth="yes"/>
      <point x="81" y="674" type="line"/>
    </contour>
    <contour>
      <point x="223" y="347" type="line"/>
      <point x="223" y="560" type="line"/>
      <point x="297" y="560" type="line" smooth="yes"/>
      <point x="385" y="560"/>
      <point x="433" y="534"/>
      <point x="433" y="460" type="curve" smooth="yes"/>
      <point x="433" y="386"/>
      <point x="390" y="347"/>
      <point x="302" y="347" type="curve" smooth="yes"/>
    </contour>
  </outline>
</glyph>
<glyph name="Q" format="2">
  <advance width="704"/>
  <unicode hex="0051"/>
  <anchor x="352" y="696" name="aboveUC"/>
  <outline>
    <contour>
      <point x="352" y="-12" type="curve" smooth="yes"/>
      <point x="531" y="-12"/>
      <point x="655" y="120"/>
      <point x="655" y="339" type="curve" smooth="yes"/>
      <point x="655" y="558"/>
      <point x="531" y="686"/>
      <point x="352" y="686" type="curve" smooth="yes"/>
      <point x="172" y="686"/>
      <point x="48" y="559"/>
      <point x="48" y="339" type="curve" smooth="yes"/>
      <point x="48" y="120"/>
      <point x="172" y="-12"/>
    </contour>
    <contour>
      <point x="352" y="104" type="curve" smooth="yes"/>
      <point x="255" y="104"/>
      <point x="194" y="192"/>
      <point x="194" y="339" type="curve" smooth="yes"/>
      <point x="194" y="479"/>
      <point x="255" y="563"/>
      <point x="352" y="563" type="curve" smooth="yes"/>
      <point x="448" y="563"/>
      <point x="509" y="479"/>
      <point x="509" y="339" type="curve" smooth="yes"/>
      <point x="509" y="192"/>
      <point x="448" y="104"/>
    </contour>
    <contour>
      <point x="571" y="-185" type="curve" smooth="yes"/>
      <point x="622" y="-185"/>
      <point x="663" y="-175"/>
      <point x="687" y="-163" type="curve"/>
      <point x="662" y="-59" type="line"/>
      <point x="642" y="-65"/>
      <point x="617" y="-70"/>
      <point x="587" y="-70" type="curve" smooth="yes"/>
      <point x="521" y="-70"/>
      <point x="452" y="-45"/>
      <point x="426" y="18" type="curve"/>
      <point x="281" y="4" type="line"/>
      <point x="326" y="-104"/>
      <point x="426" y="-185"/>
    </contour>
  </outline>
</glyph>
<glyph name="R" format="2">
  <advance width="626"/>
  <unicode hex="0052"/>
  <anchor x="317" y="696" name="aboveUC"/>
  <outline>
    <contour>
      <point x="81" y="0" type="line"/>
      <point x="223" y="0" type="line"/>
      <point x="223" y="248" type="line"/>
      <point x="319" y="248" type="line" smooth="yes"/>
      <point x="461" y="248"/>
      <point x="576" y="315"/>
      <point x="576" y="467" type="curve" smooth="yes"/>
      <point x="576" y="624"/>
      <point x="461" y="674"/>
      <point x="319" y="674" type="curve" smooth="yes"/>
      <point x="81" y="674" type="line"/>
    </contour>
    <contour>
      <point x="223" y="362" type="line"/>
      <point x="223" y="560" type="line"/>
      <point x="307" y="560" type="line" smooth="yes"/>
      <point x="390" y="560"/>
      <point x="436" y="537"/>
      <point x="436" y="467" type="curve" smooth="yes"/>
      <point x="436" y="397"/>
      <point x="390" y="362"/>
      <point x="307" y="362" type="curve" smooth="yes"/>
    </contour>
    <contour>
      <point x="447" y="0" type="line"/>
      <point x="606" y="0" type="line"/>
      <point x="393" y="376" type="line"/>
      <point x="293" y="286" type="line"/>
    </contour>
  </outline>
</glyph>
<glyph name="S" format="2">
  <advance width="570"/>
  <unicode hex="0053"/>
  <anchor x="298" y="696" name="aboveUC"/>
  <anchor x="287" y="0" name="baseLC"/>
  <outline>
    <contour>
      <point x="284" y="-12" type="curve" smooth="yes"/>
      <point x="442" y="-12"/>
      <point x="535" y="82"/>
      <point x="535" y="193" type="curve" smooth="yes"/>
      <point x="535" y="290"/>
      <point x="482" y="343"/>
      <point x="400" y="376" type="curve" smooth="yes"/>
      <point x="313" y="412" type="line" smooth="yes"/>
      <point x="255" y="435"/>
      <point x="209" y="452"/>
      <point x="209" y="497" type="curve" smooth="yes"/>
      <point x="209" y="539"/>
      <point x="244" y="563"/>
      <point x="300" y="563" type="curve" smooth="yes"/>
      <point x="355" y="563"/>
      <point x="398" y="543"/>
      <point x="442" y="508" type="curve"/>
      <point x="515" y="598" type="line"/>
      <point x="458" y="655"/>
      <point x="378" y="686"/>
      <point x="300" y="686" type="curve" smooth="yes"/>
      <point x="163" y="686"/>
      <point x="64" y="599"/>
      <point x="64" y="488" type="curve" smooth="yes"/>
      <point x="64" y="390"/>
      <point x="132" y="334"/>
      <point x="201" y="306" type="curve" smooth="yes"/>
      <point x="290" y="268" type="line" smooth="yes"/>
      <point x="349" y="243"/>
      <point x="389" y="228"/>
      <point x="389" y="182" type="curve" smooth="yes"/>
      <point x="389" y="138"/>
      <point x="355" y="110"/>
      <point x="287" y="110" type="curve" smooth="yes"/>
      <point x="230" y="110"/>
      <point x="167" y="140"/>
      <point x="119" y="183" type="curve"/>
      <point x="37" y="85" type="line"/>
      <point x="104" y="21"/>
      <point x="195" y="-12"/>
    </contour>
  </outline>
</glyph>
<glyph name="T" format="2">
  <advance width="571"/>
  <unicode hex="0054"/>
  <anchor x="285" y="696" name="aboveUC"/>
  <anchor x="285" y="0" name="baseLC"/>
  <outline>
    <contour>
      <point x="214" y="0" type="line"/>
      <point x="357" y="0" type="line"/>
      <point x="357" y="554" type="line"/>
      <point x="545" y="554" type="line"/>
      <point x="545" y="674" type="line"/>
      <point x="26" y="674" type="line"/>
      <point x="26" y="554" type="line"/>
      <point x="214" y="554" type="line"/>
    </contour>
  </outline>
</glyph>
<glyph name="U" format="2">
  <advance width="662"/>
  <unicode hex="0055"/>
  <anchor x="330" y="702" name="aboveUC"/>
  <outline>
    <contour>
      <point x="330" y="-12" type="curve" smooth="yes"/>
      <point x="460" y="-12"/>
      <point x="569" y="56"/>
      <point x="569" y="272" type="curve" smooth="yes"/>
      <point x="569" y="679" type="line"/>
      <point x="501" y="679" type="line"/>
      <point x="501" y="273" type="line" smooth="yes"/>
      <point x="501" y="102"/>
      <point x="424" y="50"/>
      <point x="330" y="50" type="curve" smooth="yes"/>
      <point x="239" y="50"/>
      <point x="163" y="102"/>
      <point x="163" y="273" type="curve" smooth="yes"/>
      <point x="163" y="679" type="line"/>
      <point x="93" y="679" type="line"/>
      <point x="93" y="272" type="line" smooth="yes"/>
      <point x="93" y="56"/>
      <point x="200" y="-12"/>
    </contour>
  </outline>
</glyph>
<glyph name="V" format="2">
  <advance width="568"/>
  <unicode hex="0056"/>
  <anchor x="283" y="696" name="aboveUC"/>
  <outline>
    <contour>
      <point x="199" y="0" type="line"/>
      <point x="369" y="0" type="line"/>
      <point x="574" y="674" type="line"/>
      <point x="429" y="674" type="line"/>
      <point x="345" y="352" type="line" smooth="yes"/>
      <point x="325" y="277"/>
      <point x="310" y="210"/>
      <point x="289" y="135" type="curve"/>
      <point x="285" y="135" type="line"/>
      <point x="264" y="210"/>
      <point x="250" y="277"/>
      <point x="229" y="352" type="curve" smooth="yes"/>
      <point x="144" y="674" type="line"/>
      <point x="-6" y="674" type="line"/>
    </contour>
  </outline>
</glyph>
<glyph name="W" format="2">
  <advance width="836"/>
  <unicode hex="0057"/>
  <anchor x="418" y="696" name="aboveUC"/>
  <outline>
    <contour>
      <point x="143" y="0" type="line"/>
      <point x="318" y="0" type="line"/>
      <point x="387" y="320" type="line"/>
      <point x="398" y="373"/>
      <point x="407" y="426"/>
      <point x="416" y="476" type="curve"/>
      <point x="420" y="476" type="line"/>
      <point x="427" y="426"/>
      <point x="437" y="373"/>
      <point x="448" y="320" type="curve"/>
      <point x="519" y="0" type="line"/>
      <point x="697" y="0" type="line"/>
      <point x="820" y="674" type="line"/>
      <point x="684" y="674" type="line"/>
      <point x="633" y="351" type="line"/>
      <point x="624" y="281"/>
      <point x="614" y="209"/>
      <point x="605" y="137" type="curve"/>
      <point x="601" y="137" type="line"/>
      <point x="587" y="209"/>
      <point x="573" y="282"/>
      <point x="559" y="351" type="curve"/>
      <point x="483" y="674" type="line"/>
      <point x="362" y="674" type="line"/>
      <point x="286" y="351" type="line"/>
      <point x="272" y="281"/>
      <point x="258" y="209"/>
      <point x="245" y="137" type="curve"/>
      <point x="241" y="137" type="line"/>
      <point x="231" y="209"/>
      <point x="221" y="280"/>
      <point x="211" y="351" type="curve"/>
      <point x="161" y="674" type="line"/>
      <point x="15" y="674" type="line"/>
    </contour>
  </outline>
</glyph>
<glyph name="X" format="2">
  <advance width="577"/>
  <unicode hex="0058"/>
  <anchor x="289" y="696" name="aboveUC"/>
  <outline>
    <contour>
      <point x="12" y="0" type="line"/>
      <point x="164" y="0" type="line"/>
      <point x="232" y="143" type="line" smooth="yes"/>
      <point x="247" y="178"/>
      <point x="263" y="213"/>
      <point x="279" y="254" type="curve"/>
      <point x="284" y="254" type="line"/>
      <point x="302" y="213"/>
      <point x="318" y="178"/>
      <point x="335" y="143" type="curve" smooth="yes"/>
      <point x="406" y="0" type="line"/>
      <point x="565" y="0" type="line"/>
      <point x="377" y="340" type="line"/>
      <point x="554" y="674" type="line"/>
      <point x="402" y="674" type="line"/>
      <point x="343" y="540" type="line" smooth="yes"/>
      <point x="329" y="509"/>
      <point x="315" y="475"/>
      <point x="299" y="433" type="curve"/>
      <point x="295" y="433" type="line"/>
      <point x="275" y="475"/>
      <point x="261" y="509"/>
      <point x="245" y="540" type="curve" smooth="yes"/>
      <point x="182" y="674" type="line"/>
      <point x="23" y="674" type="line"/>
      <point x="200" y="347" type="line"/>
    </contour>
  </outline>
</glyph>
<glyph name="Y" format="2">
  <advance width="534"/>
  <unicode hex="0059"/>
  <anchor x="267" y="696" name="aboveUC"/>
  <outline>
    <contour>
      <point x="196" y="0" type="line"/>
      <point x="338" y="0" type="line"/>
      <point x="338" y="243" type="line"/>
      <point x="541" y="674" type="line"/>
      <point x="393" y="674" type="line"/>
      <point x="328" y="514" type="line"/>
      <point x="310" y="463"/>
      <point x="290" y="416"/>
      <point x="270" y="364" type="curve"/>
      <point x="266" y="364" type="line"/>
      <point x="246" y="416"/>
      <point x="228" y="463"/>
      <point x="209" y="514" type="curve"/>
      <point x="145" y="674" type="line"/>
      <point x="-6" y="674" type="line"/>
      <point x="196" y="243" type="line"/>
    </contour>
  </outline>
</glyph>
<glyph name="Z" format="2">
  <advance width="559"/>
  <unicode hex="005A"/>
  <anchor x="291" y="696" name="aboveUC"/>
  <outline>
    <contour>
      <point x="38" y="0" type="line"/>
      <point x="523" y="0" type="line"/>
      <point x="523" y="119" type="line"/>
      <point x="213" y="119" type="line"/>
      <point x="520" y="588" type="line"/>
      <point x="520" y="674" type="line"/>
      <point x="66" y="674" type="line"/>
      <point x="66" y="554" type="line"/>
      <point x="344" y="554" type="line"/>
      <point x="38" y="85" type="line"/>
    </contour>
  </outline>
</glyph>
<glyph name="bracketleft" format="2">
  <advance width="349"/>
  <unicode hex="005B"/>
  <outline>
    <contour>
      <point x="90" y="-157" type="line"/>
      <point x="304" y="-157" type="line"/>
      <point x="304" y="-81" type="line"/>
      <point x="196" y="-81" type="line"/>
      <point x="196" y="655" type="line"/>
      <point x="304" y="655" type="line"/>
      <point x="304" y="731" type="line"/>
      <point x="90" y="731" type="line"/>
    </contour>
  </outline>
</glyph>
<glyph name="backslash" format="2">
  <advance width="351"/>
  <unicode hex="005C"/>
  <outline>
    <contour>
      <point x="245" y="-165" type="line"/>
      <point x="338" y="-165" type="line"/>
      <point x="120" y="733" type="line"/>
      <point x="27" y="733" type="line"/>
    </contour>
  </outline>
</glyph>
<glyph name="bracketright" format="2">
  <advance width="349"/>
  <unicode hex="005D"/>
  <outline>
    <contour>
      <point x="45" y="-157" type="line"/>
      <point x="258" y="-157" type="line"/>
      <point x="258" y="731" type="line"/>
      <point x="45" y="731" type="line"/>
      <point x="45" y="655" type="line"/>
      <point x="152" y="655" type="line"/>
      <point x="152" y="-81" type="line"/>
      <point x="45" y="-81" type="line"/>
    </contour>
  </outline>
</glyph>
<glyph name="asciicircum" format="2">
  <advance width="540"/>
  <unicode hex="005E"/>
  <outline>
    <contour>
      <point x="53" y="284" type="line"/>
      <point x="170" y="284" type="line"/>
      <point x="220" y="424" type="line"/>
      <point x="268" y="563" type="line"/>
      <point x="272" y="563" type="line"/>
      <point x="319" y="424" type="line"/>
      <point x="370" y="284" type="line"/>
      <point x="487" y="284" type="line"/>
      <point x="328" y="692" type="line"/>
      <point x="212" y="692" type="line"/>
    </contour>
  </outline>
</glyph>
<glyph name="a" format="2">
  <advance width="541"/>
  <unicode hex="0061"/>
  <anchor x="288" y="534" name="aboveLC"/>
  <outline>
    <contour>
      <point x="196" y="-12" type="curve" smooth="yes"/>
      <point x="255" y="-12"/>
      <point x="304" y="15"/>
      <point x="348" y="53" type="curve"/>
      <point x="352" y="53" type="line"/>
      <point x="362" y="0" type="line"/>
      <point x="478" y="0" type="line"/>
      <point x="478" y="295" type="line" smooth="yes"/>
      <point x="478" y="447"/>
      <point x="408" y="523"/>
      <point x="279" y="523" type="curve" smooth="yes"/>
      <point x="198" y="523"/>
      <point x="125" y="494"/>
      <point x="63" y="456" type="curve"/>
      <point x="114" y="362" type="line"/>
      <point x="162" y="390"/>
      <point x="206" y="410"/>
      <point x="252" y="410" type="curve" smooth="yes"/>
      <point x="311" y="410"/>
      <point x="333" y="376"/>
      <point x="336" y="328" type="curve"/>
      <point x="131" y="306"/>
      <point x="44" y="248"/>
      <point x="44" y="140" type="curve" smooth="yes"/>
      <point x="44" y="53"/>
      <point x="104" y="-12"/>
    </contour>
    <contour>
      <point x="244" y="97" type="curve" smooth="yes"/>
      <point x="206" y="97"/>
      <point x="181" y="115"/>
      <point x="181" y="151" type="curve" smooth="yes"/>
      <point x="181" y="194"/>
      <point x="219" y="226"/>
      <point x="336" y="241" type="curve"/>
      <point x="336" y="145" type="line"/>
      <point x="306" y="115"/>
      <point x="280" y="97"/>
    </contour>
  </outline>
</glyph>
<glyph name="b" format="2">
  <advance width="588"/>
  <unicode hex="0062"/>
  <anchor x="142" y="754" name="aboveLC"/>
  <outline>
    <contour>
      <point x="331" y="-12" type="curve" smooth="yes"/>
      <point x="443" y="-12"/>
      <point x="547" y="88"/>
      <point x="547" y="264" type="curve" smooth="yes"/>
      <point x="547" y="421"/>
      <point x="471" y="523"/>
      <point x="346" y="523" type="curve" smooth="yes"/>
      <point x="297" y="523"/>
      <point x="247" y="500"/>
      <point x="207" y="464" type="curve"/>
      <point x="211" y="545" type="line"/>
      <point x="211" y="725" type="line"/>
      <point x="69" y="725" type="line"/>
      <point x="69" y="0" type="line"/>
      <point x="180" y="0" type="line"/>
      <point x="192" y="54" type="line"/>
      <point x="196" y="54" type="line"/>
      <point x="237" y="10"/>
      <point x="285" y="-12"/>
    </contour>
    <contour>
      <point x="299" y="104" type="curve" smooth="yes"/>
      <point x="272" y="104"/>
      <point x="241" y="113"/>
      <point x="211" y="139" type="curve"/>
      <point x="211" y="357" type="line"/>
      <point x="243" y="391"/>
      <point x="273" y="407"/>
      <point x="306" y="407" type="curve" smooth="yes"/>
      <point x="372" y="407"/>
      <point x="401" y="356"/>
      <point x="401" y="262" type="curve" smooth="yes"/>
      <point x="401" y="153"/>
      <point x="356" y="104"/>
    </contour>
  </outline>
</glyph>
<glyph name="c" format="2">
  <advance width="481"/>
  <unicode hex="0063"/>
  <anchor x="286" y="534" name="aboveLC"/>
  <anchor x="282" y="0" name="baseLC"/>
  <outline>
    <contour>
      <point x="289" y="-12" type="curve" smooth="yes"/>
      <point x="345" y="-12"/>
      <point x="408" y="5"/>
      <point x="457" y="49" type="curve"/>
      <point x="401" y="142" type="line"/>
      <point x="374" y="120"/>
      <point x="340" y="102"/>
      <point x="305" y="102" type="curve" smooth="yes"/>
      <point x="235" y="102"/>
      <point x="184" y="162"/>
      <point x="184" y="255" type="curve" smooth="yes"/>
      <point x="184" y="347"/>
      <point x="234" y="408"/>
      <point x="309" y="408" type="curve" smooth="yes"/>
      <point x="336" y="408"/>
      <point x="358" y="397"/>
      <point x="383" y="376" type="curve"/>
      <point x="451" y="467" type="line"/>
      <point x="413" y="500"/>
      <point x="365" y="523"/>
      <point x="301" y="523" type="curve" smooth="yes"/>
      <point x="162" y="523"/>
      <point x="38" y="425"/>
      <point x="38" y="255" type="curve" smooth="yes"/>
      <point x="38" y="85"/>
      <point x="147" y="-12"/>
    </contour>
  </outline>
</glyph>
<glyph name="d" format="2">
  <advance width="589"/>
  <unicode hex="0064"/>
  <anchor x="419" y="754" name="aboveLC"/>
  <outline>
    <contour>
      <point x="251" y="-12" type="curve" smooth="yes"/>
      <point x="302" y="-12"/>
      <point x="353" y="15"/>
      <point x="389" y="52" type="curve"/>
      <point x="393" y="52" type="line"/>
      <point x="403" y="0" type="line"/>
      <point x="519" y="0" type="line"/>
      <point x="519" y="725" type="line"/>
      <point x="377" y="725" type="line"/>
      <point x="377" y="548" type="line"/>
      <point x="382" y="469" type="line"/>
      <point x="346" y="502"/>
      <point x="311" y="523"/>
      <point x="255" y="523" type="curve" smooth="yes"/>
      <point x="146" y="523"/>
      <point x="41" y="422"/>
      <point x="41" y="255" type="curve" smooth="yes"/>
      <point x="41" y="87"/>
      <point x="123" y="-12"/>
    </contour>
    <contour>
      <point x="287" y="104" type="curve" smooth="yes"/>
      <point x="224" y="104"/>
      <point x="187" y="153"/>
      <point x="187" y="256" type="curve" smooth="yes"/>
      <point x="187" y="356"/>
      <point x="233" y="407"/>
      <point x="287" y="407" type="curve" smooth="yes"/>
      <point x="317" y="407"/>
      <point x="348" y="397"/>
      <point x="377" y="371" type="curve"/>
      <point x="377" y="153" type="line"/>
      <point x="350" y="117"/>
      <point x="321" y="104"/>
    </contour>
  </outline>
</glyph>
<glyph name="e" format="2">
  <advance width="506"/>
  <unicode hex="0065"/>
  <anchor x="271" y="524" name="aboveLC"/>
  <outline>
    <contour>
      <point x="285" y="-12" type="curve" smooth="yes"/>
      <point x="356" y="-12"/>
      <point x="405" y="11"/>
      <point x="448" y="38" type="curve"/>
      <point x="422" y="85" type="line"/>
      <point x="385" y="60"/>
      <point x="344" y="44"/>
      <point x="293" y="44" type="curve" smooth="yes"/>
      <point x="191" y="44"/>
      <point x="123" y="121"/>
      <point x="119" y="235" type="curve"/>
      <point x="464" y="235" type="line"/>
      <point x="467" y="247"/>
      <point x="468" y="263"/>
      <point x="468" y="278" type="curve" smooth="yes"/>
      <point x="468" y="423"/>
      <point x="395" y="512"/>
      <point x="271" y="512" type="curve" smooth="yes"/>
      <point x="158" y="512"/>
      <point x="49" y="411"/>
      <point x="49" y="249" type="curve" smooth="yes"/>
      <point x="49" y="85"/>
      <point x="154" y="-12"/>
    </contour>
    <contour>
      <point x="118" y="286" type="line"/>
      <point x="128" y="393"/>
      <point x="197" y="455"/>
      <point x="272" y="455" type="curve" smooth="yes"/>
      <point x="355" y="455"/>
      <point x="405" y="397"/>
      <point x="405" y="286" type="curve"/>
    </contour>
  </outline>
</glyph>
<glyph name="f" format="2">
  <advance width="344"/>
  <unicode hex="0066"/>
  <anchor x="233" y="765" name="aboveLC"/>
  <outline>
    <contour>
      <point x="93" y="0" type="line"/>
      <point x="235" y="0" type="line"/>
      <point x="235" y="549" type="line" smooth="yes"/>
      <point x="235" y="604"/>
      <point x="257" y="626"/>
      <point x="296" y="626" type="curve" smooth="yes"/>
      <point x="313" y="626"/>
      <point x="332" y="622"/>
      <point x="349" y="614" type="curve"/>
      <point x="375" y="720" type="line"/>
      <point x="353" y="728"/>
      <point x="317" y="738"/>
      <point x="276" y="738" type="curve" smooth="yes"/>
      <point x="143" y="738"/>
      <point x="93" y="652"/>
      <point x="93" y="545" type="curve" smooth="yes"/>
    </contour>
    <contour>
      <point x="25" y="399" type="line"/>
      <point x="330" y="399" type="line"/>
      <point x="330" y="511" type="line"/>
      <point x="101" y="511" type="line"/>
      <point x="25" y="505" type="line"/>
    </contour>
  </outline>
</glyph>
<glyph name="g" format="2">
  <advance width="547"/>
  <unicode hex="0067"/>
  <anchor x="278" y="534" name="aboveLC"/>
  <outline>
    <contour>
      <point x="250" y="-219" type="curve" smooth="yes"/>
      <point x="423" y="-219"/>
      <point x="532" y="-141"/>
      <point x="532" y="-37" type="curve" smooth="yes"/>
      <point x="532" y="53"/>
      <point x="464" y="91"/>
      <point x="339" y="91" type="curve" smooth="yes"/>
      <point x="254" y="91" type="line" smooth="yes"/>
      <point x="196" y="91"/>
      <point x="176" y="105"/>
      <point x="176" y="131" type="curve" smooth="yes"/>
      <point x="176" y="150"/>
      <point x="182" y="161"/>
      <point x="196" y="172" type="curve"/>
      <point x="218" y="165"/>
      <point x="240" y="161"/>
      <point x="260" y="161" type="curve" smooth="yes"/>
      <point x="371" y="161"/>
      <point x="459" y="217"/>
      <point x="459" y="334" type="curve" smooth="yes"/>
      <point x="459" y="363"/>
      <point x="450" y="390"/>
      <point x="438" y="407" type="curve"/>
      <point x="524" y="407" type="line"/>
      <point x="524" y="511" type="line"/>
      <point x="338" y="511" type="line"/>
      <point x="316" y="518"/>
      <point x="288" y="523"/>
      <point x="260" y="523" type="curve" smooth="yes"/>
      <point x="151" y="523"/>
      <point x="51" y="460"/>
      <point x="51" y="338" type="curve" smooth="yes"/>
      <point x="51" y="279"/>
      <point x="84" y="231"/>
      <point x="120" y="205" type="curve"/>
      <point x="120" y="201" type="line"/>
      <point x="88" y="179"/>
      <point x="63" y="143"/>
      <point x="63" y="105" type="curve" smooth="yes"/>
      <point x="63" y="64"/>
      <point x="83" y="37"/>
      <point x="109" y="19" type="curve"/>
      <point x="109" y="15" type="line"/>
      <point x="62" y="-11"/>
      <point x="37" y="-46"/>
      <point x="37" y="-89" type="curve" smooth="yes"/>
      <point x="37" y="-179"/>
      <point x="130" y="-219"/>
    </contour>
    <contour>
      <point x="260" y="248" type="curve" smooth="yes"/>
      <point x="217" y="248"/>
      <point x="185" y="280"/>
      <point x="185" y="338" type="curve" smooth="yes"/>
      <point x="185" y="396"/>
      <point x="217" y="427"/>
      <point x="260" y="427" type="curve" smooth="yes"/>
      <point x="303" y="427"/>
      <point x="335" y="396"/>
      <point x="335" y="338" type="curve" smooth="yes"/>
      <point x="335" y="280"/>
      <point x="303" y="248"/>
    </contour>
    <contour>
      <point x="272" y="-129" type="curve" smooth="yes"/>
      <point x="200" y="-129"/>
      <point x="154" y="-107"/>
      <point x="154" y="-66" type="curve" smooth="yes"/>
      <point x="154" y="-46"/>
      <point x="164" y="-28"/>
      <point x="185" y="-11" type="curve"/>
      <point x="203" y="-16"/>
      <point x="223" y="-18"/>
      <point x="256" y="-18" type="curve" smooth="yes"/>
      <point x="314" y="-18" type="line" smooth="yes"/>
      <point x="367" y="-18"/>
      <point x="396" y="-26"/>
      <point x="396" y="-61" type="curve" smooth="yes"/>
      <point x="396" y="-99"/>
      <point x="345" y="-129"/>
    </contour>
  </outline>
</glyph>
<glyph name="h" format="2">
  <advance width="586"/>
  <unicode hex="0068"/>
  <anchor x="139" y="754" name="aboveLC"/>
  <outline>
    <contour>
      <point x="69" y="0" type="line"/>
      <point x="211" y="0" type="line"/>
      <point x="211" y="348" type="line"/>
      <point x="247" y="383"/>
      <point x="272" y="402"/>
      <point x="312" y="402" type="curve" smooth="yes"/>
      <point x="359" y="402"/>
      <point x="380" y="376"/>
      <point x="380" y="300" type="curve" smooth="yes"/>
      <point x="380" y="0" type="line"/>
      <point x="522" y="0" type="line"/>
      <point x="522" y="318" type="line" smooth="yes"/>
      <point x="522" y="446"/>
      <point x="475" y="523"/>
      <point x="364" y="523" type="curve" smooth="yes"/>
      <point x="295" y="523"/>
      <point x="244" y="487"/>
      <point x="205" y="450" type="curve"/>
      <point x="211" y="545" type="line"/>
      <point x="211" y="725" type="line"/>
      <point x="69" y="725" type="line"/>
    </contour>
  </outline>
</glyph>
<glyph name="i" format="2">
  <advance width="281"/>
  <unicode hex="0069"/>
  <anchor x="140" y="742" name="aboveLC"/>
  <outline>
    <contour>
      <point x="69" y="0" type="line"/>
      <point x="211" y="0" type="line"/>
      <point x="211" y="511" type="line"/>
      <point x="69" y="511" type="line"/>
    </contour>
    <contour>
      <point x="140" y="590" type="curve" smooth="yes"/>
      <point x="189" y="590"/>
      <point x="224" y="621"/>
      <point x="224" y="666" type="curve" smooth="yes"/>
      <point x="224" y="710"/>
      <point x="189" y="741"/>
      <point x="140" y="741" type="curve" smooth="yes"/>
      <point x="92" y="741"/>
      <point x="57" y="710"/>
      <point x="57" y="666" type="curve" smooth="yes"/>
      <point x="57" y="621"/>
      <point x="92" y="590"/>
    </contour>
  </outline>
</glyph>
<glyph name="j" format="2">
  <advance width="282"/>
  <unicode hex="006A"/>
  <anchor x="143" y="742" name="aboveLC"/>
  <outline>
    <contour>
      <point x="36" y="-205" type="curve" smooth="yes"/>
      <point x="170" y="-205"/>
      <point x="213" y="-116"/>
      <point x="213" y="-5" type="curve" smooth="yes"/>
      <point x="213" y="511" type="line"/>
      <point x="71" y="511" type="line"/>
      <point x="71" y="-8" type="line" smooth="yes"/>
      <point x="71" y="-66"/>
      <point x="57" y="-93"/>
      <point x="15" y="-93" type="curve" smooth="yes"/>
      <point x="0" y="-93"/>
      <point x="-11" y="-90"/>
      <point x="-25" y="-86" type="curve"/>
      <point x="-51" y="-191" type="line"/>
      <point x="-30" y="-199"/>
      <point x="-4" y="-205"/>
    </contour>
    <contour>
      <point x="142" y="590" type="curve" smooth="yes"/>
      <point x="190" y="590"/>
      <point x="225" y="621"/>
      <point x="225" y="666" type="curve" smooth="yes"/>
      <point x="225" y="710"/>
      <point x="190" y="741"/>
      <point x="142" y="741" type="curve" smooth="yes"/>
      <point x="94" y="741"/>
      <point x="58" y="710"/>
      <point x="58" y="666" type="curve" smooth="yes"/>
      <point x="58" y="621"/>
      <point x="94" y="590"/>
    </contour>
  </outline>
</glyph>
<glyph name="k" format="2">
  <advance width="557"/>
  <unicode hex="006B"/>
  <anchor x="142" y="754" name="aboveLC"/>
  <outline>
    <contour>
      <point x="69" y="0" type="line"/>
      <point x="208" y="0" type="line"/>
      <point x="208" y="127" type="line"/>
      <point x="277" y="206" type="line"/>
      <point x="397" y="0" type="line"/>
      <point x="551" y="0" type="line"/>
      <point x="358" y="301" type="line"/>
      <point x="536" y="511" type="line"/>
      <point x="382" y="511" type="line"/>
      <point x="212" y="298" type="line"/>
      <point x="208" y="298" type="line"/>
      <point x="208" y="725" type="line"/>
      <point x="69" y="725" type="line"/>
    </contour>
  </outline>
</glyph>
<glyph name="l" format="2">
  <advance width="290"/>
  <unicode hex="006C"/>
  <anchor x="139" y="754" name="aboveLC"/>
  <outline>
    <contour>
      <point x="201" y="-12" type="curve" smooth="yes"/>
      <point x="234" y="-12"/>
      <point x="258" y="-7"/>
      <point x="274" y="0" type="curve"/>
      <point x="257" y="104" type="line"/>
      <point x="248" y="102"/>
      <point x="244" y="102"/>
      <point x="238" y="102" type="curve" smooth="yes"/>
      <point x="226" y="102"/>
      <point x="211" y="112"/>
      <point x="211" y="144" type="curve" smooth="yes"/>
      <point x="211" y="725" type="line"/>
      <point x="69" y="725" type="line"/>
      <point x="69" y="150" type="line" smooth="yes"/>
      <point x="69" y="51"/>
      <point x="103" y="-12"/>
    </contour>
  </outline>
</glyph>
<glyph name="m" format="2">
  <advance width="881"/>
  <unicode hex="006D"/>
  <anchor x="450" y="534" name="aboveLC"/>
  <outline>
    <contour>
      <point x="69" y="0" type="line"/>
      <point x="211" y="0" type="line"/>
      <point x="211" y="348" type="line"/>
      <point x="245" y="384"/>
      <point x="277" y="402"/>
      <point x="304" y="402" type="curve" smooth="yes"/>
      <point x="350" y="402"/>
      <point x="372" y="376"/>
      <point x="372" y="300" type="curve" smooth="yes"/>
      <point x="372" y="0" type="line"/>
      <point x="514" y="0" type="line"/>
      <point x="514" y="348" type="line"/>
      <point x="548" y="384"/>
      <point x="579" y="402"/>
      <point x="607" y="402" type="curve" smooth="yes"/>
      <point x="653" y="402"/>
      <point x="674" y="376"/>
      <point x="674" y="300" type="curve" smooth="yes"/>
      <point x="674" y="0" type="line"/>
      <point x="817" y="0" type="line"/>
      <point x="817" y="318" type="line" smooth="yes"/>
      <point x="817" y="446"/>
      <point x="767" y="523"/>
      <point x="657" y="523" type="curve" smooth="yes"/>
      <point x="591" y="523"/>
      <point x="542" y="484"/>
      <point x="496" y="435" type="curve"/>
      <point x="470" y="491"/>
      <point x="427" y="523"/>
      <point x="355" y="523" type="curve" smooth="yes"/>
      <point x="288" y="523"/>
      <point x="241" y="487"/>
      <point x="199" y="444" type="curve"/>
      <point x="195" y="444" type="line"/>
      <point x="185" y="511" type="line"/>
      <point x="69" y="511" type="line"/>
    </contour>
  </outline>
</glyph>
<glyph name="n" format="2">
  <advance width="587"/>
  <unicode hex="006E"/>
  <anchor x="315" y="534" name="aboveLC"/>
  <outline>
    <contour>
      <point x="69" y="0" type="line"/>
      <point x="211" y="0" type="line"/>
      <point x="211" y="348" type="line"/>
      <point x="247" y="383"/>
      <point x="272" y="402"/>
      <point x="312" y="402" type="curve" smooth="yes"/>
      <point x="359" y="402"/>
      <point x="380" y="376"/>
      <point x="380" y="300" type="curve" smooth="yes"/>
      <point x="380" y="0" type="line"/>
      <point x="522" y="0" type="line"/>
      <point x="522" y="318" type="line" smooth="yes"/>
      <point x="522" y="446"/>
      <point x="475" y="523"/>
      <point x="364" y="523" type="curve" smooth="yes"/>
      <point x="295" y="523"/>
      <point x="243" y="487"/>
      <point x="199" y="445" type="curve"/>
      <point x="195" y="445" type="line"/>
      <point x="185" y="511" type="line"/>
      <point x="69" y="511" type="line"/>
    </contour>
  </outline>
</glyph>
<glyph name="o" format="2">
  <advance width="557"/>
  <unicode hex="006F"/>
  <anchor x="278" y="524" name="aboveLC"/>
  <outline>
    <contour>
      <point x="278" y="-12" type="curve" smooth="yes"/>
      <point x="400" y="-12"/>
      <point x="507" y="83"/>
      <point x="507" y="249" type="curve" smooth="yes"/>
      <point x="507" y="416"/>
      <point x="400" y="512"/>
      <point x="278" y="512" type="curve" smooth="yes"/>
      <point x="157" y="512"/>
      <point x="49" y="416"/>
      <point x="49" y="249" type="curve" smooth="yes"/>
      <point x="49" y="83"/>
      <point x="157" y="-12"/>
    </contour>
    <contour>
      <point x="278" y="46" type="curve" smooth="yes"/>
      <point x="186" y="46"/>
      <point x="121" y="127"/>
      <point x="121" y="249" type="curve" smooth="yes"/>
      <point x="121" y="370"/>
      <point x="186" y="453"/>
      <point x="278" y="453" type="curve" smooth="yes"/>
      <point x="370" y="453"/>
      <point x="435" y="370"/>
      <point x="435" y="249" type="curve" smooth="yes"/>
      <point x="435" y="127"/>
      <point x="370" y="46"/>
    </contour>
  </outline>
</glyph>
<glyph name="p" format="2">
  <advance width="589"/>
  <unicode hex="0070"/>
  <anchor x="315" y="534" name="aboveLC"/>
  <outline>
    <contour>
      <point x="69" y="-193" type="line"/>
      <point x="211" y="-193" type="line"/>
      <point x="211" y="-40" type="line"/>
      <point x="206" y="41" type="line"/>
      <point x="244" y="7"/>
      <point x="287" y="-12"/>
      <point x="331" y="-12" type="curve" smooth="yes"/>
      <point x="443" y="-12"/>
      <point x="547" y="88"/>
      <point x="547" y="263" type="curve" smooth="yes"/>
      <point x="547" y="421"/>
      <point x="472" y="523"/>
      <point x="347" y="523" type="curve" smooth="yes"/>
      <point x="293" y="523"/>
      <point x="240" y="495"/>
      <point x="199" y="459" type="curve"/>
      <point x="195" y="459" type="line"/>
      <point x="185" y="511" type="line"/>
      <point x="69" y="511" type="line"/>
    </contour>
    <contour>
      <point x="299" y="104" type="curve" smooth="yes"/>
      <point x="272" y="104"/>
      <point x="241" y="113"/>
      <point x="211" y="139" type="curve"/>
      <point x="211" y="357" type="line"/>
      <point x="244" y="391"/>
      <point x="273" y="407"/>
      <point x="306" y="407" type="curve" smooth="yes"/>
      <point x="372" y="407"/>
      <point x="401" y="356"/>
      <point x="401" y="262" type="curve" smooth="yes"/>
      <point x="401" y="153"/>
      <point x="356" y="104"/>
    </contour>
  </outline>
</glyph>
<glyph name="q" format="2">
  <advance width="589"/>
  <unicode hex="0071"/>
  <anchor x="299" y="534" name="aboveLC"/>
  <outline>
    <contour>
      <point x="377" y="-193" type="line"/>
      <point x="519" y="-193" type="line"/>
      <point x="519" y="511" type="line"/>
      <point x="408" y="511" type="line"/>
      <point x="396" y="460" type="line"/>
      <point x="392" y="460" type="line"/>
      <point x="351" y="503"/>
      <point x="311" y="523"/>
      <point x="255" y="523" type="curve" smooth="yes"/>
      <point x="146" y="523"/>
      <point x="41" y="422"/>
      <point x="41" y="255" type="curve" smooth="yes"/>
      <point x="41" y="87"/>
      <point x="123" y="-12"/>
      <point x="251" y="-12" type="curve" smooth="yes"/>
      <point x="298" y="-12"/>
      <point x="348" y="12"/>
      <point x="382" y="46" type="curve"/>
      <point x="377" y="-33" type="line"/>
    </contour>
    <contour>
      <point x="287" y="104" type="curve" smooth="yes"/>
      <point x="224" y="104"/>
      <point x="187" y="153"/>
      <point x="187" y="256" type="curve" smooth="yes"/>
      <point x="187" y="356"/>
      <point x="233" y="407"/>
      <point x="287" y="407" type="curve" smooth="yes"/>
      <point x="317" y="407"/>
      <point x="348" y="397"/>
      <point x="377" y="371" type="curve"/>
      <point x="377" y="153" type="line"/>
      <point x="350" y="117"/>
      <point x="321" y="104"/>
    </contour>
  </outline>
</glyph>
<glyph name="r" format="2">
  <advance width="346"/>
  <unicode hex="0072"/>
  <anchor x="216" y="524" name="aboveLC"/>
  <outline>
    <contour>
      <point x="88" y="0" type="line"/>
      <point x="158" y="0" type="line"/>
      <point x="158" y="328" type="line"/>
      <point x="193" y="417"/>
      <point x="245" y="448"/>
      <point x="288" y="448" type="curve" smooth="yes"/>
      <point x="308" y="448"/>
      <point x="318" y="446"/>
      <point x="335" y="440" type="curve"/>
      <point x="349" y="501" type="line"/>
      <point x="333" y="509"/>
      <point x="318" y="512"/>
      <point x="297" y="512" type="curve" smooth="yes"/>
      <point x="240" y="512"/>
      <point x="189" y="470"/>
      <point x="155" y="407" type="curve"/>
      <point x="152" y="407" type="line"/>
      <point x="146" y="499" type="line"/>
      <point x="88" y="499" type="line"/>
    </contour>
  </outline>
</glyph>
<glyph name="s" format="2">
  <advance width="453"/>
  <unicode hex="0073"/>
  <anchor x="241" y="534" name="aboveLC"/>
  <anchor x="238" y="0" name="baseLC"/>
  <outline>
    <contour>
      <point x="218" y="-12" type="curve" smooth="yes"/>
      <point x="352" y="-12"/>
      <point x="424" y="59"/>
      <point x="424" y="150" type="curve" smooth="yes"/>
      <point x="424" y="244"/>
      <point x="350" y="280"/>
      <point x="284" y="304" type="curve" smooth="yes"/>
      <point x="230" y="324"/>
      <point x="181" y="337"/>
      <point x="181" y="372" type="curve" smooth="yes"/>
      <point x="181" y="399"/>
      <point x="202" y="417"/>
      <point x="245" y="417" type="curve" smooth="yes"/>
      <point x="282" y="417"/>
      <point x="317" y="400"/>
      <point x="354" y="374" type="curve"/>
      <point x="418" y="459" type="line"/>
      <point x="375" y="492"/>
      <point x="317" y="523"/>
      <point x="241" y="523" type="curve" smooth="yes"/>
      <point x="124" y="523"/>
      <point x="48" y="458"/>
      <point x="48" y="365" type="curve" smooth="yes"/>
      <point x="48" y="280"/>
      <point x="122" y="240"/>
      <point x="186" y="215" type="curve" smooth="yes"/>
      <point x="239" y="195"/>
      <point x="291" y="178"/>
      <point x="291" y="142" type="curve" smooth="yes"/>
      <point x="291" y="113"/>
      <point x="269" y="93"/>
      <point x="221" y="93" type="curve" smooth="yes"/>
      <point x="176" y="93"/>
      <point x="133" y="112"/>
      <point x="87" y="147" type="curve"/>
      <point x="22" y="58" type="line"/>
      <point x="73" y="17"/>
      <point x="149" y="-12"/>
    </contour>
  </outline>
</glyph>
<glyph name="t" format="2">
  <advance width="388"/>
  <unicode hex="0074"/>
  <anchor x="168" y="677" name="aboveLC"/>
  <anchor x="241" y="0" name="baseLC"/>
  <outline>
    <contour>
      <point x="261" y="-12" type="curve" smooth="yes"/>
      <point x="308" y="-12"/>
      <point x="344" y="-2"/>
      <point x="372" y="6" type="curve"/>
      <point x="349" y="109" type="line"/>
      <point x="335" y="104"/>
      <point x="316" y="99"/>
      <point x="299" y="99" type="curve" smooth="yes"/>
      <point x="256" y="99"/>
      <point x="231" y="124"/>
      <point x="231" y="183" type="curve" smooth="yes"/>
      <point x="231" y="399" type="line"/>
      <point x="356" y="399" type="line"/>
      <point x="356" y="511" type="line"/>
      <point x="231" y="511" type="line"/>
      <point x="231" y="647" type="line"/>
      <point x="113" y="647" type="line"/>
      <point x="97" y="511" type="line"/>
      <point x="18" y="505" type="line"/>
      <point x="18" y="399" type="line"/>
      <point x="89" y="399" type="line"/>
      <point x="89" y="181" type="line" smooth="yes"/>
      <point x="89" y="65"/>
      <point x="137" y="-12"/>
    </contour>
  </outline>
</glyph>
<glyph name="u" format="2">
  <advance width="583"/>
  <unicode hex="0075"/>
  <anchor x="292" y="534" name="aboveLC"/>
  <outline>
    <contour>
      <point x="222" y="-12" type="curve" smooth="yes"/>
      <point x="292" y="-12"/>
      <point x="340" y="20"/>
      <point x="384" y="72" type="curve"/>
      <point x="387" y="72" type="line"/>
      <point x="398" y="0" type="line"/>
      <point x="514" y="0" type="line"/>
      <point x="514" y="511" type="line"/>
      <point x="372" y="511" type="line"/>
      <point x="372" y="169" type="line"/>
      <point x="339" y="126"/>
      <point x="314" y="108"/>
      <point x="274" y="108" type="curve" smooth="yes"/>
      <point x="227" y="108"/>
      <point x="206" y="134"/>
      <point x="206" y="211" type="curve" smooth="yes"/>
      <point x="206" y="511" type="line"/>
      <point x="64" y="511" type="line"/>
      <point x="64" y="192" type="line" smooth="yes"/>
      <point x="64" y="64"/>
      <point x="111" y="-12"/>
    </contour>
  </outline>
</glyph>
<glyph name="v" format="2">
  <advance width="468"/>
  <unicode hex="0076"/>
  <anchor x="235" y="524" name="aboveLC"/>
  <outline>
    <contour>
      <point x="195" y="0" type="line"/>
      <point x="276" y="0" type="line"/>
      <point x="456" y="499" type="line"/>
      <point x="387" y="499" type="line"/>
      <point x="286" y="204" type="line" smooth="yes"/>
      <point x="270" y="155"/>
      <point x="253" y="105"/>
      <point x="238" y="58" type="curve"/>
      <point x="234" y="58" type="line"/>
      <point x="218" y="105"/>
      <point x="201" y="155"/>
      <point x="186" y="204" type="curve" smooth="yes"/>
      <point x="84" y="499" type="line"/>
      <point x="12" y="499" type="line"/>
    </contour>
  </outline>
</glyph>
<glyph name="w" format="2">
  <advance width="792"/>
  <unicode hex="0077"/>
  <anchor x="397" y="534" name="aboveLC"/>
  <outline>
    <contour>
      <point x="154" y="0" type="line"/>
      <point x="317" y="0" type="line"/>
      <point x="366" y="213" type="line"/>
      <point x="376" y="261"/>
      <point x="384" y="309"/>
      <point x="393" y="363" type="curve"/>
      <point x="397" y="363" type="line"/>
      <point x="407" y="309"/>
      <point x="416" y="262"/>
      <point x="426" y="214" type="curve"/>
      <point x="476" y="0" type="line"/>
      <point x="643" y="0" type="line"/>
      <point x="768" y="511" type="line"/>
      <point x="636" y="511" type="line"/>
      <point x="584" y="265" type="line"/>
      <point x="574" y="215"/>
      <point x="568" y="166"/>
      <point x="559" y="115" type="curve"/>
      <point x="555" y="115" type="line"/>
      <point x="544" y="166"/>
      <point x="535" y="215"/>
      <point x="522" y="265" type="curve"/>
      <point x="462" y="511" type="line"/>
      <point x="337" y="511" type="line"/>
      <point x="278" y="265" type="line"/>
      <point x="265" y="217"/>
      <point x="256" y="166"/>
      <point x="247" y="115" type="curve"/>
      <point x="243" y="115" type="line"/>
      <point x="234" y="166"/>
      <point x="228" y="215"/>
      <point x="219" y="265" type="curve"/>
      <point x="166" y="511" type="line"/>
      <point x="24" y="511" type="line"/>
    </contour>
  </outline>
</glyph>
<glyph name="x" format="2">
  <advance width="444"/>
  <unicode hex="0078"/>
  <anchor x="222" y="524" name="aboveLC"/>
  <outline>
    <contour>
      <point x="14" y="0" type="line"/>
      <point x="86" y="0" type="line"/>
      <point x="161" y="124" type="line"/>
      <point x="179" y="155"/>
      <point x="196" y="185"/>
      <point x="215" y="214" type="curve"/>
      <point x="219" y="214" type="line"/>
      <point x="238" y="185"/>
      <point x="257" y="154"/>
      <point x="275" y="124" type="curve"/>
      <point x="354" y="0" type="line"/>
      <point x="430" y="0" type="line"/>
      <point x="264" y="254" type="line"/>
      <point x="417" y="499" type="line"/>
      <point x="345" y="499" type="line"/>
      <point x="277" y="383" type="line"/>
      <point x="261" y="355"/>
      <point x="246" y="327"/>
      <point x="229" y="300" type="curve"/>
      <point x="225" y="300" type="line"/>
      <point x="208" y="327"/>
      <point x="190" y="355"/>
      <point x="175" y="383" type="curve"/>
      <point x="102" y="499" type="line"/>
      <point x="27" y="499" type="line"/>
      <point x="180" y="261" type="line"/>
    </contour>
  </outline>
</glyph>
<glyph name="y" format="2">
  <advance width="530"/>
  <unicode hex="0079"/>
  <anchor x="272" y="534" name="aboveLC"/>
  <outline>
    <contour>
      <point x="119" y="-202" type="curve" smooth="yes"/>
      <point x="237" y="-202"/>
      <point x="291" y="-135"/>
      <point x="338" y="-10" type="curve"/>
      <point x="518" y="511" type="line"/>
      <point x="381" y="511" type="line"/>
      <point x="315" y="282" type="line" smooth="yes"/>
      <point x="302" y="234"/>
      <point x="290" y="185"/>
      <point x="278" y="137" type="curve"/>
      <point x="274" y="137" type="line"/>
      <point x="260" y="187"/>
      <point x="248" y="236"/>
      <point x="233" y="282" type="curve" smooth="yes"/>
      <point x="155" y="511" type="line"/>
      <point x="12" y="511" type="line"/>
      <point x="210" y="11" type="line"/>
      <point x="202" y="-17" type="line" smooth="yes"/>
      <point x="188" y="-60"/>
      <point x="160" y="-90"/>
      <point x="109" y="-90" type="curve" smooth="yes"/>
      <point x="98" y="-90"/>
      <point x="83" y="-86"/>
      <point x="74" y="-83" type="curve"/>
      <point x="48" y="-192" type="line"/>
      <point x="69" y="-198"/>
      <point x="89" y="-202"/>
    </contour>
  </outline>
</glyph>
<glyph name="z" format="2">
  <advance width="470"/>
  <unicode hex="007A"/>
  <anchor x="251" y="534" name="aboveLC"/>
  <outline>
    <contour>
      <point x="37" y="0" type="line"/>
      <point x="444" y="0" type="line"/>
      <point x="444" y="111" type="line"/>
      <point x="215" y="111" type="line"/>
      <point x="437" y="435" type="line"/>
      <point x="437" y="511" type="line"/>
      <point x="63" y="511" type="line"/>
      <point x="63" y="399" type="line"/>
      <point x="260" y="399" type="line"/>
      <point x="37" y="75" type="line"/>
    </contour>
  </outline>
</glyph>
<glyph name="braceleft" format="2">
  <advance width="573"/>
  <unicode hex="007B"/>
  <outline>
    <contour>
      <point x="439" y="-164" type="line"/>
      <point x="486" y="-49" type="line"/>
      <point x="325" y="8" type="line"/>
      <point x="337" y="-108" type="line"/>
      <point x="366" y="256" type="line"/>
      <point x="229" y="401" type="line"/>
      <point x="228" y="284" type="line"/>
      <point x="366" y="429" type="line"/>
      <point x="337" y="795" type="line"/>
      <point x="320" y="676" type="line"/>
      <point x="481" y="733" type="line"/>
      <point x="441" y="851" type="line"/>
      <point x="212" y="772" type="line"/>
      <point x="237" y="476" type="line"/>
      <point x="117" y="349" type="line"/>
      <point x="117" y="337" type="line"/>
      <point x="237" y="210" type="line"/>
      <point x="213" y="-87" type="line"/>
    </contour>
  </outline>
</glyph>
<glyph name="bar" format="2">
  <advance width="272"/>
  <unicode hex="007C"/>
  <outline>
    <contour>
      <point x="89" y="-247" type="line"/>
      <point x="182" y="-247" type="line"/>
      <point x="182" y="774" type="line"/>
      <point x="89" y="774" type="line"/>
    </contour>
  </outline>
</glyph>
<glyph name="asciitilde" format="2">
  <advance width="540"/>
  <unicode hex="007E"/>
  <outline>
    <contour>
      <point x="358" y="250" type="curve" smooth="yes"/>
      <point x="408" y="250"/>
      <point x="461" y="279"/>
      <point x="510" y="354" type="curve"/>
      <point x="435" y="411" type="line"/>
      <point x="414" y="372"/>
      <point x="389" y="351"/>
      <point x="360" y="351" type="curve" smooth="yes"/>
      <point x="304" y="351"/>
      <point x="266" y="431"/>
      <point x="182" y="431" type="curve" smooth="yes"/>
      <point x="131" y="431"/>
      <point x="79" y="402"/>
      <point x="30" y="326" type="curve"/>
      <point x="105" y="270" type="line"/>
      <point x="126" y="309"/>
      <point x="152" y="330"/>
      <point x="180" y="330" type="curve" smooth="yes"/>
      <point x="236" y="330"/>
      <point x="273" y="250"/>
    </contour>
  </outline>
</glyph>
<glyph name="exclamdown" format="2">
  <advance width="343"/>
  <unicode hex="00A1"/>
  <outline>
    <contour>
      <point x="100" y="-181" type="line"/>
      <point x="243" y="-181" type="line"/>
      <point x="238" y="-49" type="line"/>
      <point x="218" y="277" type="line"/>
      <point x="125" y="277" type="line"/>
      <point x="105" y="-49" type="line"/>
    </contour>
    <contour>
      <point x="116" y="493" type="line"/>
      <point x="116" y="390" type="line"/>
      <point x="212" y="390" type="line"/>
      <point x="212" y="493" type="line"/>
    </contour>
  </outline>
</glyph>
<glyph name="cent" format="2">
  <advance width="540"/>
  <unicode hex="00A2"/>
  <outline>
    <contour>
      <point x="328" y="55" type="curve" smooth="yes"/>
      <point x="385" y="55"/>
      <point x="449" y="76"/>
      <point x="498" y="120" type="curve"/>
      <point x="440" y="209" type="line"/>
      <point x="415" y="189"/>
      <point x="383" y="170"/>
      <point x="344" y="170" type="curve" smooth="yes"/>
      <point x="252" y="170"/>
      <point x="200" y="228"/>
      <point x="200" y="317" type="curve" smooth="yes"/>
      <point x="200" y="407"/>
      <point x="251" y="464"/>
      <point x="349" y="464" type="curve" smooth="yes"/>
      <point x="375" y="464"/>
      <point x="400" y="454"/>
      <point x="425" y="433" type="curve"/>
      <point x="490" y="521" type="line"/>
      <point x="456" y="555"/>
      <point x="405" y="579"/>
      <point x="341" y="579" type="curve" smooth="yes"/>
      <point x="186" y="579"/>
      <point x="62" y="484"/>
      <point x="62" y="317" type="curve" smooth="yes"/>
      <point x="62" y="151"/>
      <point x="170" y="55"/>
    </contour>
    <contour>
      <point x="282" y="-40" type="line"/>
      <point x="361" y="-40" type="line"/>
      <point x="361" y="676" type="line"/>
      <point x="282" y="676" type="line"/>
    </contour>
  </outline>
</glyph>
<glyph name="sterling" format="2">
  <advance width="540"/>
  <unicode hex="00A3"/>
  <outline>
    <contour>
      <point x="50" y="0" type="line"/>
      <point x="507" y="0" type="line"/>
      <point x="507" y="119" type="line"/>
      <point x="236" y="119" type="line"/>
      <point x="236" y="123" type="line"/>
      <point x="270" y="161"/>
      <point x="284" y="196"/>
      <point x="284" y="248" type="curve" smooth="yes"/>
      <point x="284" y="323"/>
      <point x="250" y="387"/>
      <point x="250" y="452" type="curve" smooth="yes"/>
      <point x="250" y="519"/>
      <point x="286" y="554"/>
      <point x="344" y="554" type="curve" smooth="yes"/>
      <point x="378" y="554"/>
      <point x="404" y="537"/>
      <point x="429" y="508" type="curve"/>
      <point x="506" y="585" type="line"/>
      <point x="461" y="638"/>
      <point x="407" y="669"/>
      <point x="330" y="669" type="curve" smooth="yes"/>
      <point x="204" y="669"/>
      <point x="114" y="588"/>
      <point x="114" y="459" type="curve" smooth="yes"/>
      <point x="114" y="393"/>
      <point x="160" y="320"/>
      <point x="160" y="250" type="curve" smooth="yes"/>
      <point x="160" y="175"/>
      <point x="113" y="117"/>
      <point x="50" y="87" type="curve"/>
    </contour>
    <contour>
      <point x="54" y="282" type="line"/>
      <point x="418" y="282" type="line"/>
      <point x="418" y="370" type="line"/>
      <point x="123" y="370" type="line"/>
      <point x="54" y="365" type="line"/>
    </contour>
  </outline>
</glyph>
<glyph name="currency" format="2">
  <advance width="540"/>
  <unicode hex="00A4"/>
  <outline>
    <contour>
      <point x="92" y="89" type="line"/>
      <point x="164" y="161" type="line"/>
      <point x="196" y="143"/>
      <point x="233" y="134"/>
      <point x="270" y="134" type="curve" smooth="yes"/>
      <point x="306" y="134"/>
      <point x="343" y="143"/>
      <point x="375" y="161" type="curve"/>
      <point x="448" y="89" type="line"/>
      <point x="519" y="161" type="line"/>
      <point x="455" y="225" type="line"/>
      <point x="477" y="256"/>
      <point x="491" y="295"/>
      <point x="491" y="340" type="curve" smooth="yes"/>
      <point x="491" y="385"/>
      <point x="478" y="424"/>
      <point x="455" y="455" type="curve"/>
      <point x="519" y="519" type="line"/>
      <point x="448" y="591" type="line"/>
      <point x="376" y="519" type="line"/>
      <point x="344" y="536"/>
      <point x="307" y="546"/>
      <point x="270" y="546" type="curve" smooth="yes"/>
      <point x="233" y="546"/>
      <point x="196" y="536"/>
      <point x="164" y="519" type="curve"/>
      <point x="92" y="591" type="line"/>
      <point x="21" y="519" type="line"/>
      <point x="84" y="455" type="line"/>
      <point x="62" y="424"/>
      <point x="49" y="385"/>
      <point x="49" y="340" type="curve" smooth="yes"/>
      <point x="49" y="295"/>
      <point x="62" y="256"/>
      <point x="84" y="225" type="curve"/>
      <point x="21" y="161" type="line"/>
    </contour>
    <contour>
      <point x="270" y="234" type="curve" smooth="yes"/>
      <point x="218" y="234"/>
      <point x="176" y="275"/>
      <point x="176" y="340" type="curve" smooth="yes"/>
      <point x="176" y="405"/>
      <point x="218" y="447"/>
      <point x="270" y="447" type="curve" smooth="yes"/>
      <point x="322" y="447"/>
      <point x="364" y="405"/>
      <point x="364" y="340" type="curve" smooth="yes"/>
      <point x="364" y="275"/>
      <point x="322" y="234"/>
    </contour>
  </outline>
</glyph>
<glyph name="yen" format="2">
  <advance width="540"/>
  <unicode hex="00A5"/>
  <outline>
    <contour>
      <point x="199" y="0" type="line"/>
      <point x="341" y="0" type="line"/>
      <point x="341" y="153" type="line"/>
      <point x="501" y="153" type="line"/>
      <point x="501" y="222" type="line"/>
      <point x="341" y="222" type="line"/>
      <point x="341" y="280" type="line"/>
      <point x="501" y="280" type="line"/>
      <point x="501" y="350" type="line"/>
      <point x="372" y="350" type="line"/>
      <point x="526" y="656" type="line"/>
      <point x="384" y="656" type="line"/>
      <point x="327" y="513" type="line"/>
      <point x="309" y="468"/>
      <point x="292" y="423"/>
      <point x="274" y="377" type="curve"/>
      <point x="269" y="377" type="line"/>
      <point x="251" y="422"/>
      <point x="234" y="468"/>
      <point x="216" y="513" type="curve" smooth="yes"/>
      <point x="160" y="656" type="line"/>
      <point x="14" y="656" type="line"/>
      <point x="168" y="350" type="line"/>
      <point x="39" y="350" type="line"/>
      <point x="39" y="280" type="line"/>
      <point x="199" y="280" type="line"/>
      <point x="199" y="222" type="line"/>
      <point x="39" y="222" type="line"/>
      <point x="39" y="153" type="line"/>
      <point x="199" y="153" type="line"/>
    </contour>
  </outline>
</glyph>
<glyph name="brokenbar" format="2">
  <advance width="272"/>
  <unicode hex="00A6"/>
  <outline>
    <contour>
      <point x="89" y="319" type="line"/>
      <point x="182" y="319" type="line"/>
      <point x="182" y="774" type="line"/>
      <point x="89" y="774" type="line"/>
    </contour>
    <contour>
      <point x="89" y="-258" type="line"/>
      <point x="182" y="-258" type="line"/>
      <point x="182" y="212" type="line"/>
      <point x="89" y="212" type="line"/>
    </contour>
  </outline>
</glyph>
<glyph name="section" format="2">
  <advance width="540"/>
  <unicode hex="00A7"/>
  <outline>
    <contour>
      <point x="390" y="142" type="line"/>
      <point x="460" y="176"/>
      <point x="501" y="223"/>
      <point x="501" y="293" type="curve" smooth="yes"/>
      <point x="501" y="480"/>
      <point x="220" y="483"/>
      <point x="220" y="562" type="curve" smooth="yes"/>
      <point x="220" y="589"/>
      <point x="239" y="606"/>
      <point x="280" y="606" type="curve" smooth="yes"/>
      <point x="317" y="606"/>
      <point x="356" y="585"/>
      <point x="389" y="557" type="curve"/>
      <point x="454" y="645" type="line"/>
      <point x="412" y="679"/>
      <point x="349" y="712"/>
      <point x="272" y="712" type="curve" smooth="yes"/>
      <point x="158" y="712"/>
      <point x="92" y="646"/>
      <point x="92" y="557" type="curve" smooth="yes"/>
      <point x="92" y="378"/>
      <point x="381" y="399"/>
      <point x="381" y="282" type="curve" smooth="yes"/>
      <point x="381" y="241"/>
      <point x="357" y="219"/>
      <point x="310" y="202" type="curve"/>
    </contour>
    <contour>
      <point x="247" y="-84" type="curve" smooth="yes"/>
      <point x="372" y="-84"/>
      <point x="441" y="-15"/>
      <point x="441" y="75" type="curve" smooth="yes"/>
      <point x="441" y="254"/>
      <point x="159" y="236"/>
      <point x="159" y="349" type="curve" smooth="yes"/>
      <point x="159" y="386"/>
      <point x="183" y="411"/>
      <point x="228" y="427" type="curve"/>
      <point x="158" y="488" type="line"/>
      <point x="87" y="462"/>
      <point x="39" y="403"/>
      <point x="39" y="339" type="curve" smooth="yes"/>
      <point x="39" y="145"/>
      <point x="313" y="155"/>
      <point x="313" y="69" type="curve" smooth="yes"/>
      <point x="313" y="41"/>
      <point x="291" y="21"/>
      <point x="247" y="21" type="curve" smooth="yes"/>
      <point x="204" y="21"/>
      <point x="166" y="39"/>
      <point x="132" y="74" type="curve"/>
      <point x="50" y="1" type="line"/>
      <point x="95" y="-55"/>
      <point x="172" y="-84"/>
    </contour>
  </outline>
</glyph>
<glyph name="copyright" format="2">
  <advance width="774"/>
  <unicode hex="00A9"/>
  <outline>
    <contour>
      <point x="387" y="-9" type="curve" smooth="yes"/>
      <point x="569" y="-9"/>
      <point x="726" y="122"/>
      <point x="726" y="335" type="curve" smooth="yes"/>
      <point x="726" y="548"/>
      <point x="569" y="676"/>
      <point x="387" y="676" type="curve" smooth="yes"/>
      <point x="204" y="676"/>
      <point x="47" y="548"/>
      <point x="47" y="335" type="curve" smooth="yes"/>
      <point x="47" y="122"/>
      <point x="204" y="-9"/>
    </contour>
    <contour>
      <point x="387" y="50" type="curve" smooth="yes"/>
      <point x="234" y="50"/>
      <point x="114" y="164"/>
      <point x="114" y="335" type="curve" smooth="yes"/>
      <point x="114" y="506"/>
      <point x="234" y="617"/>
      <point x="387" y="617" type="curve" smooth="yes"/>
      <point x="539" y="617"/>
      <point x="659" y="506"/>
      <point x="659" y="335" type="curve" smooth="yes"/>
      <point x="659" y="164"/>
      <point x="539" y="50"/>
    </contour>
    <contour>
      <point x="398" y="131" type="curve" smooth="yes"/>
      <point x="453" y="131"/>
      <point x="496" y="153"/>
      <point x="535" y="185" type="curve"/>
      <point x="489" y="251" type="line"/>
      <point x="462" y="230"/>
      <point x="438" y="215"/>
      <point x="402" y="215" type="curve" smooth="yes"/>
      <point x="342" y="215"/>
      <point x="304" y="261"/>
      <point x="304" y="334" type="curve" smooth="yes"/>
      <point x="304" y="398"/>
      <point x="341" y="448"/>
      <point x="407" y="448" type="curve" smooth="yes"/>
      <point x="437" y="448"/>
      <point x="458" y="435"/>
      <point x="481" y="411" type="curve"/>
      <point x="534" y="472" type="line"/>
      <point x="501" y="505"/>
      <point x="462" y="532"/>
      <point x="398" y="532" type="curve" smooth="yes"/>
      <point x="295" y="532"/>
      <point x="200" y="455"/>
      <point x="200" y="334" type="curve" smooth="yes"/>
      <point x="200" y="208"/>
      <point x="285" y="131"/>
    </contour>
  </outline>
</glyph>
<glyph name="ordfeminine" format="2">
  <advance width="368"/>
  <unicode hex="00AA"/>
  <outline>
    <contour>
      <point x="135" y="382" type="curve" smooth="yes"/>
      <point x="174" y="382"/>
      <point x="207" y="401"/>
      <point x="232" y="425" type="curve"/>
      <point x="236" y="425" type="line"/>
      <point x="246" y="390" type="line"/>
      <point x="326" y="390" type="line"/>
      <point x="326" y="587" type="line" smooth="yes"/>
      <point x="326" y="688"/>
      <point x="277" y="738"/>
      <point x="191" y="738" type="curve" smooth="yes"/>
      <point x="137" y="738"/>
      <point x="86" y="719"/>
      <point x="42" y="693" type="curve"/>
      <point x="78" y="626" type="line"/>
      <point x="111" y="644"/>
      <point x="144" y="658"/>
      <point x="173" y="658" type="curve" smooth="yes"/>
      <point x="209" y="658"/>
      <point x="223" y="639"/>
      <point x="225" y="608" type="curve"/>
      <point x="89" y="595"/>
      <point x="31" y="557"/>
      <point x="31" y="484" type="curve" smooth="yes"/>
      <point x="31" y="428"/>
      <point x="71" y="382"/>
    </contour>
    <contour>
      <point x="168" y="459" type="curve" smooth="yes"/>
      <point x="142" y="459"/>
      <point x="128" y="470"/>
      <point x="128" y="493" type="curve" smooth="yes"/>
      <point x="128" y="519"/>
      <point x="152" y="541"/>
      <point x="225" y="549" type="curve"/>
      <point x="225" y="488" type="line"/>
      <point x="207" y="469"/>
      <point x="190" y="459"/>
    </contour>
  </outline>
</glyph>
<glyph name="logicalnot" format="2">
  <advance width="540"/>
  <unicode hex="00AC"/>
  <outline>
    <contour>
      <point x="400" y="98" type="line"/>
      <point x="505" y="98" type="line"/>
      <point x="505" y="391" type="line"/>
      <point x="35" y="391" type="line"/>
      <point x="35" y="290" type="line"/>
      <point x="400" y="290" type="line"/>
    </contour>
  </outline>
</glyph>
<glyph name="registered" format="2">
  <advance width="471"/>
  <unicode hex="00AE"/>
  <outline>
    <contour>
      <point x="235" y="322" type="curve" smooth="yes"/>
      <point x="347" y="322"/>
      <point x="438" y="409"/>
      <point x="438" y="530" type="curve" smooth="yes"/>
      <point x="438" y="652"/>
      <point x="347" y="738"/>
      <point x="235" y="738" type="curve" smooth="yes"/>
      <point x="123" y="738"/>
      <point x="32" y="652"/>
      <point x="32" y="530" type="curve" smooth="yes"/>
      <point x="32" y="409"/>
      <point x="123" y="322"/>
    </contour>
    <contour>
      <point x="235" y="371" type="curve" smooth="yes"/>
      <point x="148" y="371"/>
      <point x="86" y="434"/>
      <point x="86" y="530" type="curve" smooth="yes"/>
      <point x="86" y="626"/>
      <point x="148" y="690"/>
      <point x="235" y="690" type="curve" smooth="yes"/>
      <point x="322" y="690"/>
      <point x="384" y="626"/>
      <point x="384" y="530" type="curve" smooth="yes"/>
      <point x="384" y="434"/>
      <point x="322" y="371"/>
    </contour>
    <contour>
      <point x="153" y="430" type="line"/>
      <point x="210" y="430" type="line"/>
      <point x="210" y="493" type="line"/>
      <point x="241" y="493" type="line"/>
      <point x="273" y="430" type="line"/>
      <point x="333" y="430" type="line"/>
      <point x="289" y="510" type="line"/>
      <point x="314" y="521"/>
      <point x="326" y="542"/>
      <point x="326" y="566" type="curve" smooth="yes"/>
      <point x="326" y="613"/>
      <point x="290" y="634"/>
      <point x="243" y="634" type="curve" smooth="yes"/>
      <point x="153" y="634" type="line"/>
    </contour>
    <contour>
      <point x="210" y="533" type="line"/>
      <point x="210" y="591" type="line"/>
      <point x="232" y="591" type="line" smooth="yes"/>
      <point x="254" y="591"/>
      <point x="265" y="579"/>
      <point x="265" y="563" type="curve" smooth="yes"/>
      <point x="265" y="546"/>
      <point x="253" y="533"/>
      <point x="231" y="533" type="curve" smooth="yes"/>
    </contour>
  </outline>
</glyph>
<glyph name="macron" format="2">
  <advance width="571"/>
  <unicode hex="00AF"/>
  <outline>
    <contour>
      <point x="135" y="612" type="line"/>
      <point x="435" y="612" type="line"/>
      <point x="435" y="704" type="line"/>
      <point x="135" y="704" type="line"/>
    </contour>
  </outline>
</glyph>
<glyph name="degree" format="2">
  <advance width="372"/>
  <unicode hex="00B0"/>
  <outline>
    <contour>
      <point x="186" y="415" type="curve" smooth="yes"/>
      <point x="268" y="415"/>
      <point x="333" y="476"/>
      <point x="333" y="561" type="curve" smooth="yes"/>
      <point x="333" y="647"/>
      <point x="268" y="708"/>
      <point x="186" y="708" type="curve" smooth="yes"/>
      <point x="105" y="708"/>
      <point x="40" y="647"/>
      <point x="40" y="561" type="curve" smooth="yes"/>
      <point x="40" y="476"/>
      <point x="105" y="415"/>
    </contour>
    <contour>
      <point x="186" y="485" type="curve" smooth="yes"/>
      <point x="145" y="485"/>
      <point x="116" y="516"/>
      <point x="116" y="561" type="curve" smooth="yes"/>
      <point x="116" y="607"/>
      <point x="145" y="639"/>
      <point x="186" y="639" type="curve" smooth="yes"/>
      <point x="228" y="639"/>
      <point x="257" y="607"/>
      <point x="257" y="561" type="curve" smooth="yes"/>
      <point x="257" y="516"/>
      <point x="228" y="485"/>
    </contour>
  </outline>
</glyph>
<glyph name="plusminus" format="2">
  <advance width="540"/>
  <unicode hex="00B1"/>
  <outline>
    <contour>
      <point x="217" y="158" type="line"/>
      <point x="322" y="158" type="line"/>
      <point x="322" y="305" type="line"/>
      <point x="505" y="305" type="line"/>
      <point x="505" y="406" type="line"/>
      <point x="322" y="406" type="line"/>
      <point x="322" y="583" type="line"/>
      <point x="217" y="583" type="line"/>
      <point x="217" y="406" type="line"/>
      <point x="35" y="406" type="line"/>
      <point x="35" y="305" type="line"/>
      <point x="217" y="305" type="line"/>
    </contour>
    <contour>
      <point x="35" y="0" type="line"/>
      <point x="505" y="0" type="line"/>
      <point x="505" y="100" type="line"/>
      <point x="35" y="100" type="line"/>
    </contour>
  </outline>
</glyph>
<glyph name="micro" format="2">
  <advance width="608"/>
  <unicode hex="00B5"/>
  <outline>
    <contour>
      <point x="69" y="-182" type="line"/>
      <point x="213" y="-182" type="line"/>
      <point x="205" y="-110"/>
      <point x="204" y="-59"/>
      <point x="202" y="19" type="curve"/>
      <point x="220" y="-3"/>
      <point x="244" y="-7"/>
      <point x="271" y="-7" type="curve" smooth="yes"/>
      <point x="318" y="-7"/>
      <point x="358" y="20"/>
      <point x="385" y="74" type="curve"/>
      <point x="388" y="74" type="line"/>
      <point x="403" y="17"/>
      <point x="446" y="-12"/>
      <point x="514" y="-12" type="curve"/>
      <point x="556" y="-12"/>
      <point x="579" y="-5"/>
      <point x="600" y="3" type="curve"/>
      <point x="583" y="108" type="line"/>
      <point x="572" y="104"/>
      <point x="559" y="102"/>
      <point x="551" y="102" type="curve" smooth="yes"/>
      <point x="523" y="102"/>
      <point x="506" y="113"/>
      <point x="506" y="146" type="curve" smooth="yes"/>
      <point x="506" y="236"/>
      <point x="513" y="388"/>
      <point x="516" y="511" type="curve"/>
      <point x="373" y="511" type="line"/>
      <point x="373" y="180" type="line"/>
      <point x="343" y="126"/>
      <point x="315" y="108"/>
      <point x="278" y="108" type="curve" smooth="yes"/>
      <point x="232" y="108"/>
      <point x="211" y="136"/>
      <point x="211" y="211" type="curve" smooth="yes"/>
      <point x="211" y="511" type="line"/>
      <point x="69" y="511" type="line"/>
    </contour>
  </outline>
</glyph>
<glyph name="periodcentered" format="2">
  <advance width="302"/>
  <unicode hex="00B7"/>
  <outline>
    <contour>
      <point x="151" y="240" type="curve" smooth="yes"/>
      <point x="201" y="240"/>
      <point x="238" y="279"/>
      <point x="238" y="330" type="curve" smooth="yes"/>
      <point x="238" y="382"/>
      <point x="201" y="421"/>
      <point x="151" y="421" type="curve" smooth="yes"/>
      <point x="101" y="421"/>
      <point x="64" y="382"/>
      <point x="64" y="330" type="curve" smooth="yes"/>
      <point x="64" y="279"/>
      <point x="101" y="240"/>
    </contour>
  </outline>
</glyph>
<glyph name="ordmasculine" format="2">
  <advance width="384"/>
  <unicode hex="00BA"/>
  <outline>
    <contour>
      <point x="191" y="382" type="curve" smooth="yes"/>
      <point x="279" y="382"/>
      <point x="357" y="448"/>
      <point x="357" y="559" type="curve" smooth="yes"/>
      <point x="357" y="672"/>
      <point x="279" y="738"/>
      <point x="191" y="738" type="curve" smooth="yes"/>
      <point x="104" y="738"/>
      <point x="25" y="672"/>
      <point x="25" y="559" type="curve" smooth="yes"/>
      <point x="25" y="448"/>
      <point x="104" y="382"/>
    </contour>
    <contour>
      <point x="191" y="462" type="curve" smooth="yes"/>
      <point x="148" y="462"/>
      <point x="128" y="501"/>
      <point x="128" y="559" type="curve" smooth="yes"/>
      <point x="128" y="618"/>
      <point x="148" y="658"/>
      <point x="191" y="658" type="curve" smooth="yes"/>
      <point x="234" y="658"/>
      <point x="254" y="618"/>
      <point x="254" y="559" type="curve" smooth="yes"/>
      <point x="254" y="501"/>
      <point x="234" y="462"/>
    </contour>
  </outline>
</glyph>
<glyph name="questiondown" format="2">
  <advance width="472"/>
  <unicode hex="00BF"/>
  <outline>
    <contour>
      <point x="236" y="-193" type="curve" smooth="yes"/>
      <point x="316" y="-193"/>
      <point x="382" y="-155"/>
      <point x="430" y="-100" type="curve"/>
      <point x="352" y="-29" type="line"/>
      <point x="323" y="-58"/>
      <point x="293" y="-78"/>
      <point x="254" y="-78" type="curve" smooth="yes"/>
      <point x="210" y="-78"/>
      <point x="180" y="-52"/>
      <point x="180" y="-8" type="curve" smooth="yes"/>
      <point x="180" y="74"/>
      <point x="333" y="132"/>
      <point x="312" y="277" type="curve"/>
      <point x="188" y="277" type="line"/>
      <point x="201" y="151"/>
      <point x="44" y="110"/>
      <point x="44" y="-18" type="curve" smooth="yes"/>
      <point x="44" y="-137"/>
      <point x="126" y="-193"/>
    </contour>
    <contour>
      <point x="250" y="341" type="curve" smooth="yes"/>
      <point x="300" y="341"/>
      <point x="337" y="380"/>
      <point x="337" y="432" type="curve" smooth="yes"/>
      <point x="337" y="484"/>
      <point x="300" y="523"/>
      <point x="250" y="523" type="curve" smooth="yes"/>
      <point x="200" y="523"/>
      <point x="163" y="484"/>
      <point x="163" y="432" type="curve" smooth="yes"/>
      <point x="163" y="380"/>
      <point x="200" y="341"/>
    </contour>
  </outline>
</glyph>
<glyph name="AE" format="2">
  <advance width="869"/>
  <unicode hex="00C6"/>
  <anchor x="558" y="717" name="aboveUC"/>
  <outline>
    <contour>
      <point x="-10" y="0" type="line"/>
      <point x="138" y="0" type="line"/>
      <point x="311" y="370" type="line"/>
      <point x="339" y="431"/>
      <point x="367" y="498"/>
      <point x="397" y="566" type="curve"/>
      <point x="401" y="566" type="line"/>
      <point x="401" y="0" type="line"/>
      <point x="816" y="0" type="line"/>
      <point x="816" y="119" type="line"/>
      <point x="543" y="119" type="line"/>
      <point x="543" y="288" type="line"/>
      <point x="764" y="288" type="line"/>
      <point x="764" y="407" type="line"/>
      <point x="543" y="407" type="line"/>
      <point x="543" y="554" type="line"/>
      <point x="805" y="554" type="line"/>
      <point x="805" y="674" type="line"/>
      <point x="314" y="674" type="line"/>
    </contour>
    <contour>
      <point x="145" y="160" type="line"/>
      <point x="477" y="160" type="line"/>
      <point x="477" y="271" type="line"/>
      <point x="145" y="271" type="line"/>
    </contour>
  </outline>
</glyph>
<glyph name="Eth" format="2">
  <advance width="678"/>
  <unicode hex="00D0"/>
  <outline>
    <component base="D" xOffset="25"/>
    <contour>
      <point x="28" y="314" type="line"/>
      <point x="382" y="314" type="line"/>
      <point x="382" y="383" type="line"/>
      <point x="108" y="383" type="line"/>
      <point x="28" y="378" type="line"/>
    </contour>
  </outline>
</glyph>
<glyph name="multiply" format="2">
  <advance width="540"/>
  <unicode hex="00D7"/>
  <outline>
    <contour>
      <point x="265" y="216" type="line"/>
      <point x="441" y="37" type="line"/>
      <point x="510" y="110" type="line"/>
      <point x="338" y="287" type="line"/>
      <point x="514" y="467" type="line"/>
      <point x="445" y="539" type="line"/>
      <point x="269" y="358" type="line"/>
      <point x="91" y="538" type="line"/>
      <point x="17" y="467" type="line"/>
      <point x="197" y="284" type="line"/>
      <point x="25" y="108" type="line"/>
      <point x="93" y="38" type="line"/>
    </contour>
  </outline>
</glyph>
<glyph name="Oslash" format="2">
  <advance width="704"/>
  <unicode hex="00D8"/>
  <anchor x="359" y="696" name="aboveUC"/>
  <outline>
    <component base="O" xOffset="1"/>
    <contour>
      <point x="117" y="-40" type="line"/>
      <point x="675" y="657" type="line"/>
      <point x="601" y="715" type="line"/>
      <point x="42" y="16" type="line"/>
    </contour>
  </outline>
</glyph>
<glyph name="Thorn" format="2">
  <advance width="632"/>
  <unicode hex="00DE"/>
  <outline>
    <contour>
      <point x="81" y="0" type="line"/>
      <point x="223" y="0" type="line"/>
      <point x="223" y="130" type="line"/>
      <point x="321" y="130" type="line" smooth="yes"/>
      <point x="465" y="130"/>
      <point x="583" y="200"/>
      <point x="583" y="356" type="curve" smooth="yes"/>
      <point x="583" y="517"/>
      <point x="468" y="570"/>
      <point x="321" y="570" type="curve" smooth="yes"/>
      <point x="223" y="570" type="line"/>
      <point x="223" y="674" type="line"/>
      <point x="81" y="674" type="line"/>
    </contour>
    <contour>
      <point x="223" y="244" type="line"/>
      <point x="223" y="457" type="line"/>
      <point x="312" y="457" type="line" smooth="yes"/>
      <point x="398" y="457"/>
      <point x="443" y="430"/>
      <point x="443" y="356" type="curve" smooth="yes"/>
      <point x="443" y="282"/>
      <point x="401" y="244"/>
      <point x="312" y="244" type="curve" smooth="yes"/>
    </contour>
  </outline>
</glyph>
<glyph name="germandbls" format="2">
  <advance width="644"/>
  <unicode hex="00DF"/>
  <outline>
    <contour>
      <point x="429" y="-12" type="curve" smooth="yes"/>
      <point x="551" y="-12"/>
      <point x="616" y="61"/>
      <point x="616" y="154" type="curve" smooth="yes"/>
      <point x="616" y="314"/>
      <point x="431" y="308"/>
      <point x="431" y="381" type="curve" smooth="yes"/>
      <point x="431" y="436"/>
      <point x="513" y="467"/>
      <point x="513" y="567" type="curve" smooth="yes"/>
      <point x="513" y="654"/>
      <point x="444" y="736"/>
      <point x="308" y="736" type="curve" smooth="yes"/>
      <point x="147" y="736"/>
      <point x="69" y="639"/>
      <point x="69" y="507" type="curve" smooth="yes"/>
      <point x="69" y="0" type="line"/>
      <point x="209" y="0" type="line"/>
      <point x="209" y="489" type="line" smooth="yes"/>
      <point x="209" y="574"/>
      <point x="244" y="624"/>
      <point x="308" y="624" type="curve" smooth="yes"/>
      <point x="353" y="624"/>
      <point x="377" y="592"/>
      <point x="377" y="551" type="curve" smooth="yes"/>
      <point x="377" y="473"/>
      <point x="301" y="444"/>
      <point x="301" y="363" type="curve" smooth="yes"/>
      <point x="301" y="226"/>
      <point x="486" y="232"/>
      <point x="486" y="147" type="curve" smooth="yes"/>
      <point x="486" y="117"/>
      <point x="463" y="93"/>
      <point x="425" y="93" type="curve" smooth="yes"/>
      <point x="392" y="93"/>
      <point x="360" y="105"/>
      <point x="325" y="131" type="curve"/>
      <point x="275" y="35" type="line"/>
      <point x="323" y="5"/>
      <point x="369" y="-12"/>
    </contour>
  </outline>
</glyph>
<glyph name="ae" format="2">
  <advance width="810"/>
  <unicode hex="00E6"/>
  <anchor x="426" y="524" name="aboveLC"/>
  <outline>
    <contour>
      <point x="209" y="-12" type="curve" smooth="yes"/>
      <point x="272" y="-12"/>
      <point x="348" y="22"/>
      <point x="415" y="84" type="curve"/>
      <point x="453" y="34"/>
      <point x="506" y="-12"/>
      <point x="592" y="-12" type="curve"/>
      <point x="662" y="-12"/>
      <point x="709" y="11"/>
      <point x="751" y="38" type="curve"/>
      <point x="725" y="87" type="line"/>
      <point x="688" y="62"/>
      <point x="651" y="45"/>
      <point x="600" y="45" type="curve" smooth="yes"/>
      <point x="509" y="45"/>
      <point x="438" y="122"/>
      <point x="436" y="235" type="curve"/>
      <point x="768" y="235" type="line"/>
      <point x="770" y="247"/>
      <point x="771" y="262"/>
      <point x="771" y="277" type="curve" smooth="yes"/>
      <point x="771" y="422"/>
      <point x="703" y="512"/>
      <point x="583" y="512" type="curve"/>
      <point x="512" y="512"/>
      <point x="452" y="468"/>
      <point x="414" y="398" type="curve"/>
      <point x="395" y="467"/>
      <point x="347" y="512"/>
      <point x="270" y="512" type="curve" smooth="yes"/>
      <point x="196" y="512"/>
      <point x="127" y="475"/>
      <point x="85" y="447" type="curve"/>
      <point x="114" y="398" type="line"/>
      <point x="151" y="424"/>
      <point x="205" y="454"/>
      <point x="262" y="454" type="curve" smooth="yes"/>
      <point x="351" y="454"/>
      <point x="371" y="384"/>
      <point x="371" y="315" type="curve"/>
      <point x="160" y="291"/>
      <point x="63" y="237"/>
      <point x="63" y="126" type="curve" smooth="yes"/>
      <point x="63" y="36"/>
      <point x="127" y="-12"/>
    </contour>
    <contour>
      <point x="226" y="44" type="curve" smooth="yes"/>
      <point x="174" y="44"/>
      <point x="131" y="69"/>
      <point x="131" y="132" type="curve" smooth="yes"/>
      <point x="131" y="202"/>
      <point x="197" y="246"/>
      <point x="370" y="267" type="curve"/>
      <point x="371" y="241" type="line" smooth="yes"/>
      <point x="371" y="199"/>
      <point x="379" y="156"/>
      <point x="391" y="129" type="curve"/>
      <point x="341" y="75"/>
      <point x="275" y="44"/>
    </contour>
    <contour>
      <point x="436" y="283" type="line"/>
      <point x="446" y="387"/>
      <point x="507" y="455"/>
      <point x="581" y="455" type="curve" smooth="yes"/>
      <point x="662" y="455"/>
      <point x="709" y="395"/>
      <point x="709" y="283" type="curve"/>
    </contour>
  </outline>
</glyph>
<glyph name="eth" format="2">
  <advance width="576"/>
  <unicode hex="00F0"/>
  <outline>
    <contour>
      <point x="281" y="-12" type="curve" smooth="yes"/>
      <point x="430" y="-12"/>
      <point x="523" y="107"/>
      <point x="523" y="273" type="curve" smooth="yes"/>
      <point x="523" y="539"/>
      <point x="354" y="674"/>
      <point x="181" y="763" type="curve"/>
      <point x="119" y="676" type="line"/>
      <point x="296" y="584"/>
      <point x="390" y="482"/>
      <point x="390" y="266" type="curve" smooth="yes"/>
      <point x="390" y="157"/>
      <point x="349" y="102"/>
      <point x="285" y="102" type="curve" smooth="yes"/>
      <point x="226" y="102"/>
      <point x="175" y="150"/>
      <point x="175" y="234" type="curve" smooth="yes"/>
      <point x="175" y="318"/>
      <point x="219" y="363"/>
      <point x="283" y="363" type="curve" smooth="yes"/>
      <point x="323" y="363"/>
      <point x="360" y="350"/>
      <point x="395" y="305" type="curve"/>
      <point x="393" y="382" type="line"/>
      <point x="367" y="445"/>
      <point x="310" y="468"/>
      <point x="255" y="468" type="curve" smooth="yes"/>
      <point x="145" y="468"/>
      <point x="45" y="381"/>
      <point x="45" y="234" type="curve" smooth="yes"/>
      <point x="45" y="82"/>
      <point x="154" y="-12"/>
    </contour>
    <contour>
      <point x="131" y="494" type="line"/>
      <point x="509" y="684" type="line"/>
      <point x="471" y="749" type="line"/>
      <point x="94" y="557" type="line"/>
    </contour>
  </outline>
</glyph>
<glyph name="divide" format="2">
  <advance width="540"/>
  <unicode hex="00F7"/>
  <outline>
    <contour>
      <point x="210" y="118" type="line"/>
      <point x="210" y="-3" type="line"/>
      <point x="331" y="-3" type="line"/>
      <point x="331" y="118" type="line"/>
    </contour>
    <contour>
      <point x="210" y="563" type="line"/>
      <point x="210" y="442" type="line"/>
      <point x="331" y="442" type="line"/>
      <point x="331" y="563" type="line"/>
    </contour>
    <contour>
      <point x="35" y="230" type="line"/>
      <point x="505" y="230" type="line"/>
      <point x="505" y="330" type="line"/>
      <point x="35" y="330" type="line"/>
    </contour>
  </outline>
</glyph>
<glyph name="oslash" format="2">
  <advance width="571"/>
  <unicode hex="00F8"/>
  <anchor x="285" y="534" name="aboveLC"/>
  <outline>
    <contour>
      <point x="285" y="-12" type="curve" smooth="yes"/>
      <point x="414" y="-12"/>
      <point x="533" y="85"/>
      <point x="533" y="255" type="curve" smooth="yes"/>
      <point x="533" y="425"/>
      <point x="414" y="523"/>
      <point x="285" y="523" type="curve" smooth="yes"/>
      <point x="157" y="523"/>
      <point x="38" y="425"/>
      <point x="38" y="255" type="curve" smooth="yes"/>
      <point x="38" y="85"/>
      <point x="157" y="-12"/>
    </contour>
    <contour>
      <point x="285" y="97" type="curve" smooth="yes"/>
      <point x="217" y="97"/>
      <point x="176" y="153"/>
      <point x="176" y="263" type="curve" smooth="yes"/>
      <point x="176" y="352"/>
      <point x="219" y="413"/>
      <point x="285" y="413" type="curve" smooth="yes"/>
      <point x="353" y="413"/>
      <point x="395" y="357"/>
      <point x="395" y="247" type="curve" smooth="yes"/>
      <point x="395" y="158"/>
      <point x="352" y="97"/>
    </contour>
    <contour>
      <point x="101" y="-25" type="line"/>
      <point x="524" y="495" type="line"/>
      <point x="470" y="538" type="line"/>
      <point x="47" y="16" type="line"/>
    </contour>
  </outline>
</glyph>
<glyph name="thorn" format="2">
  <advance width="589"/>
  <unicode hex="00FE"/>
  <anchor x="142" y="754" name="aboveLC"/>
  <outline>
    <contour>
      <point x="69" y="-193" type="line"/>
      <point x="211" y="-193" type="line"/>
      <point x="211" y="-40" type="line"/>
      <point x="208" y="37" type="line"/>
      <point x="244" y="5"/>
      <point x="282" y="-12"/>
      <point x="331" y="-12" type="curve" smooth="yes"/>
      <point x="443" y="-12"/>
      <point x="547" y="88"/>
      <point x="547" y="263" type="curve" smooth="yes"/>
      <point x="547" y="421"/>
      <point x="469" y="523"/>
      <point x="339" y="523" type="curve" smooth="yes"/>
      <point x="291" y="523"/>
      <point x="245" y="501"/>
      <point x="208" y="470" type="curve"/>
      <point x="211" y="544" type="line"/>
      <point x="211" y="725" type="line"/>
      <point x="69" y="725" type="line"/>
    </contour>
    <contour>
      <point x="299" y="104" type="curve" smooth="yes"/>
      <point x="272" y="104"/>
      <point x="241" y="113"/>
      <point x="211" y="139" type="curve"/>
      <point x="211" y="357" type="line"/>
      <point x="244" y="391"/>
      <point x="273" y="407"/>
      <point x="306" y="407" type="curve" smooth="yes"/>
      <point x="372" y="407"/>
      <point x="401" y="356"/>
      <point x="401" y="262" type="curve" smooth="yes"/>
      <point x="401" y="153"/>
      <point x="356" y="104"/>
    </contour>
  </outline>
</glyph>
<glyph name="idotless" format="2">
  <advance width="281"/>
  <unicode hex="0131"/>
  <anchor x="140" y="534" name="aboveLC"/>
  <outline>
    <contour>
      <point x="69" y="0" type="line"/>
      <point x="211" y="0" type="line"/>
      <point x="211" y="511" type="line"/>
      <point x="69" y="511" type="line"/>
    </contour>
  </outline>
</glyph>
<glyph name="OE" format="2">
  <advance width="896"/>
  <unicode hex="0152"/>
  <anchor x="547" y="696" name="aboveUC"/>
  <outline>
    <contour>
      <point x="384" y="0" type="curve" smooth="yes"/>
      <point x="842" y="0" type="line"/>
      <point x="842" y="119" type="line"/>
      <point x="571" y="119" type="line"/>
      <point x="571" y="288" type="line"/>
      <point x="790" y="288" type="line"/>
      <point x="790" y="407" type="line"/>
      <point x="571" y="407" type="line"/>
      <point x="571" y="554" type="line"/>
      <point x="832" y="554" type="line"/>
      <point x="832" y="674" type="line"/>
      <point x="392" y="674" type="line" smooth="yes"/>
      <point x="190" y="674"/>
      <point x="48" y="569"/>
      <point x="48" y="339" type="curve" smooth="yes"/>
      <point x="48" y="110"/>
      <point x="190" y="0"/>
    </contour>
    <contour>
      <point x="401" y="114" type="line" smooth="yes"/>
      <point x="276" y="114"/>
      <point x="194" y="175"/>
      <point x="194" y="339" type="curve" smooth="yes"/>
      <point x="194" y="504"/>
      <point x="276" y="559"/>
      <point x="401" y="559" type="curve" smooth="yes"/>
      <point x="429" y="559" type="line"/>
      <point x="429" y="114" type="line"/>
    </contour>
  </outline>
</glyph>
<glyph name="oe" format="2">
  <advance width="852"/>
  <unicode hex="0153"/>
  <anchor x="442" y="534" name="aboveLC"/>
  <outline>
    <contour>
      <point x="275" y="-12" type="curve" smooth="yes"/>
      <point x="351" y="-12"/>
      <point x="406" y="20"/>
      <point x="448" y="82" type="curve"/>
      <point x="489" y="22"/>
      <point x="551" y="-12"/>
      <point x="615" y="-12" type="curve"/>
      <point x="677" y="-12"/>
      <point x="744" y="9"/>
      <point x="795" y="44" type="curve"/>
      <point x="746" y="137" type="line"/>
      <point x="709" y="114"/>
      <point x="675" y="99"/>
      <point x="635" y="99" type="curve" smooth="yes"/>
      <point x="569" y="99"/>
      <point x="517" y="138"/>
      <point x="507" y="214" type="curve"/>
      <point x="808" y="214" type="line"/>
      <point x="811" y="227"/>
      <point x="814" y="249"/>
      <point x="814" y="275" type="curve" smooth="yes"/>
      <point x="814" y="416"/>
      <point x="745" y="523"/>
      <point x="611" y="523" type="curve"/>
      <point x="547" y="523"/>
      <point x="488" y="488"/>
      <point x="446" y="427" type="curve"/>
      <point x="408" y="487"/>
      <point x="351" y="523"/>
      <point x="278" y="523" type="curve" smooth="yes"/>
      <point x="149" y="523"/>
      <point x="38" y="425"/>
      <point x="38" y="255" type="curve" smooth="yes"/>
      <point x="38" y="85"/>
      <point x="146" y="-12"/>
    </contour>
    <contour>
      <point x="278" y="102" type="curve" smooth="yes"/>
      <point x="219" y="102"/>
      <point x="182" y="162"/>
      <point x="182" y="255" type="curve" smooth="yes"/>
      <point x="182" y="347"/>
      <point x="219" y="408"/>
      <point x="278" y="408" type="curve" smooth="yes"/>
      <point x="338" y="408"/>
      <point x="375" y="347"/>
      <point x="375" y="255" type="curve" smooth="yes"/>
      <point x="375" y="162"/>
      <point x="338" y="102"/>
    </contour>
    <contour>
      <point x="507" y="302" type="line"/>
      <point x="515" y="377"/>
      <point x="555" y="414"/>
      <point x="606" y="414" type="curve" smooth="yes"/>
      <point x="665" y="414"/>
      <point x="692" y="370"/>
      <point x="692" y="302" type="curve"/>
    </contour>
  </outline>
</glyph>
<glyph name="florin" format="2">
  <advance width="540"/>
  <unicode hex="0192"/>
  <outline>
    <contour>
      <point x="116" y="-99" type="curve" smooth="yes"/>
      <point x="252" y="-99"/>
      <point x="293" y="-2"/>
      <point x="307" y="120" type="curve" smooth="yes"/>
      <point x="350" y="484" type="line" smooth="yes"/>
      <point x="356" y="536"/>
      <point x="380" y="573"/>
      <point x="428" y="573" type="curve" smooth="yes"/>
      <point x="450" y="573"/>
      <point x="465" y="566"/>
      <point x="478" y="561" type="curve"/>
      <point x="505" y="667" type="line"/>
      <point x="485" y="677"/>
      <point x="444" y="686"/>
      <point x="417" y="686" type="curve" smooth="yes"/>
      <point x="285" y="686"/>
      <point x="229" y="622"/>
      <point x="213" y="473" type="curve" smooth="yes"/>
      <point x="178" y="160" type="line" smooth="yes"/>
      <point x="165" y="45"/>
      <point x="146" y="13"/>
      <point x="95" y="12" type="curve" smooth="yes"/>
      <point x="79" y="12"/>
      <point x="63" y="15"/>
      <point x="48" y="21" type="curve"/>
      <point x="29" y="-83" type="line"/>
      <point x="44" y="-92"/>
      <point x="77" y="-98"/>
    </contour>
    <contour>
      <point x="117" y="322" type="line"/>
      <point x="453" y="322" type="line"/>
      <point x="453" y="426" type="line"/>
      <point x="193" y="426" type="line"/>
      <point x="117" y="421" type="line"/>
    </contour>
  </outline>
</glyph>
<glyph name="breve" format="2">
  <advance width="571"/>
  <unicode hex="02D8"/>
  <anchor x="285" y="738" name="aboveLC"/>
  <outline>
    <contour>
      <point x="285" y="590" type="curve" smooth="yes"/>
      <point x="402" y="590"/>
      <point x="454" y="663"/>
      <point x="457" y="752" type="curve"/>
      <point x="376" y="765" type="line"/>
      <point x="369" y="720"/>
      <point x="341" y="679"/>
      <point x="285" y="679" type="curve" smooth="yes"/>
      <point x="229" y="679"/>
      <point x="201" y="720"/>
      <point x="194" y="765" type="curve"/>
      <point x="113" y="752" type="line"/>
      <point x="116" y="663"/>
      <point x="169" y="590"/>
    </contour>
  </outline>
</glyph>
<glyph name="dotaccent" format="2">
  <advance width="571"/>
  <unicode hex="02D9"/>
  <outline>
    <contour>
      <point x="285" y="590" type="curve" smooth="yes"/>
      <point x="331" y="590"/>
      <point x="364" y="621"/>
      <point x="364" y="666" type="curve" smooth="yes"/>
      <point x="364" y="710"/>
      <point x="331" y="742"/>
      <point x="285" y="742" type="curve" smooth="yes"/>
      <point x="239" y="742"/>
      <point x="206" y="710"/>
      <point x="206" y="666" type="curve" smooth="yes"/>
      <point x="206" y="621"/>
      <point x="239" y="590"/>
    </contour>
  </outline>
</glyph>
<glyph name="ogonek" format="2">
  <advance width="571"/>
  <unicode hex="02DB"/>
  <outline>
    <contour>
      <point x="306" y="-216" type="curve" smooth="yes"/>
      <point x="337" y="-216"/>
      <point x="381" y="-203"/>
      <point x="407" y="-182" type="curve"/>
      <point x="377" y="-118" type="line"/>
      <point x="367" y="-125"/>
      <point x="353" y="-131"/>
      <point x="339" y="-131" type="curve" smooth="yes"/>
      <point x="317" y="-131"/>
      <point x="295" y="-118"/>
      <point x="295" y="-91" type="curve" smooth="yes"/>
      <point x="295" y="-58"/>
      <point x="314" y="-27"/>
      <point x="353" y="2" type="curve"/>
      <point x="272" y="2" type="line"/>
      <point x="244" y="-17"/>
      <point x="199" y="-63"/>
      <point x="199" y="-122" type="curve" smooth="yes"/>
      <point x="199" y="-184"/>
      <point x="247" y="-216"/>
    </contour>
  </outline>
</glyph>
<glyph name="hungarumlaut" format="2">
  <advance width="571"/>
  <unicode hex="02DD"/>
  <outline>
    <contour>
      <point x="232" y="584" type="line"/>
      <point x="342" y="760" type="line"/>
      <point x="247" y="803" type="line"/>
      <point x="157" y="618" type="line"/>
    </contour>
    <contour>
      <point x="412" y="584" type="line"/>
      <point x="523" y="760" type="line"/>
      <point x="427" y="803" type="line"/>
      <point x="337" y="618" type="line"/>
    </contour>
  </outline>
</glyph>
<glyph name="gravecomb" format="2">
  <unicode hex="0300"/>
  <anchor x="250" y="720" name="_U"/>
  <outline>
    <contour>
      <point x="70" y="821" type="line"/>
      <point x="388" y="721" type="line"/>
      <point x="423" y="841" type="line"/>
      <point x="105" y="941" type="line"/>
    </contour>
  </outline>
</glyph>
<glyph name="macroncomb" format="2">
  <unicode hex="0304"/>
  <anchor x="250" y="720" name="_U"/>
  <outline>
    <contour>
      <point x="45" y="863" type="line"/>
      <point x="45" y="738" type="line"/>
      <point x="455" y="738" type="line"/>
      <point x="455" y="863" type="line"/>
    </contour>
  </outline>
</glyph>
<glyph name="dotaccentcomb" format="2">
  <unicode hex="0307"/>
  <anchor x="250" y="720" name="_U"/>
  <outline>
    <contour>
      <point x="185" y="868" type="line"/>
      <point x="185" y="738" type="line"/>
      <point x="315" y="738" type="line"/>
      <point x="315" y="868" type="line"/>
    </contour>
  </outline>
</glyph>
<glyph name="pi" format="2">
  <advance width="648"/>
  <unicode hex="03C0"/>
  <outline>
    <contour>
      <point x="533" y="-12" type="curve" smooth="yes"/>
      <point x="570" y="-12"/>
      <point x="603" y="-5"/>
      <point x="622" y="2" type="curve"/>
      <point x="605" y="107" type="line"/>
      <point x="589" y="104"/>
      <point x="576" y="102"/>
      <point x="566" y="102" type="curve" smooth="yes"/>
      <point x="536" y="102"/>
      <point x="520" y="114"/>
      <point x="520" y="149" type="curve" smooth="yes"/>
      <point x="520" y="177"/>
      <point x="521" y="305"/>
      <point x="527" y="398" type="curve"/>
      <point x="624" y="398" type="line"/>
      <point x="624" y="511" type="line"/>
      <point x="95" y="511" type="line"/>
      <point x="19" y="505" type="line"/>
      <point x="19" y="398" type="line"/>
      <point x="131" y="398" type="line"/>
      <point x="131" y="281"/>
      <point x="118" y="138"/>
      <point x="94" y="0" type="curve"/>
      <point x="236" y="-8" type="line"/>
      <point x="250" y="126"/>
      <point x="264" y="273"/>
      <point x="264" y="398" type="curve"/>
      <point x="391" y="398" type="line"/>
      <point x="391" y="309"/>
      <point x="387" y="189"/>
      <point x="387" y="155" type="curve" smooth="yes"/>
      <point x="387" y="53"/>
      <point x="424" y="-12"/>
    </contour>
  </outline>
</glyph>
<glyph name="figuredash" format="2">
  <advance width="540"/>
  <unicode hex="2012"/>
  <outline>
    <contour>
      <point x="44" y="215" type="line"/>
      <point x="496" y="215" type="line"/>
      <point x="496" y="307" type="line"/>
      <point x="44" y="307" type="line"/>
    </contour>
  </outline>
</glyph>
<glyph name="endash" format="2">
  <advance width="495"/>
  <unicode hex="2013"/>
  <outline>
    <contour>
      <point x="44" y="215" type="line"/>
      <point x="451" y="215" type="line"/>
      <point x="451" y="307" type="line"/>
      <point x="44" y="307" type="line"/>
    </contour>
  </outline>
</glyph>
<glyph name="emdash" format="2">
  <advance width="826"/>
  <unicode hex="2014"/>
  <outline>
    <contour>
      <point x="44" y="215" type="line"/>
      <point x="782" y="215" type="line"/>
      <point x="782" y="307" type="line"/>
      <point x="44" y="307" type="line"/>
    </contour>
  </outline>
</glyph>
<glyph name="dagger" format="2">
  <advance width="518"/>
  <unicode hex="2020"/>
  <outline>
    <contour>
      <point x="202" y="-82" type="line"/>
      <point x="316" y="-82" type="line"/>
      <point x="308" y="461" type="line"/>
      <point x="471" y="452" type="line"/>
      <point x="471" y="567" type="line"/>
      <point x="308" y="558" type="line"/>
      <point x="316" y="735" type="line"/>
      <point x="202" y="735" type="line"/>
      <point x="210" y="558" type="line"/>
      <point x="46" y="567" type="line"/>
      <point x="46" y="452" type="line"/>
      <point x="210" y="461" type="line"/>
    </contour>
  </outline>
</glyph>
<glyph name="daggerdbl" format="2">
  <advance width="588"/>
  <unicode hex="2021"/>
  <outline>
    <contour>
      <point x="68" y="488" type="line"/>
      <point x="68" y="429" type="line"/>
      <point x="261" y="429" type="line"/>
      <point x="261" y="289" type="line"/>
      <point x="68" y="289" type="line"/>
      <point x="68" y="230" type="line"/>
      <point x="261" y="230" type="line"/>
      <point x="261" y="-136" type="line"/>
      <point x="327" y="-136" type="line"/>
      <point x="327" y="230" type="line"/>
      <point x="520" y="230" type="line"/>
      <point x="520" y="289" type="line"/>
      <point x="327" y="289" type="line"/>
      <point x="327" y="429" type="line"/>
      <point x="520" y="429" type="line"/>
      <point x="520" y="488" type="line"/>
      <point x="327" y="488" type="line"/>
      <point x="327" y="684" type="line"/>
      <point x="261" y="684" type="line"/>
      <point x="261" y="488" type="line"/>
    </contour>
  </outline>
</glyph>
<glyph name="bullet" format="2">
  <advance width="568"/>
  <unicode hex="2022"/>
  <outline>
    <contour>
      <point x="129" y="448" type="line"/>
      <point x="129" y="136" type="line"/>
      <point x="438" y="136" type="line"/>
      <point x="438" y="448" type="line"/>
    </contour>
  </outline>
</glyph>
<glyph name="guilsinglleft" format="2">
  <advance width="479"/>
  <unicode hex="2039"/>
  <outline>
    <contour>
      <point x="54" y="315" type="line"/>
      <point x="333" y="76" type="line"/>
      <point x="417" y="175" type="line"/>
      <point x="160" y="395" type="line"/>
      <point x="155" y="259" type="line"/>
      <point x="417" y="482" type="line"/>
      <point x="333" y="581" type="line"/>
      <point x="54" y="345" type="line"/>
    </contour>
  </outline>
</glyph>
<glyph name="euro" format="2">
  <advance width="540"/>
  <unicode hex="20AC"/>
  <outline>
    <contour>
      <point x="345" y="-12" type="curve" smooth="yes"/>
      <point x="420" y="-12"/>
      <point x="482" y="21"/>
      <point x="532" y="83" type="curve"/>
      <point x="453" y="156" type="line"/>
      <point x="425" y="118"/>
      <point x="394" y="97"/>
      <point x="353" y="97" type="curve" smooth="yes"/>
      <point x="269" y="97"/>
      <point x="220" y="183"/>
      <point x="220" y="329" type="curve" smooth="yes"/>
      <point x="220" y="472"/>
      <point x="267" y="558"/>
      <point x="352" y="558" type="curve" smooth="yes"/>
      <point x="389" y="558"/>
      <point x="417" y="539"/>
      <point x="444" y="511" type="curve"/>
      <point x="523" y="588" type="line"/>
      <point x="480" y="639"/>
      <point x="419" y="669"/>
      <point x="357" y="669" type="curve" smooth="yes"/>
      <point x="192" y="669"/>
      <point x="77" y="541"/>
      <point x="77" y="324" type="curve" smooth="yes"/>
      <point x="77" y="106"/>
      <point x="191" y="-12"/>
    </contour>
    <contour>
      <point x="21" y="225" type="line"/>
      <point x="415" y="225" type="line"/>
      <point x="415" y="298" type="line"/>
      <point x="97" y="298" type="line"/>
      <point x="21" y="292" type="line"/>
    </contour>
    <contour>
      <point x="21" y="352" type="line"/>
      <point x="456" y="352" type="line"/>
      <point x="456" y="425" type="line"/>
      <point x="97" y="425" type="line"/>
      <point x="21" y="419" type="line"/>
    </contour>
  </outline>
</glyph>
<glyph name="trademark" format="2">
  <advance width="698"/>
  <unicode hex="2122"/>
  <outline>
    <contour>
      <point x="95" y="374" type="line"/>
      <point x="188" y="374" type="line"/>
      <point x="188" y="613" type="line"/>
      <point x="280" y="613" type="line"/>
      <point x="280" y="698" type="line"/>
      <point x="3" y="698" type="line"/>
      <point x="3" y="613" type="line"/>
      <point x="95" y="613" type="line"/>
    </contour>
    <contour>
      <point x="325" y="374" type="line"/>
      <point x="411" y="374" type="line"/>
      <point x="411" y="479" type="line"/>
      <point x="400" y="597" type="line"/>
      <point x="405" y="597" type="line"/>
      <point x="465" y="422" type="line"/>
      <point x="532" y="422" type="line"/>
      <point x="593" y="597" type="line"/>
      <point x="597" y="597" type="line"/>
      <point x="587" y="479" type="line"/>
      <point x="587" y="374" type="line"/>
      <point x="672" y="374" type="line"/>
      <point x="672" y="698" type="line"/>
      <point x="566" y="698" type="line"/>
      <point x="525" y="593" type="line"/>
      <point x="501" y="523" type="line"/>
      <point x="497" y="523" type="line"/>
      <point x="473" y="593" type="line"/>
      <point x="432" y="698" type="line"/>
      <point x="325" y="698" type="line"/>
    </contour>
  </outline>
</glyph>
<glyph name="Ohm" format="2">
  <advance width="730"/>
  <unicode hex="2126"/>
  <outline>
    <contour>
      <point x="45" y="0" type="line"/>
      <point x="316" y="0" type="line"/>
      <point x="316" y="103" type="line"/>
      <point x="246" y="167"/>
      <point x="207" y="244"/>
      <point x="207" y="354" type="curve" smooth="yes"/>
      <point x="207" y="476"/>
      <point x="266" y="563"/>
      <point x="365" y="563" type="curve" smooth="yes"/>
      <point x="463" y="563"/>
      <point x="522" y="476"/>
      <point x="522" y="354" type="curve" smooth="yes"/>
      <point x="522" y="244"/>
      <point x="483" y="167"/>
      <point x="413" y="103" type="curve"/>
      <point x="413" y="0" type="line"/>
      <point x="684" y="0" type="line"/>
      <point x="684" y="114" type="line"/>
      <point x="567" y="114" type="line"/>
      <point x="567" y="119" type="line"/>
      <point x="613" y="166"/>
      <point x="668" y="253"/>
      <point x="668" y="368" type="curve" smooth="yes"/>
      <point x="668" y="555"/>
      <point x="546" y="686"/>
      <point x="365" y="686" type="curve" smooth="yes"/>
      <point x="183" y="686"/>
      <point x="61" y="555"/>
      <point x="61" y="368" type="curve" smooth="yes"/>
      <point x="61" y="253"/>
      <point x="116" y="166"/>
      <point x="162" y="119" type="curve"/>
      <point x="162" y="114" type="line"/>
      <point x="45" y="114" type="line"/>
    </contour>
  </outline>
</glyph>
<glyph name="partialdiff" format="2">
  <advance width="588"/>
  <unicode hex="2202"/>
  <outline>
    <contour>
      <point x="249" y="-12" type="curve" smooth="yes"/>
      <point x="420" y="-12"/>
      <point x="540" y="146"/>
      <point x="540" y="388" type="curve" smooth="yes"/>
      <point x="540" y="576"/>
      <point x="459" y="686"/>
      <point x="303" y="686" type="curve" smooth="yes"/>
      <point x="232" y="686"/>
      <point x="172" y="658"/>
      <point x="118" y="611" type="curve"/>
      <point x="180" y="523" type="line"/>
      <point x="212" y="554"/>
      <point x="247" y="571"/>
      <point x="287" y="571" type="curve" smooth="yes"/>
      <point x="370" y="571"/>
      <point x="405" y="508"/>
      <point x="405" y="384" type="curve" smooth="yes"/>
      <point x="405" y="177"/>
      <point x="339" y="102"/>
      <point x="264" y="102" type="curve" smooth="yes"/>
      <point x="219" y="102"/>
      <point x="179" y="135"/>
      <point x="179" y="198" type="curve" smooth="yes"/>
      <point x="179" y="278"/>
      <point x="222" y="317"/>
      <point x="287" y="317" type="curve" smooth="yes"/>
      <point x="326" y="317"/>
      <point x="366" y="299"/>
      <point x="398" y="248" type="curve"/>
      <point x="414" y="349" type="line"/>
      <point x="379" y="398"/>
      <point x="325" y="426"/>
      <point x="270" y="426" type="curve" smooth="yes"/>
      <point x="139" y="426"/>
      <point x="48" y="331"/>
      <point x="48" y="190" type="curve" smooth="yes"/>
      <point x="48" y="65"/>
      <point x="140" y="-12"/>
    </contour>
  </outline>
</glyph>
<glyph name="increment" format="2">
  <advance width="594"/>
  <unicode hex="2206"/>
  <outline>
    <contour>
      <point x="29" y="0" type="line"/>
      <point x="565" y="0" type="line"/>
      <point x="565" y="41" type="line"/>
      <point x="336" y="679" type="line"/>
      <point x="257" y="679" type="line"/>
      <point x="29" y="41" type="line"/>
    </contour>
    <contour>
      <point x="106" y="60" type="line"/>
      <point x="220" y="389" type="line"/>
      <point x="295" y="611" type="line"/>
      <point x="299" y="611" type="line"/>
      <point x="372" y="389" type="line"/>
      <point x="487" y="60" type="line"/>
    </contour>
  </outline>
</glyph>
<glyph name="product" format="2">
  <advance width="728"/>
  <unicode hex="220F"/>
  <outline>
    <contour>
      <point x="83" y="-123" type="line"/>
      <point x="226" y="-123" type="line"/>
      <point x="226" y="532" type="line"/>
      <point x="501" y="532" type="line"/>
      <point x="501" y="-123" type="line"/>
      <point x="644" y="-123" type="line"/>
      <point x="644" y="656" type="line"/>
      <point x="83" y="656" type="line"/>
    </contour>
  </outline>
</glyph>
<glyph name="summation" format="2">
  <advance width="547"/>
  <unicode hex="2211"/>
  <outline>
    <contour>
      <point x="26" y="-123" type="line"/>
      <point x="538" y="-123" type="line"/>
      <point x="538" y="-4" type="line"/>
      <point x="202" y="-4" type="line"/>
      <point x="202" y="0" type="line"/>
      <point x="390" y="266" type="line"/>
      <point x="210" y="532" type="line"/>
      <point x="210" y="536" type="line"/>
      <point x="513" y="536" type="line"/>
      <point x="513" y="656" type="line"/>
      <point x="37" y="656" type="line"/>
      <point x="37" y="571" type="line"/>
      <point x="244" y="265" type="line"/>
      <point x="26" y="-39" type="line"/>
    </contour>
  </outline>
</glyph>
<glyph name="minus" format="2">
  <advance width="540"/>
  <unicode hex="2212"/>
  <outline>
    <contour>
      <point x="35" y="290" type="line"/>
      <point x="505" y="290" type="line"/>
      <point x="505" y="391" type="line"/>
      <point x="35" y="391" type="line"/>
    </contour>
  </outline>
</glyph>
<glyph name="divisionslash" format="2">
  <advance width="97"/>
  <unicode hex="2215"/>
  <outline>
    <contour>
      <point x="-175" y="-12" type="line"/>
      <point x="-92" y="-12" type="line"/>
      <point x="272" y="686" type="line"/>
      <point x="189" y="686" type="line"/>
    </contour>
  </outline>
</glyph>
<glyph name="bulletoperator" format="2">
  <advance width="542"/>
  <unicode hex="2219"/>
  <outline>
    <contour>
      <point x="269" y="248" type="curve" smooth="yes"/>
      <point x="319" y="248"/>
      <point x="356" y="287"/>
      <point x="356" y="338" type="curve" smooth="yes"/>
      <point x="356" y="390"/>
      <point x="319" y="429"/>
      <point x="269" y="429" type="curve" smooth="yes"/>
      <point x="219" y="429"/>
      <point x="182" y="390"/>
      <point x="182" y="338" type="curve" smooth="yes"/>
      <point x="182" y="287"/>
      <point x="219" y="248"/>
    </contour>
  </outline>
</glyph>
<glyph name="radical" format="2">
  <advance width="602"/>
  <unicode hex="221A"/>
  <outline>
    <contour>
      <point x="287" y="-85" type="line"/>
      <point x="385" y="-85" type="line"/>
      <point x="609" y="847" type="line"/>
      <point x="514" y="847" type="line"/>
      <point x="348" y="137" type="line"/>
      <point x="342" y="110"/>
      <point x="337" y="82"/>
      <point x="333" y="55" type="curve"/>
      <point x="329" y="55" type="line"/>
      <point x="323" y="82"/>
      <point x="316" y="110"/>
      <point x="308" y="137" type="curve"/>
      <point x="203" y="449" type="line"/>
      <point x="30" y="378" type="line"/>
      <point x="55" y="310" type="line"/>
      <point x="132" y="342" type="line"/>
    </contour>
  </outline>
</glyph>
<glyph name="infinity" format="2">
  <advance width="835"/>
  <unicode hex="221E"/>
  <outline>
    <contour>
      <point x="597" y="121" type="curve" smooth="yes"/>
      <point x="707" y="121"/>
      <point x="797" y="205"/>
      <point x="797" y="350" type="curve" smooth="yes"/>
      <point x="797" y="467"/>
      <point x="712" y="552"/>
      <point x="603" y="552" type="curve" smooth="yes"/>
      <point x="520" y="552"/>
      <point x="457" y="507"/>
      <point x="405" y="438" type="curve"/>
      <point x="401" y="438" type="line"/>
      <point x="364" y="489"/>
      <point x="310" y="536"/>
      <point x="230" y="536" type="curve" smooth="yes"/>
      <point x="117" y="536"/>
      <point x="38" y="459"/>
      <point x="38" y="328" type="curve" smooth="yes"/>
      <point x="38" y="232"/>
      <point x="114" y="147"/>
      <point x="211" y="147" type="curve" smooth="yes"/>
      <point x="289" y="147"/>
      <point x="345" y="197"/>
      <point x="382" y="244" type="curve"/>
      <point x="386" y="244" type="line"/>
      <point x="450" y="161"/>
      <point x="510" y="121"/>
    </contour>
    <contour>
      <point x="224" y="251" type="curve" smooth="yes"/>
      <point x="174" y="251"/>
      <point x="143" y="289"/>
      <point x="143" y="332" type="curve" smooth="yes"/>
      <point x="143" y="374"/>
      <point x="169" y="404"/>
      <point x="219" y="404" type="curve" smooth="yes"/>
      <point x="262" y="404"/>
      <point x="302" y="370"/>
      <point x="334" y="323" type="curve"/>
      <point x="305" y="280"/>
      <point x="268" y="251"/>
    </contour>
    <contour>
      <point x="596" y="253" type="curve" smooth="yes"/>
      <point x="538" y="253"/>
      <point x="497" y="299"/>
      <point x="453" y="360" type="curve"/>
      <point x="495" y="419"/>
      <point x="541" y="448"/>
      <point x="590" y="448" type="curve" smooth="yes"/>
      <point x="653" y="448"/>
      <point x="692" y="409"/>
      <point x="692" y="347" type="curve" smooth="yes"/>
      <point x="692" y="297"/>
      <point x="656" y="253"/>
    </contour>
  </outline>
</glyph>
<glyph name="integral" format="2">
  <advance width="394"/>
  <unicode hex="222B"/>
  <outline>
    <contour>
      <point x="102" y="-163" type="curve" smooth="yes"/>
      <point x="257" y="-163"/>
      <point x="289" y="-54"/>
      <point x="289" y="89" type="curve" smooth="yes"/>
      <point x="289" y="257"/>
      <point x="249" y="411"/>
      <point x="249" y="568" type="curve" smooth="yes"/>
      <point x="249" y="666"/>
      <point x="261" y="710"/>
      <point x="315" y="710" type="curve" smooth="yes"/>
      <point x="329" y="710"/>
      <point x="342" y="708"/>
      <point x="352" y="706" type="curve"/>
      <point x="366" y="809" type="line"/>
      <point x="355" y="812"/>
      <point x="332" y="817"/>
      <point x="308" y="817" type="curve" smooth="yes"/>
      <point x="152" y="817"/>
      <point x="121" y="708"/>
      <point x="121" y="564" type="curve" smooth="yes"/>
      <point x="121" y="396"/>
      <point x="161" y="242"/>
      <point x="161" y="85" type="curve" smooth="yes"/>
      <point x="161" y="-14"/>
      <point x="149" y="-56"/>
      <point x="95" y="-56" type="curve" smooth="yes"/>
      <point x="81" y="-56"/>
      <point x="68" y="-54"/>
      <point x="58" y="-51" type="curve"/>
      <point x="44" y="-155" type="line"/>
      <point x="56" y="-158"/>
      <point x="78" y="-163"/>
    </contour>
  </outline>
</glyph>
<glyph name="notequal" format="2">
  <advance width="540"/>
  <unicode hex="2260"/>
  <outline>
    <contour>
      <point x="54" y="45" type="line"/>
      <point x="146" y="45" type="line"/>
      <point x="220" y="171" type="line"/>
      <point x="505" y="171" type="line"/>
      <point x="505" y="272" type="line"/>
      <point x="277" y="272" type="line"/>
      <point x="355" y="409" type="line"/>
      <point x="505" y="409" type="line"/>
      <point x="505" y="510" type="line"/>
      <point x="411" y="510" type="line"/>
      <point x="486" y="636" type="line"/>
      <point x="394" y="636" type="line"/>
      <point x="319" y="510" type="line"/>
      <point x="35" y="510" type="line"/>
      <point x="35" y="409" type="line"/>
      <point x="263" y="409" type="line"/>
      <point x="185" y="272" type="line"/>
      <point x="35" y="272" type="line"/>
      <point x="35" y="171" type="line"/>
      <point x="129" y="171" type="line"/>
    </contour>
  </outline>
</glyph>
<glyph name="lessequal" format="2">
  <advance width="540"/>
  <unicode hex="2264"/>
  <outline>
    <contour>
      <point x="505" y="158" type="line"/>
      <point x="505" y="276" type="line"/>
      <point x="321" y="327" type="line"/>
      <point x="179" y="364" type="line"/>
      <point x="179" y="368" type="line"/>
      <point x="321" y="405" type="line"/>
      <point x="505" y="456" type="line"/>
      <point x="505" y="574" type="line"/>
      <point x="35" y="425" type="line"/>
      <point x="35" y="307" type="line"/>
    </contour>
    <contour>
      <point x="35" y="0" type="line"/>
      <point x="505" y="0" type="line"/>
      <point x="505" y="100" type="line"/>
      <point x="35" y="100" type="line"/>
    </contour>
  </outline>
</glyph>
<glyph name="greaterequal" format="2">
  <advance width="540"/>
  <unicode hex="2265"/>
  <outline>
    <contour>
      <point x="35" y="158" type="line"/>
      <point x="505" y="307" type="line"/>
      <point x="505" y="425" type="line"/>
      <point x="35" y="574" type="line"/>
      <point x="35" y="456" type="line"/>
      <point x="219" y="405" type="line"/>
      <point x="361" y="368" type="line"/>
      <point x="361" y="364" type="line"/>
      <point x="219" y="327" type="line"/>
      <point x="35" y="276" type="line"/>
    </contour>
    <contour>
      <point x="35" y="0" type="line"/>
      <point x="505" y="0" type="line"/>
      <point x="505" y="100" type="line"/>
      <point x="35" y="100" type="line"/>
    </contour>
  </outline>
</glyph>
<glyph name="lozenge" format="2">
  <advance width="561"/>
  <unicode hex="25CA"/>
  <outline>
    <contour>
      <point x="222" y="-10" type="line"/>
      <point x="338" y="-10" type="line"/>
      <point x="507" y="340" type="line"/>
      <point x="338" y="692" type="line"/>
      <point x="222" y="692" type="line"/>
      <point x="54" y="340" type="line"/>
    </contour>
    <contour>
      <point x="278" y="108" type="line"/>
      <point x="222" y="235" type="line"/>
      <point x="172" y="340" type="line"/>
      <point x="222" y="446" type="line"/>
      <point x="278" y="573" type="line"/>
      <point x="282" y="573" type="line"/>
      <point x="339" y="446" type="line"/>
      <point x="389" y="340" type="line"/>
      <point x="339" y="235" type="line"/>
      <point x="282" y="108" type="line"/>
    </contour>
  </outline>
</glyph>
<glyph name="dottedCircle" format="2">
  <advance width="597"/>
  <unicode hex="25CC"/>
  <anchor x="299" y="584" name="U"/>
  <anchor x="299" y="534" name="aboveLC"/>
  <anchor x="299" y="0" name="baseLC"/>
  <outline>
    <contour>
      <point x="108" y="99" type="curve" smooth="yes"/>
      <point x="134" y="99"/>
      <point x="151" y="115"/>
      <point x="151" y="142" type="curve" smooth="yes"/>
      <point x="151" y="170"/>
      <point x="133" y="186"/>
      <point x="108" y="186" type="curve" smooth="yes"/>
      <point x="87" y="186"/>
      <point x="68" y="170"/>
      <point x="68" y="142" type="curve" smooth="yes"/>
      <point x="68" y="115"/>
      <point x="87" y="99"/>
    </contour>
    <contour>
      <point x="80" y="211" type="curve" smooth="yes"/>
      <point x="106" y="211"/>
      <point x="124" y="227"/>
      <point x="124" y="256" type="curve" smooth="yes"/>
      <point x="124" y="283"/>
      <point x="105" y="298"/>
      <point x="80" y="298" type="curve" smooth="yes"/>
      <point x="58" y="298"/>
      <point x="38" y="283"/>
      <point x="38" y="256" type="curve" smooth="yes"/>
      <point x="38" y="227"/>
      <point x="58" y="211"/>
    </contour>
    <contour>
      <point x="108" y="324" type="curve" smooth="yes"/>
      <point x="134" y="324"/>
      <point x="151" y="341"/>
      <point x="151" y="369" type="curve" smooth="yes"/>
      <point x="151" y="398"/>
      <point x="133" y="412"/>
      <point x="108" y="412" type="curve" smooth="yes"/>
      <point x="87" y="412"/>
      <point x="68" y="398"/>
      <point x="68" y="369" type="curve" smooth="yes"/>
      <point x="68" y="341"/>
      <point x="87" y="324"/>
    </contour>
    <contour>
      <point x="189" y="14" type="curve" smooth="yes"/>
      <point x="214" y="14"/>
      <point x="232" y="31"/>
      <point x="232" y="60" type="curve" smooth="yes"/>
      <point x="232" y="86"/>
      <point x="212" y="101"/>
      <point x="189" y="101" type="curve" smooth="yes"/>
      <point x="167" y="101"/>
      <point x="147" y="86"/>
      <point x="147" y="60" type="curve" smooth="yes"/>
      <point x="147" y="31"/>
      <point x="167" y="14"/>
    </contour>
    <contour>
      <point x="189" y="409" type="curve" smooth="yes"/>
      <point x="214" y="409"/>
      <point x="232" y="425"/>
      <point x="232" y="452" type="curve" smooth="yes"/>
      <point x="232" y="481"/>
      <point x="212" y="496"/>
      <point x="189" y="496" type="curve" smooth="yes"/>
      <point x="167" y="496"/>
      <point x="147" y="481"/>
      <point x="147" y="452" type="curve" smooth="yes"/>
      <point x="147" y="425"/>
      <point x="167" y="409"/>
    </contour>
    <contour>
      <point x="298" y="-13" type="curve" smooth="yes"/>
      <point x="324" y="-13"/>
      <point x="341" y="2"/>
      <point x="341" y="31" type="curve" smooth="yes"/>
      <point x="341" y="58"/>
      <point x="323" y="73"/>
      <point x="298" y="73" type="curve" smooth="yes"/>
      <point x="276" y="73"/>
      <point x="257" y="58"/>
      <point x="257" y="31" type="curve" smooth="yes"/>
      <point x="257" y="2"/>
      <point x="276" y="-13"/>
    </contour>
    <contour>
      <point x="298" y="436" type="curve" smooth="yes"/>
      <point x="324" y="436"/>
      <point x="341" y="453"/>
      <point x="341" y="481" type="curve" smooth="yes"/>
      <point x="341" y="508"/>
      <point x="323" y="523"/>
      <point x="298" y="523" type="curve" smooth="yes"/>
      <point x="276" y="523"/>
      <point x="257" y="508"/>
      <point x="257" y="481" type="curve" smooth="yes"/>
      <point x="257" y="453"/>
      <point x="276" y="436"/>
    </contour>
    <contour>
      <point x="407" y="14" type="curve" smooth="yes"/>
      <point x="433" y="14"/>
      <point x="450" y="31"/>
      <point x="450" y="60" type="curve" smooth="yes"/>
      <point x="450" y="86"/>
      <point x="431" y="101"/>
      <point x="407" y="101" type="curve" smooth="yes"/>
      <point x="385" y="101"/>
      <point x="365" y="86"/>
      <point x="365" y="60" type="curve" smooth="yes"/>
      <point x="365" y="31"/>
      <point x="385" y="14"/>
    </contour>
    <contour>
      <point x="407" y="408" type="curve" smooth="yes"/>
      <point x="433" y="408"/>
      <point x="450" y="424"/>
      <point x="450" y="452" type="curve" smooth="yes"/>
      <point x="450" y="480"/>
      <point x="431" y="496"/>
      <point x="407" y="496" type="curve" smooth="yes"/>
      <point x="385" y="496"/>
      <point x="365" y="480"/>
      <point x="365" y="452" type="curve" smooth="yes"/>
      <point x="365" y="424"/>
      <point x="385" y="408"/>
    </contour>
    <contour>
      <point x="489" y="99" type="curve" smooth="yes"/>
      <point x="514" y="99"/>
      <point x="531" y="115"/>
      <point x="531" y="142" type="curve" smooth="yes"/>
      <point x="531" y="170"/>
      <point x="512" y="186"/>
      <point x="489" y="186" type="curve" smooth="yes"/>
      <point x="466" y="186"/>
      <point x="446" y="170"/>
      <point x="446" y="142" type="curve" smooth="yes"/>
      <point x="446" y="115"/>
      <point x="466" y="99"/>
    </contour>
    <contour>
      <point x="517" y="211" type="curve" smooth="yes"/>
      <point x="541" y="211"/>
      <point x="559" y="227"/>
      <point x="559" y="256" type="curve" smooth="yes"/>
      <point x="559" y="283"/>
      <point x="539" y="298"/>
      <point x="517" y="298" type="curve" smooth="yes"/>
      <point x="493" y="298"/>
      <point x="474" y="283"/>
      <point x="474" y="256" type="curve" smooth="yes"/>
      <point x="474" y="227"/>
      <point x="493" y="211"/>
    </contour>
    <contour>
      <point x="489" y="324" type="curve" smooth="yes"/>
      <point x="514" y="324"/>
      <point x="531" y="340"/>
      <point x="531" y="368" type="curve" smooth="yes"/>
      <point x="531" y="396"/>
      <point x="512" y="411"/>
      <point x="489" y="411" type="curve" smooth="yes"/>
      <point x="466" y="411"/>
      <point x="446" y="396"/>
      <point x="446" y="368" type="curve" smooth="yes"/>
      <point x="446" y="340"/>
      <point x="466" y="324"/>
    </contour>
  </outline>
</glyph>
<glyph name="Basigna-beria" format="2">
  <advance width="885"/>
  <unicode hex="16EA1"/>
  <outline>
    <contour>
      <point x="740" y="674" type="line"/>
      <point x="406" y="-66" type="line"/>
      <point x="480" y="-66" type="line"/>
      <point x="147" y="674" type="line"/>
      <point x="27" y="609" type="line"/>
      <point x="366" y="-136" type="line"/>
      <point x="518" y="-136" type="line"/>
      <point x="858" y="609" type="line"/>
    </contour>
    <contour>
      <point x="377" y="353" type="line"/>
      <point x="509" y="353" type="line"/>
      <point x="509" y="674" type="line"/>
      <point x="377" y="674" type="line"/>
    </contour>
    <contour>
      <point x="443" y="444" type="curve" smooth="yes"/>
      <point x="367" y="444"/>
      <point x="311" y="430"/>
      <point x="246" y="403" type="curve"/>
      <point x="272" y="277" type="line"/>
      <point x="340" y="307"/>
      <point x="390" y="317"/>
      <point x="441" y="317" type="curve" smooth="yes"/>
      <point x="501" y="317"/>
      <point x="562" y="301"/>
      <point x="616" y="273" type="curve"/>
      <point x="640" y="399" type="line"/>
      <point x="587" y="427"/>
      <point x="519" y="444"/>
    </contour>
  </outline>
</glyph>
<glyph name="Darbai-beria" format="2">
  <advance width="790"/>
  <unicode hex="16EA2"/>
  <outline>
    <contour>
      <point x="260" y="-136" type="curve" smooth="yes"/>
      <point x="503" y="-136" type="line" smooth="yes"/>
      <point x="611" y="-136"/>
      <point x="672" y="-74"/>
      <point x="672" y="35" type="curve" smooth="yes"/>
      <point x="672" y="668" type="line"/>
      <point x="172" y="668" type="line"/>
      <point x="172" y="423" type="line"/>
      <point x="309" y="423" type="line"/>
      <point x="309" y="650" type="line"/>
      <point x="220" y="541" type="line"/>
      <point x="622" y="541" type="line"/>
      <point x="535" y="650" type="line"/>
      <point x="535" y="65" type="line" smooth="yes"/>
      <point x="535" y="4"/>
      <point x="523" y="-9"/>
      <point x="460" y="-9" type="curve" smooth="yes"/>
      <point x="303" y="-9" type="line" smooth="yes"/>
      <point x="240" y="-9"/>
      <point x="228" y="4"/>
      <point x="228" y="65" type="curve" smooth="yes"/>
      <point x="228" y="134" type="line"/>
      <point x="91" y="134" type="line"/>
      <point x="91" y="35" type="line" smooth="yes"/>
      <point x="91" y="-74"/>
      <point x="152" y="-136"/>
    </contour>
  </outline>
</glyph>
<glyph name="I-beria" format="2">
  <advance width="891"/>
  <unicode hex="16EA7"/>
  <anchor x="427" y="720" name="U"/>
  <outline>
    <contour>
      <point x="469" y="-136" type="line"/>
      <point x="838" y="-136" type="line"/>
      <point x="838" y="-4" type="line"/>
      <point x="724" y="-4" type="line"/>
      <point x="724" y="668" type="line"/>
      <point x="582" y="668" type="line"/>
      <point x="551" y="566"/>
      <point x="401" y="219"/>
      <point x="285" y="219" type="curve" smooth="yes"/>
      <point x="229" y="219"/>
      <point x="185" y="261"/>
      <point x="185" y="379" type="curve" smooth="yes"/>
      <point x="185" y="487"/>
      <point x="223" y="528"/>
      <point x="338" y="563" type="curve"/>
      <point x="292" y="685" type="line"/>
      <point x="149" y="638"/>
      <point x="48" y="575"/>
      <point x="48" y="379" type="curve" smooth="yes"/>
      <point x="48" y="158"/>
      <point x="170" y="92"/>
      <point x="275" y="92" type="curve" smooth="yes"/>
      <point x="440" y="92"/>
      <point x="555" y="297"/>
      <point x="605" y="426" type="curve"/>
      <point x="641" y="426" type="line"/>
      <point x="587" y="471" type="line"/>
      <point x="587" y="-4" type="line"/>
      <point x="469" y="-4" type="line"/>
    </contour>
    <contour>
      <point x="531" y="77" type="line"/>
      <point x="779" y="77" type="line"/>
      <point x="779" y="209" type="line"/>
      <point x="531" y="209" type="line"/>
    </contour>
  </outline>
</glyph>
<glyph name="Djai-beria" format="2">
  <advance width="951"/>
  <unicode hex="16EA8"/>
  <outline>
    <contour>
      <point x="321" y="448" type="curve" smooth="yes"/>
      <point x="321" y="271"/>
      <point x="228" y="132"/>
      <point x="25" y="-82" type="curve"/>
      <point x="125" y="-176" type="line"/>
      <point x="298" y="1"/>
      <point x="461" y="232"/>
      <point x="461" y="442" type="curve" smooth="yes"/>
      <point x="461" y="588"/>
      <point x="394" y="685"/>
      <point x="262" y="685" type="curve" smooth="yes"/>
      <point x="140" y="685"/>
      <point x="52" y="605"/>
      <point x="52" y="464" type="curve" smooth="yes"/>
      <point x="52" y="223"/>
      <point x="372" y="-51"/>
      <point x="615" y="-136" type="curve"/>
      <point x="747" y="-136" type="line"/>
      <point x="747" y="580" type="line"/>
      <point x="733" y="541" type="line"/>
      <point x="909" y="541" type="line"/>
      <point x="909" y="668" type="line"/>
      <point x="610" y="668" type="line"/>
      <point x="610" y="-32" type="line"/>
      <point x="638" y="-2" type="line"/>
      <point x="412" y="96"/>
      <point x="192" y="296"/>
      <point x="192" y="475" type="curve" smooth="yes"/>
      <point x="192" y="527"/>
      <point x="219" y="558"/>
      <point x="255" y="558" type="curve" smooth="yes"/>
      <point x="294" y="558"/>
      <point x="321" y="523"/>
    </contour>
  </outline>
</glyph>
<glyph name="Kobo-beria" format="2">
  <advance width="806"/>
  <unicode hex="16EA9"/>
  <outline>
    <contour>
      <point x="421" y="-156" type="curve" smooth="yes"/>
      <point x="576" y="-156"/>
      <point x="748" y="-62"/>
      <point x="748" y="106" type="curve" smooth="yes"/>
      <point x="748" y="247"/>
      <point x="610" y="355"/>
      <point x="430" y="355" type="curve" smooth="yes"/>
      <point x="399" y="355" type="line"/>
      <point x="480" y="296" type="line"/>
      <point x="480" y="541" type="line"/>
      <point x="607" y="541" type="line"/>
      <point x="607" y="668" type="line"/>
      <point x="218" y="668" type="line"/>
      <point x="218" y="541" type="line"/>
      <point x="343" y="541" type="line"/>
      <point x="343" y="227" type="line"/>
      <point x="416" y="227" type="line" smooth="yes"/>
      <point x="535" y="227"/>
      <point x="608" y="172"/>
      <point x="608" y="102" type="curve" smooth="yes"/>
      <point x="608" y="43"/>
      <point x="536" y="-29"/>
      <point x="420" y="-29" type="curve" smooth="yes"/>
      <point x="316" y="-29"/>
      <point x="203" y="17"/>
      <point x="180" y="139" type="curve"/>
      <point x="54" y="96" type="line"/>
      <point x="89" y="-74"/>
      <point x="250" y="-156"/>
    </contour>
  </outline>
</glyph>
<glyph name="Lakko-beria" format="2">
  <advance width="620"/>
  <unicode hex="16EAA"/>
  <outline>
    <contour>
      <point x="60" y="-136" type="line"/>
      <point x="560" y="-136" type="line"/>
      <point x="560" y="-9" type="line"/>
      <point x="379" y="-9" type="line"/>
      <point x="379" y="541" type="line"/>
      <point x="498" y="541" type="line"/>
      <point x="498" y="668" type="line"/>
      <point x="123" y="668" type="line"/>
      <point x="123" y="541" type="line"/>
      <point x="242" y="541" type="line"/>
      <point x="242" y="-9" type="line"/>
      <point x="60" y="-9" type="line"/>
    </contour>
  </outline>
</glyph>
<glyph name="Gna-beria" format="2">
  <advance width="789"/>
  <unicode hex="16EAD"/>
  <outline>
    <contour>
      <point x="325" y="-136" type="line"/>
      <point x="717" y="-136" type="line"/>
      <point x="717" y="-9" type="line"/>
      <point x="572" y="-9" type="line"/>
      <point x="598" y="-29" type="line"/>
      <point x="647" y="4"/>
      <point x="713" y="65"/>
      <point x="713" y="167" type="curve" smooth="yes"/>
      <point x="713" y="292"/>
      <point x="613" y="382"/>
      <point x="420" y="389" type="curve"/>
      <point x="447" y="342" type="line"/>
      <point x="522" y="352"/>
      <point x="583" y="408"/>
      <point x="583" y="491" type="curve" smooth="yes"/>
      <point x="583" y="598"/>
      <point x="472" y="668"/>
      <point x="334" y="668" type="curve" smooth="yes"/>
      <point x="115" y="668" type="line"/>
      <point x="115" y="30" type="line"/>
      <point x="252" y="30" type="line"/>
      <point x="252" y="267" type="line"/>
      <point x="417" y="267" type="line" smooth="yes"/>
      <point x="530" y="267"/>
      <point x="573" y="210"/>
      <point x="573" y="161" type="curve" smooth="yes"/>
      <point x="573" y="71"/>
      <point x="502" y="-9"/>
      <point x="354" y="-9" type="curve" smooth="yes"/>
      <point x="325" y="-9" type="line"/>
    </contour>
    <contour>
      <point x="252" y="394" type="line"/>
      <point x="252" y="541" type="line"/>
      <point x="320" y="541" type="line" smooth="yes"/>
      <point x="411" y="541"/>
      <point x="443" y="511"/>
      <point x="443" y="477" type="curve" smooth="yes"/>
      <point x="443" y="428"/>
      <point x="394" y="394"/>
      <point x="325" y="394" type="curve" smooth="yes"/>
    </contour>
  </outline>
</glyph>
<glyph name="Pi-beria" format="2">
  <advance width="871"/>
  <unicode hex="16EB0"/>
  <outline>
    <contour>
      <point x="514" y="-114" type="line"/>
      <point x="843" y="617" type="line"/>
      <point x="722" y="674" type="line"/>
      <point x="400" y="-47" type="line"/>
      <point x="488" y="-47" type="line"/>
      <point x="148" y="674" type="line"/>
      <point x="28" y="609" type="line"/>
      <point x="372" y="-114" type="line"/>
      <point x="310" y="-73" type="line"/>
      <point x="582" y="-73" type="line"/>
    </contour>
    <contour>
      <point x="503" y="370" type="line"/>
      <point x="503" y="674" type="line"/>
      <point x="371" y="674" type="line"/>
      <point x="371" y="370" type="line"/>
    </contour>
    <contour>
      <point x="250" y="413" type="curve"/>
      <point x="278" y="288" type="line"/>
      <point x="342" y="317"/>
      <point x="386" y="331"/>
      <point x="438" y="331" type="curve" smooth="yes"/>
      <point x="495" y="331"/>
      <point x="544" y="323"/>
      <point x="606" y="294" type="curve"/>
      <point x="630" y="420" type="line"/>
      <point x="577" y="445"/>
      <point x="514" y="458"/>
      <point x="438" y="458" type="curve" smooth="yes"/>
      <point x="373" y="458"/>
      <point x="311" y="442"/>
    </contour>
    <contour>
      <point x="693" y="-9" type="line"/>
      <point x="196" y="-9" type="line"/>
      <point x="196" y="-136" type="line"/>
      <point x="693" y="-136" type="line"/>
    </contour>
  </outline>
</glyph>
<glyph name="Erigo-beria" format="2">
  <advance width="884"/>
  <unicode hex="16EB1"/>
  <outline>
    <contour>
      <point x="237" y="-136" type="line"/>
      <point x="647" y="-136" type="line"/>
      <point x="647" y="-9" type="line"/>
      <point x="510" y="-9" type="line"/>
      <point x="510" y="242" type="line"/>
      <point x="786" y="242" type="line"/>
      <point x="786" y="630" type="line"/>
      <point x="649" y="630" type="line"/>
      <point x="649" y="369" type="line"/>
      <point x="481" y="369" type="line"/>
      <point x="510" y="345" type="line"/>
      <point x="510" y="675" type="line"/>
      <point x="373" y="675" type="line"/>
      <point x="373" y="345" type="line"/>
      <point x="403" y="369" type="line"/>
      <point x="235" y="369" type="line"/>
      <point x="235" y="630" type="line"/>
      <point x="98" y="630" type="line"/>
      <point x="98" y="242" type="line"/>
      <point x="373" y="242" type="line"/>
      <point x="373" y="-9" type="line"/>
      <point x="237" y="-9" type="line"/>
    </contour>
  </outline>
</glyph>
<glyph name="Erigo-Tamura-beria" format="2">
  <advance width="856"/>
  <unicode hex="16EB2"/>
  <outline>
    <contour>
      <point x="-8" y="-136" type="line"/>
      <point x="313" y="-136" type="line" smooth="yes"/>
      <point x="421" y="-136"/>
      <point x="482" y="-74"/>
      <point x="482" y="35" type="curve" smooth="yes"/>
      <point x="482" y="242" type="line"/>
      <point x="758" y="242" type="line"/>
      <point x="758" y="630" type="line"/>
      <point x="621" y="630" type="line"/>
      <point x="621" y="369" type="line"/>
      <point x="482" y="369" type="line"/>
      <point x="482" y="675" type="line"/>
      <point x="345" y="675" type="line"/>
      <point x="345" y="369" type="line"/>
      <point x="207" y="369" type="line"/>
      <point x="207" y="630" type="line"/>
      <point x="70" y="630" type="line"/>
      <point x="70" y="242" type="line"/>
      <point x="345" y="242" type="line"/>
      <point x="345" y="65" type="line" smooth="yes"/>
      <point x="345" y="4"/>
      <point x="333" y="-9"/>
      <point x="270" y="-9" type="curve" smooth="yes"/>
      <point x="-8" y="-9" type="line"/>
    </contour>
  </outline>
</glyph>
<glyph name="Seri-beria" format="2">
  <advance width="699"/>
  <unicode hex="16EB3"/>
  <outline>
    <contour>
      <point x="70" y="-136" type="line"/>
      <point x="294" y="-136" type="line" smooth="yes"/>
      <point x="402" y="-136"/>
      <point x="463" y="-74"/>
      <point x="463" y="35" type="curve" smooth="yes"/>
      <point x="463" y="541" type="line"/>
      <point x="635" y="541" type="line"/>
      <point x="635" y="668" type="line"/>
      <point x="153" y="668" type="line"/>
      <point x="153" y="541" type="line"/>
      <point x="326" y="541" type="line"/>
      <point x="326" y="65" type="line" smooth="yes"/>
      <point x="326" y="4"/>
      <point x="314" y="-9"/>
      <point x="251" y="-9" type="curve" smooth="yes"/>
      <point x="70" y="-9" type="line"/>
    </contour>
    <contour>
      <point x="175" y="265" type="line"/>
      <point x="613" y="265" type="line"/>
      <point x="613" y="392" type="line"/>
      <point x="175" y="392" type="line"/>
    </contour>
  </outline>
</glyph>
<glyph name="Shep-beria" format="2">
  <advance width="719"/>
  <unicode hex="16EB4"/>
  <outline>
    <contour>
      <point x="75" y="-136" type="line"/>
      <point x="299" y="-136" type="line" smooth="yes"/>
      <point x="407" y="-136"/>
      <point x="468" y="-74"/>
      <point x="468" y="35" type="curve" smooth="yes"/>
      <point x="468" y="541" type="line"/>
      <point x="640" y="541" type="line"/>
      <point x="640" y="668" type="line"/>
      <point x="158" y="668" type="line"/>
      <point x="158" y="541" type="line"/>
      <point x="331" y="541" type="line"/>
      <point x="331" y="65" type="line" smooth="yes"/>
      <point x="331" y="4"/>
      <point x="319" y="-9"/>
      <point x="256" y="-9" type="curve" smooth="yes"/>
      <point x="75" y="-9" type="line"/>
    </contour>
    <contour>
      <point x="175" y="119" type="line"/>
      <point x="613" y="119" type="line"/>
      <point x="613" y="246" type="line"/>
      <point x="175" y="246" type="line"/>
    </contour>
    <contour>
      <point x="175" y="324" type="line"/>
      <point x="613" y="324" type="line"/>
      <point x="613" y="451" type="line"/>
      <point x="175" y="451" type="line"/>
    </contour>
  </outline>
</glyph>
<glyph name="arkab-beria" format="2">
  <advance width="694"/>
  <unicode hex="16EBB"/>
  <anchor x="345" y="720" name="U"/>
  <outline>
    <contour>
      <point x="532" y="-26" type="line"/>
      <point x="640" y="54" type="line"/>
      <point x="157" y="646" type="line"/>
      <point x="119" y="543" type="line"/>
      <point x="573" y="543" type="line"/>
      <point x="537" y="646" type="line"/>
      <point x="57" y="54" type="line"/>
      <point x="161" y="-25" type="line"/>
      <point x="636" y="564" type="line"/>
      <point x="636" y="668" type="line"/>
      <point x="54" y="668" type="line"/>
      <point x="54" y="564" type="line"/>
    </contour>
  </outline>
</glyph>
<glyph name="kobo-beria" format="2">
  <advance width="655"/>
  <unicode hex="16EC4"/>
  <outline>
    <contour>
      <point x="335" y="-21" type="curve" smooth="yes"/>
      <point x="511" y="-21"/>
      <point x="600" y="77"/>
      <point x="600" y="211" type="curve" smooth="yes"/>
      <point x="600" y="356"/>
      <point x="488" y="431"/>
      <point x="318" y="462" type="curve" smooth="yes"/>
      <point x="290" y="468"/>
      <point x="247" y="475"/>
      <point x="219" y="478" type="curve"/>
      <point x="282" y="423" type="line"/>
      <point x="401" y="661" type="line"/>
      <point x="265" y="689" type="line"/>
      <point x="150" y="458" type="line"/>
      <point x="150" y="360" type="line"/>
      <point x="203" y="356"/>
      <point x="282" y="345"/>
      <point x="307" y="339" type="curve" smooth="yes"/>
      <point x="385" y="320"/>
      <point x="464" y="287"/>
      <point x="464" y="211" type="curve" smooth="yes"/>
      <point x="464" y="141"/>
      <point x="417" y="104"/>
      <point x="335" y="104" type="curve" smooth="yes"/>
      <point x="244" y="104"/>
      <point x="192" y="136"/>
      <point x="192" y="216" type="curve"/>
      <point x="56" y="216" type="line"/>
      <point x="56" y="58"/>
      <point x="162" y="-21"/>
    </contour>
  </outline>
</glyph>
<glyph name="meri-beria" format="2">
  <advance width="716"/>
  <unicode hex="16EC6"/>
  <outline>
    <contour>
      <point x="13" y="3" type="curve"/>
      <point x="144" y="-26" type="line"/>
      <point x="177" y="107"/>
      <point x="235" y="258"/>
      <point x="353" y="376" type="curve" smooth="yes"/>
      <point x="440" y="463"/>
      <point x="542" y="524"/>
      <point x="656" y="560" type="curve"/>
      <point x="610" y="684" type="line"/>
      <point x="480" y="644"/>
      <point x="356" y="571"/>
      <point x="253" y="465" type="curve" smooth="yes"/>
      <point x="89" y="297"/>
      <point x="35" y="91"/>
    </contour>
    <contour>
      <point x="532" y="180" type="line"/>
      <point x="639" y="256" type="line"/>
      <point x="473" y="522" type="line"/>
      <point x="360" y="456" type="line"/>
    </contour>
  </outline>
</glyph>
<glyph name="ngay-beria" format="2">
  <advance width="710"/>
  <unicode hex="16EC9"/>
  <outline>
    <contour>
      <point x="410" y="-5" type="curve" smooth="yes"/>
      <point x="531" y="-5" type="line" smooth="yes"/>
      <point x="602" y="-5"/>
      <point x="638" y="49"/>
      <point x="638" y="120" type="curve" smooth="yes"/>
      <point x="638" y="279" type="line" smooth="yes"/>
      <point x="638" y="364"/>
      <point x="588" y="422"/>
      <point x="495" y="422" type="curve" smooth="yes"/>
      <point x="151" y="422" type="line"/>
      <point x="236" y="327" type="line"/>
      <point x="236" y="653" type="line"/>
      <point x="151" y="543" type="line"/>
      <point x="469" y="543" type="line"/>
      <point x="469" y="668" type="line"/>
      <point x="102" y="668" type="line"/>
      <point x="102" y="0" type="line"/>
      <point x="236" y="0" type="line"/>
      <point x="236" y="357" type="line"/>
      <point x="151" y="297" type="line"/>
      <point x="449" y="297" type="line" smooth="yes"/>
      <point x="487" y="297"/>
      <point x="504" y="279"/>
      <point x="504" y="242" type="curve" smooth="yes"/>
      <point x="504" y="152" type="line" smooth="yes"/>
      <point x="504" y="127"/>
      <point x="498" y="120"/>
      <point x="478" y="120" type="curve" smooth="yes"/>
      <point x="462" y="120" type="line" smooth="yes"/>
      <point x="442" y="120"/>
      <point x="436" y="127"/>
      <point x="436" y="152" type="curve" smooth="yes"/>
      <point x="436" y="225" type="line"/>
      <point x="302" y="225" type="line"/>
      <point x="302" y="109" type="line" smooth="yes"/>
      <point x="302" y="41"/>
      <point x="339" y="-5"/>
    </contour>
  </outline>
</glyph>
<glyph name="erigo-tamura-beria" format="2">
  <advance width="858"/>
  <unicode hex="16ECD"/>
  <outline>
    <contour>
      <point x="101" y="259" type="line"/>
      <point x="757" y="259" type="line"/>
      <point x="757" y="668" type="line"/>
      <point x="623" y="668" type="line"/>
      <point x="623" y="384" type="line"/>
      <point x="235" y="384" type="line"/>
      <point x="235" y="668" type="line"/>
      <point x="101" y="668" type="line"/>
    </contour>
    <contour>
      <point x="102" y="0" type="line"/>
      <point x="303" y="0" type="line" smooth="yes"/>
      <point x="427" y="0"/>
      <point x="496" y="69"/>
      <point x="496" y="187" type="curve" smooth="yes"/>
      <point x="496" y="668" type="line"/>
      <point x="362" y="668" type="line"/>
      <point x="362" y="201" type="line" smooth="yes"/>
      <point x="362" y="150"/>
      <point x="337" y="125"/>
      <point x="289" y="125" type="curve" smooth="yes"/>
      <point x="102" y="125" type="line"/>
    </contour>
  </outline>
</glyph>
<glyph name="ui-beria" format="2">
  <advance width="634"/>
  <unicode hex="16ED1"/>
  <anchor x="267" y="720" name="U"/>
  <outline>
    <contour>
      <point x="152" y="0" type="line"/>
      <point x="296" y="0" type="line" smooth="yes"/>
      <point x="470" y="0"/>
      <point x="585" y="80"/>
      <point x="585" y="205" type="curve" smooth="yes"/>
      <point x="585" y="329"/>
      <point x="473" y="410"/>
      <point x="296" y="410" type="curve" smooth="yes"/>
      <point x="286" y="410" type="line"/>
      <point x="286" y="668" type="line"/>
      <point x="20" y="668" type="line"/>
      <point x="20" y="543" type="line"/>
      <point x="258" y="543" type="line"/>
      <point x="152" y="653" type="line"/>
    </contour>
    <contour>
      <point x="286" y="14" type="line"/>
      <point x="286" y="285" type="line"/>
      <point x="319" y="285" type="line" smooth="yes"/>
      <point x="404" y="285"/>
      <point x="449" y="248"/>
      <point x="449" y="205" type="curve" smooth="yes"/>
      <point x="449" y="163"/>
      <point x="404" y="125"/>
      <point x="319" y="125" type="curve" smooth="yes"/>
      <point x="232" y="125" type="line"/>
    </contour>
  </outline>
</glyph>
<glyph name="_acutecomb.cap" format="2">
  <anchor x="0" y="696" name="_aboveUC"/>
  <outline>
    <contour>
      <point x="-11" y="705" type="line"/>
      <point x="173" y="827" type="line"/>
      <point x="97" y="919" type="line"/>
      <point x="-74" y="776" type="line"/>
    </contour>
  </outline>
</glyph>
<glyph name="_acutecomb" format="2">
  <anchor x="0" y="534" name="_aboveLC"/>
  <outline>
    <contour>
      <point x="7" y="591" type="line"/>
      <point x="190" y="752" type="line"/>
      <point x="93" y="847" type="line"/>
      <point x="-63" y="661" type="line"/>
    </contour>
  </outline>
</glyph>
<glyph name="_caroncomb.cap" format="2">
  <anchor x="0" y="696" name="_aboveUC"/>
  <outline>
    <contour>
      <point x="-77" y="725" type="line"/>
      <point x="77" y="725" type="line"/>
      <point x="171" y="840" type="line"/>
      <point x="110" y="878" type="line"/>
      <point x="2" y="791" type="line"/>
      <point x="-2" y="791" type="line"/>
      <point x="-110" y="878" type="line"/>
      <point x="-171" y="840" type="line"/>
    </contour>
  </outline>
</glyph>
<glyph name="_caroncomb" format="2">
  <anchor x="0" y="534" name="_aboveLC"/>
  <outline>
    <contour>
      <point x="-72" y="595" type="line"/>
      <point x="72" y="595" type="line"/>
      <point x="184" y="732" type="line"/>
      <point x="130" y="783" type="line"/>
      <point x="2" y="685" type="line"/>
      <point x="-2" y="685" type="line"/>
      <point x="-130" y="783" type="line"/>
      <point x="-184" y="732" type="line"/>
    </contour>
  </outline>
</glyph>
<glyph name="_cedillacomb" format="2">
  <anchor x="0" y="0" name="_baseLC"/>
  <outline>
    <contour>
      <point x="-85" y="-230" type="line"/>
      <point x="18" y="-225"/>
      <point x="76" y="-196"/>
      <point x="76" y="-139" type="curve" smooth="yes"/>
      <point x="76" y="-97"/>
      <point x="47" y="-77"/>
      <point x="1" y="-66" type="curve"/>
      <point x="32" y="2" type="line"/>
      <point x="-15" y="2" type="line"/>
      <point x="-59" y="-90" type="line"/>
      <point x="-1" y="-98"/>
      <point x="20" y="-112"/>
      <point x="20" y="-140" type="curve" smooth="yes"/>
      <point x="20" y="-170"/>
      <point x="-5" y="-187"/>
      <point x="-93" y="-193" type="curve"/>
    </contour>
  </outline>
</glyph>
<glyph name="_circumflexcomb.cap" format="2">
  <anchor x="0" y="702" name="_aboveUC"/>
  <outline>
    <contour>
      <point x="-147" y="749" type="line"/>
      <point x="-116" y="725" type="line"/>
      <point x="-2" y="823" type="line"/>
      <point x="2" y="823" type="line"/>
      <point x="116" y="725" type="line"/>
      <point x="147" y="749" type="line"/>
      <point x="36" y="866" type="line"/>
      <point x="-36" y="866" type="line"/>
    </contour>
  </outline>
</glyph>
<glyph name="_circumflexcomb" format="2">
  <anchor x="0" y="534" name="_aboveLC"/>
  <anchor x="0" y="761" name="aboveLC"/>
  <outline>
    <contour>
      <point x="-184" y="631" type="line"/>
      <point x="-130" y="580" type="line"/>
      <point x="-2" y="678" type="line"/>
      <point x="2" y="678" type="line"/>
      <point x="130" y="580" type="line"/>
      <point x="184" y="631" type="line"/>
      <point x="72" y="768" type="line"/>
      <point x="-72" y="768" type="line"/>
    </contour>
  </outline>
</glyph>
<glyph name="_dieresiscomb.cap" format="2">
  <anchor x="0" y="702" name="_aboveUC"/>
  <outline>
    <contour>
      <point x="-104" y="743" type="curve" smooth="yes"/>
      <point x="-77" y="743"/>
      <point x="-58" y="761"/>
      <point x="-58" y="788" type="curve" smooth="yes"/>
      <point x="-58" y="815"/>
      <point x="-77" y="834"/>
      <point x="-104" y="834" type="curve" smooth="yes"/>
      <point x="-130" y="834"/>
      <point x="-149" y="815"/>
      <point x="-149" y="788" type="curve" smooth="yes"/>
      <point x="-149" y="761"/>
      <point x="-130" y="743"/>
    </contour>
    <contour>
      <point x="104" y="743" type="curve" smooth="yes"/>
      <point x="130" y="743"/>
      <point x="149" y="761"/>
      <point x="149" y="788" type="curve" smooth="yes"/>
      <point x="149" y="815"/>
      <point x="130" y="834"/>
      <point x="104" y="834" type="curve" smooth="yes"/>
      <point x="77" y="834"/>
      <point x="58" y="815"/>
      <point x="58" y="788" type="curve" smooth="yes"/>
      <point x="58" y="761"/>
      <point x="77" y="743"/>
    </contour>
  </outline>
</glyph>
<glyph name="_dieresiscomb" format="2">
  <anchor x="0" y="534" name="_aboveLC"/>
  <anchor x="0" y="740" name="aboveLC"/>
  <outline>
    <contour>
      <point x="-110" y="590" type="curve" smooth="yes"/>
      <point x="-69" y="590"/>
      <point x="-40" y="621"/>
      <point x="-40" y="661" type="curve" smooth="yes"/>
      <point x="-40" y="701"/>
      <point x="-69" y="731"/>
      <point x="-110" y="731" type="curve" smooth="yes"/>
      <point x="-152" y="731"/>
      <point x="-181" y="701"/>
      <point x="-181" y="661" type="curve" smooth="yes"/>
      <point x="-181" y="621"/>
      <point x="-152" y="590"/>
    </contour>
    <contour>
      <point x="110" y="590" type="curve" smooth="yes"/>
      <point x="152" y="590"/>
      <point x="181" y="621"/>
      <point x="181" y="661" type="curve" smooth="yes"/>
      <point x="181" y="701"/>
      <point x="152" y="731"/>
      <point x="110" y="731" type="curve" smooth="yes"/>
      <point x="69" y="731"/>
      <point x="40" y="701"/>
      <point x="40" y="661" type="curve" smooth="yes"/>
      <point x="40" y="621"/>
      <point x="69" y="590"/>
    </contour>
  </outline>
</glyph>
<glyph name="_four.dnom" format="2">
  <advance width="387"/>
  <outline>
    <contour>
      <point x="222" y="0" type="line"/>
      <point x="315" y="0" type="line"/>
      <point x="315" y="402" type="line"/>
      <point x="186" y="402" type="line"/>
      <point x="37" y="144" type="line"/>
      <point x="37" y="92" type="line"/>
      <point x="375" y="92" type="line"/>
      <point x="375" y="161" type="line"/>
      <point x="134" y="161" type="line"/>
      <point x="180" y="247" type="line"/>
      <point x="223" y="327" type="line"/>
      <point x="227" y="327" type="line"/>
      <point x="222" y="208" type="line"/>
    </contour>
  </outline>
</glyph>
<glyph name="_one.dnom" format="2">
  <advance width="387"/>
  <outline>
    <contour>
      <point x="171" y="0" type="line"/>
      <point x="276" y="0" type="line"/>
      <point x="276" y="402" type="line"/>
      <point x="193" y="402" type="line"/>
      <point x="160" y="379"/>
      <point x="134" y="367"/>
      <point x="80" y="359" type="curve"/>
      <point x="80" y="294" type="line"/>
      <point x="171" y="294" type="line"/>
    </contour>
  </outline>
</glyph>
<glyph name="_ringcomb.cap" format="2">
  <anchor x="0" y="696" name="_aboveUC"/>
  <outline>
    <contour>
      <point x="0" y="720" type="curve" smooth="yes"/>
      <point x="67" y="720"/>
      <point x="114" y="760"/>
      <point x="114" y="821" type="curve" smooth="yes"/>
      <point x="114" y="882"/>
      <point x="67" y="921"/>
      <point x="0" y="921" type="curve" smooth="yes"/>
      <point x="-68" y="921"/>
      <point x="-114" y="882"/>
      <point x="-114" y="821" type="curve" smooth="yes"/>
      <point x="-114" y="760"/>
      <point x="-68" y="720"/>
    </contour>
    <contour>
      <point x="0" y="774" type="curve" smooth="yes"/>
      <point x="-24" y="774"/>
      <point x="-44" y="792"/>
      <point x="-44" y="821" type="curve" smooth="yes"/>
      <point x="-44" y="849"/>
      <point x="-24" y="867"/>
      <point x="0" y="867" type="curve" smooth="yes"/>
      <point x="24" y="867"/>
      <point x="44" y="849"/>
      <point x="44" y="821" type="curve" smooth="yes"/>
      <point x="44" y="792"/>
      <point x="24" y="774"/>
    </contour>
  </outline>
</glyph>
<glyph name="_ringcomb" format="2">
  <anchor x="0" y="534" name="_aboveLC"/>
  <outline>
    <contour>
      <point x="0" y="581" type="curve" smooth="yes"/>
      <point x="86" y="581"/>
      <point x="132" y="628"/>
      <point x="132" y="687" type="curve" smooth="yes"/>
      <point x="132" y="747"/>
      <point x="86" y="794"/>
      <point x="0" y="794" type="curve" smooth="yes"/>
      <point x="-86" y="794"/>
      <point x="-132" y="747"/>
      <point x="-132" y="687" type="curve" smooth="yes"/>
      <point x="-132" y="628"/>
      <point x="-86" y="581"/>
    </contour>
    <contour>
      <point x="0" y="635" type="curve" smooth="yes"/>
      <point x="-25" y="635"/>
      <point x="-46" y="656"/>
      <point x="-46" y="687" type="curve" smooth="yes"/>
      <point x="-46" y="719"/>
      <point x="-25" y="740"/>
      <point x="0" y="740" type="curve" smooth="yes"/>
      <point x="25" y="740"/>
      <point x="46" y="719"/>
      <point x="46" y="687" type="curve" smooth="yes"/>
      <point x="46" y="656"/>
      <point x="25" y="635"/>
    </contour>
  </outline>
</glyph>
<glyph name="_three.dnom" format="2">
  <advance width="387"/>
  <outline>
    <contour>
      <point x="191" y="-12" type="curve" smooth="yes"/>
      <point x="273" y="-12"/>
      <point x="345" y="37"/>
      <point x="345" y="111" type="curve" smooth="yes"/>
      <point x="345" y="160"/>
      <point x="311" y="193"/>
      <point x="270" y="209" type="curve"/>
      <point x="307" y="231"/>
      <point x="330" y="259"/>
      <point x="330" y="303" type="curve" smooth="yes"/>
      <point x="330" y="373"/>
      <point x="265" y="415"/>
      <point x="191" y="415" type="curve" smooth="yes"/>
      <point x="129" y="415"/>
      <point x="88" y="392"/>
      <point x="45" y="346" type="curve"/>
      <point x="105" y="293" type="line"/>
      <point x="124" y="317"/>
      <point x="147" y="335"/>
      <point x="174" y="335" type="curve" smooth="yes"/>
      <point x="206" y="335"/>
      <point x="227" y="317"/>
      <point x="227" y="289" type="curve" smooth="yes"/>
      <point x="227" y="254"/>
      <point x="194" y="235"/>
      <point x="142" y="235" type="curve"/>
      <point x="142" y="174" type="line"/>
      <point x="208" y="174"/>
      <point x="242" y="156"/>
      <point x="242" y="119" type="curve" smooth="yes"/>
      <point x="242" y="86"/>
      <point x="214" y="67"/>
      <point x="180" y="67" type="curve" smooth="yes"/>
      <point x="145" y="67"/>
      <point x="118" y="84"/>
      <point x="93" y="118" type="curve"/>
      <point x="29" y="68" type="line"/>
      <point x="64" y="16"/>
      <point x="121" y="-12"/>
    </contour>
  </outline>
</glyph>
<glyph name="_tildecomb.cap" format="2">
  <anchor x="0" y="696" name="_aboveUC"/>
  <outline>
    <contour>
      <point x="74" y="717" type="curve" smooth="yes"/>
      <point x="144" y="717"/>
      <point x="196" y="763"/>
      <point x="201" y="863" type="curve"/>
      <point x="109" y="870" type="line"/>
      <point x="104" y="831"/>
      <point x="89" y="817"/>
      <point x="69" y="817" type="curve" smooth="yes"/>
      <point x="33" y="817"/>
      <point x="0" y="878"/>
      <point x="-74" y="878" type="curve" smooth="yes"/>
      <point x="-144" y="878"/>
      <point x="-196" y="833"/>
      <point x="-201" y="732" type="curve"/>
      <point x="-109" y="726" type="line"/>
      <point x="-105" y="764"/>
      <point x="-89" y="779"/>
      <point x="-69" y="779" type="curve" smooth="yes"/>
      <point x="-33" y="779"/>
      <point x="0" y="717"/>
    </contour>
  </outline>
</glyph>
<glyph name="_tildecomb" format="2">
  <anchor x="0" y="534" name="_aboveLC"/>
  <outline>
    <contour>
      <point x="69" y="593" type="curve" smooth="yes"/>
      <point x="147" y="593"/>
      <point x="190" y="644"/>
      <point x="193" y="747" type="curve"/>
      <point x="104" y="752" type="line"/>
      <point x="100" y="711"/>
      <point x="88" y="691"/>
      <point x="66" y="691" type="curve" smooth="yes"/>
      <point x="31" y="691"/>
      <point x="-3" y="760"/>
      <point x="-69" y="760" type="curve" smooth="yes"/>
      <point x="-147" y="760"/>
      <point x="-190" y="709"/>
      <point x="-193" y="606" type="curve"/>
      <point x="-104" y="601" type="line"/>
      <point x="-100" y="643"/>
      <point x="-88" y="662"/>
      <point x="-66" y="662" type="curve" smooth="yes"/>
      <point x="-31" y="662"/>
      <point x="3" y="593"/>
    </contour>
  </outline>
</glyph>
